<?xml version="1.0" encoding="utf-8"?>
<!-- Generator: Adobe Illustrator 24.1.1, SVG Export Plug-In . SVG Version: 6.00 Build 0)  -->
<svg version="1.1" id="Layer_1" xmlns="http://www.w3.org/2000/svg" xmlns:xlink="http://www.w3.org/1999/xlink" x="0px" y="0px"
	 viewBox="0 0 50 72" style="enable-background:new 0 0 50 72;" xml:space="preserve">
<style type="text/css">
	.st0{display:none;}
	.st1{display:inline;fill:#B1B4B6;}
	.st2{display:inline;}
	.st3{fill:#B1B4B6;}
	.st4{fill:#6B2B15;}
	.st5{fill:#333232;}
	.st6{fill:#414141;}
	.st7{fill:#4E4E4E;}
	.st8{fill:#F5B486;}
	.st9{fill:#3D7EC1;}
	.st10{fill:#649CD4;}
	.st11{fill:#FBD1B4;}
	.st12{fill:#6B3221;}
	.st13{fill:#606060;}
	.st14{fill:#939394;}
	.st15{fill:#D9D9D8;}
	.st16{fill:#8D919C;}
	.st17{fill:#79311D;}
	.st18{fill:#EB9954;}
	.st19{fill:#D26E45;}
	.st20{fill:#3F617B;}
	.st21{fill:#FFFFFF;}
	.st22{fill:#B14933;}
	.st23{display:inline;fill:#063347;}
	.st24{display:inline;fill:#79311D;}
	.st25{display:inline;fill:#FCCD45;}
	.st26{display:inline;fill:#A54C24;}
	.st27{display:inline;fill:#CD7528;}
	.st28{fill:#FEDDC7;}
	.st29{fill:#EFF2EF;}
	.st30{display:inline;fill:#FEDDC7;}
	.st31{display:inline;fill:url(#SVGID_1_);}
	.st32{display:inline;fill:url(#SVGID_2_);}
	.st33{display:inline;fill:#CC6528;}
	.st34{display:inline;fill:#FBD1B4;}
	.st35{display:inline;fill:#3D7EC1;}
	.st36{display:inline;fill:#BBBBBB;}
	.st37{display:inline;fill:#414141;}
	.st38{display:inline;fill:#F5B486;}
	.st39{display:inline;fill:#6B3221;}
	.st40{display:inline;fill:#FEEE47;}
	.st41{fill:#BCBCBC;}
	.st42{display:inline;fill:#6B2B15;}
	.st43{display:inline;fill:#333232;}
	.st44{display:inline;fill:#4E4E4E;}
	.st45{display:inline;fill:#565656;}
	.st46{display:inline;fill:#649CD4;}
	.st47{fill:#51545B;}
	.st48{fill:#232323;}
	.st49{fill:#696B74;}
	.st50{fill:#B7B8D1;}
	.st51{fill:#EDE9DF;}
	.st52{fill:#A26F4A;}
	.st53{fill:#8A8487;}
	.st54{fill:#C9AB7E;}
	.st55{fill:#B18A61;}
	.st56{display:inline;fill:#ABCA37;}
	.st57{display:inline;fill:#909236;}
	.st58{fill-rule:evenodd;clip-rule:evenodd;fill:#304820;}
	.st59{display:inline;fill:#8AA03B;}
	.st60{fill:#DADBD9;}
	.st61{fill:#ACAFAA;}
	.st62{fill:#6C6467;}
	.st63{fill:url(#SVGID_3_);}
	.st64{fill:url(#SVGID_4_);}
	.st65{fill:#84878B;}
	.st66{fill:#2C343B;}
	.st67{fill:#D8D0B7;}
	.st68{fill:#BB9875;}
	.st69{fill:#D5CBB1;}
	.st70{fill:#F9F8F3;}
	.st71{fill:#B28C64;}
	.st72{fill:#D0B58F;}
	.st73{fill:url(#SVGID_5_);}
	.st74{fill:#E4E5E5;}
	.st75{fill:#F1EEE5;}
	.st76{fill:#E9E9EA;}
	.st77{fill:#EFC42D;}
	.st78{fill:url(#SVGID_6_);}
	.st79{fill:#889190;}
	.st80{fill:url(#SVGID_7_);}
	.st81{fill:#F15F61;}
	.st82{fill:#EF4545;}
	.st83{fill:#D36673;}
	.st84{fill:url(#SVGID_8_);}
	.st85{fill:url(#SVGID_9_);}
	.st86{fill:#896673;}
	.st87{fill:url(#SVGID_10_);}
	.st88{fill:url(#SVGID_11_);}
	.st89{fill:#FAA65D;}
	.st90{fill:#F8963F;}
	.st91{fill:#E09A67;}
	.st92{fill:url(#SVGID_12_);}
	.st93{fill:url(#SVGID_13_);}
	.st94{display:inline;fill:#B18A61;}
	.st95{fill:#F7F8F7;}
	.st96{display:inline;fill:#A26F4A;}
	.st97{display:inline;fill:#0C5598;}
	.st98{display:inline;fill:#467DB1;}
	.st99{fill:url(#XMLID_2_);}
	.st100{fill:#D7E3E9;}
	.st101{fill:#BBC1C6;}
	.st102{fill:#E2E7E9;}
	.st103{fill:#144270;}
	.st104{fill:#60696B;}
	.st105{fill:#292929;}
	.st106{fill:#4D4D4D;}
	.st107{fill:#434343;}
	.st108{fill:#16191B;}
	.st109{fill:#E9E8E8;}
	.st110{fill:#689C41;}
	.st111{fill:#87C65B;}
	.st112{fill:#8D8782;}
	.st113{display:inline;fill:#FFFFFF;}
	.st114{fill:#B5D444;}
	.st115{fill:#4B7E3A;}
	.st116{fill:#3E5828;}
	.st117{fill:#6AAE44;}
	.st118{fill:#CE2027;}
	.st119{fill:#EF3E42;}
	.st120{fill:#F1646E;}
	.st121{fill:#EF363F;}
	.st122{fill:#AC1F2B;}
	.st123{fill:#ABCA37;}
	.st124{fill:#8AA03B;}
	.st125{fill:#F68624;}
	.st126{fill:#D45D27;}
	.st127{fill:#FFD94D;}
	.st128{fill:#3C622F;}
	.st129{fill:#E2CCE3;}
</style>
<g class="st0">
	<polygon id="XMLID_124_" class="st1" points="2.03,54.42 25.79,68.13 40.56,59.5 16.8,45.79 	"/>
	<polygon class="st1" points="39.57,60.08 42.42,59.87 41.41,60.62 37.06,60.73 	"/>
	<polygon class="st1" points="27.44,66.82 31.18,66.76 29.32,67.45 25.82,67.62 	"/>
	<g id="XMLID_122_" class="st2">
		<polygon id="XMLID_123_" class="st3" points="27.88,68.2 28.67,68.67 30.7,68.79 44.68,59.43 42.88,59.43 		"/>
	</g>
	<g id="XMLID_120_" class="st2">
		<polygon id="XMLID_121_" class="st3" points="3.85,54.08 4.65,54.55 6.68,54.67 20.65,45.31 18.85,45.31 		"/>
	</g>
	<g class="st2">
		<g>
			<path class="st4" d="M34.25,44.25c0,0-0.57,0.6-0.89,0.87c-0.32,0.27-1.23,0.64-1.47,0.71c-0.24,0.07-1.29,0.58-1.39,0.83
				c-0.1,0.26-0.14,1.07,0,1.48c0.14,0.42,0.92,0.38,1.15,0.32c0.23-0.06,1.26-0.66,1.33-0.68c0.07-0.02,0.87-0.63,1.46-0.67
				c0.59-0.05,1.6-0.07,2.02-0.41c0.42-0.34,0.22-1.75,0.22-1.75l-0.05-1.01L34.25,44.25z"/>
			<path class="st5" d="M35.37,34.59l-0.27,1.5c0,0-0.39,4.36-0.58,5.53c-0.19,1.17-0.49,2.64-0.49,2.9c0,0.26,0.7,0.77,1.46,0.7
				c0.77-0.07,0.99-0.45,1.29-0.87c0.3-0.42,0.97-3.59,1.32-4.44c0.35-0.85,0.87-4.33,0.77-4.99
				C38.76,34.26,35.37,34.59,35.37,34.59z"/>
			<path class="st4" d="M37.96,45.16c0,0-0.15,1.32-0.46,1.54c-0.31,0.22-2.19,2.08-2.39,2.25c-0.2,0.17-1.09,0.63-0.68,1.14
				c0.41,0.51,1.07,0.56,1.32,0.6c0.26,0.05,1.45,0.05,1.5,0.07c0.05,0.02,1.22-0.92,1.43-1.29c0.21-0.37,0.65-1.08,0.96-1.17
				s0.78-0.39,0.78-0.7s-0.05-1.77-0.05-1.84C40.36,45.69,37.96,45.16,37.96,45.16z"/>
			<path class="st6" d="M34.63,24.94c0,0-0.42,1.99-0.23,4.8c0.19,2.81,0.56,5.6,0.7,6.35c0.14,0.75,2.23,0.96,3.08,0.24
				c0.86-0.72,1.74-6.05,1.74-6.05s0.58-4.54,0-5.91C39.34,22.99,35.45,23.18,34.63,24.94z"/>
			<path class="st7" d="M36.63,24.48c0,0,0.28,1.92,1.28,3.01c1,1.09,1.21,1.39,1.21,1.39s-0.53,5.92-0.83,7.1
				c-0.3,1.18,0.47,2.74,1.9,2.74s2.55-1.79,2.93-2.81c0.38-1.02,0.8-2.97,1.66-4.66c0.86-1.69,1.48-4.41,1.28-5.82
				c-0.21-1.41-0.94-2.54-1.53-3.14C43.93,21.69,36.63,24.48,36.63,24.48z"/>
			<path class="st7" d="M38.22,36.67c0,0,0.01,3.36,0,4.19c-0.01,0.83-0.45,4.75-0.45,4.75s0.4,0.77,1.12,0.9
				c0.72,0.14,1.62-0.51,1.62-0.51s1.32-3.94,1.62-4.75c0.3-0.81,0.65-4.24,0.63-4.59C42.73,36.32,39.04,35.87,38.22,36.67z"/>
			<path class="st8" d="M30.78,12.99c0,0-0.63,0.64-1.06,1.83c-0.43,1.18-1.11,2.23-1.48,2.57c-0.37,0.35-0.75,0.87-0.75,0.87
				s-1.03,0.96,0.49,1.77c1.51,0.82,1.37,1.25,2.09,0.24c0.73-1.01,1.32-2.3,1.54-2.52c0.23-0.23,1.9-2.8,2-3.18
				c0.1-0.38-0.05-1.65-0.61-1.84C32.45,12.54,30.78,12.99,30.78,12.99z"/>
			<path class="st9" d="M35.01,9.9c0,0-2.09,0.09-3.11,1.1c-1.03,1.01-1.57,2.37-1.81,2.78c-0.13,0.22,0.71,0.42,1.48,0.92
				c0.72,0.47,1.37,1.27,1.69,1.15C33.91,15.6,35.01,9.9,35.01,9.9z"/>
			<path class="st10" d="M36.17,9.61c0,0-2.46,0.68-3.04,2.51c-0.58,1.83-0.21,5.97-0.07,6.46c0.14,0.49,1.12,2.3,1.43,3.78
				s0.08,2.41,0.15,2.57c0.07,0.16,0.97,1.44,3.96,1.55c2.99,0.12,3.9-0.46,5.24-1.48c1.34-1.02,0.53-3.25,0.53-3.25
				s-0.79-1.04-0.83-2.57c-0.05-1.53,0.01-4.81-0.24-5.39c-0.25-0.58-3.07-2.91-4.72-3.44C36.93,9.82,36.17,9.61,36.17,9.61z"/>
			<path class="st8" d="M34.63,11.88c0,0,0.93,1.3,0.9,2.23c-0.02,0.93,0.67,1.23,1.81,0.81c1.14-0.42,1.62-0.53,1.97-1.43
				c0.35-0.89-0.74-2.14-0.74-3.14c0-1-0.35-1.74-0.67-1.58C37.58,8.94,34.63,11.88,34.63,11.88z"/>
			<path class="st11" d="M39.72,18.24c0,0-0.47,1.91-0.71,2.43c-0.24,0.52-1.51,3.28-1.57,3.82c-0.06,0.54,2.09,2.11,2.1,2.1
				c0.01-0.02,0.8-0.88,1.2-1.61c0.4-0.73,1.55-2.71,1.72-3.43c0.17-0.71,0.64-2.3,0.64-2.3L39.72,18.24z"/>
			<path class="st11" d="M33.89,5.18c0.69-0.3,1.47-0.38,2.21-0.42c0.62-0.03,1.56-0.17,2.09,0.23c0.16,0.12,0.22,0.37,0.28,0.55
				c0.26,0.77,0.37,1.58,0.42,2.39c0.03,0.41,0.04,0.82,0.05,1.22c0,0.31-0.1,0.5-0.21,0.79c-0.35,0.98-0.98,2.3-2.04,2.68
				c-0.97,0.35-1.83,0.63-2.67,0.37c-0.83-0.26-1.18-1.37-1.51-2.83c-0.32-1.46-0.53-1-0.44-2.34S32.2,5.93,33.89,5.18z"/>
			<path class="st12" d="M38.53,4.28c0,0-0.78-0.68-2.31-0.82c-1.53-0.14-2.24,0.35-2.97,1.18c-0.73,0.83-1.26,1.69-1.26,2.26
				s0.09,0.93,0.09,0.93s0.54-0.35,1.09-0.09c0.54,0.26,1.38,0.36,1.88,0.2c0.5-0.16,1.75,0.59,1.75,0.59s0.45,0.6,0.54,1.16
				c0.09,0.56,0.46,1.82,1.39,0.27c0.93-1.55,1.07-3.14,0.84-3.82C39.34,5.46,38.85,4.67,38.53,4.28z"/>
		</g>
		<path class="st12" d="M37.16,9.12c0,0,0.84,2.33,0.84,2.81c0,0.49-0.01,2,0.19,2.3c0.19,0.3,3.23-1.48,4.17-1.35
			c0.12,0.02,0.83,0.78,0.83,0.78s-0.25-0.88-0.95-1.96c-0.7-1.08-1.34-1.66-1.85-2.94c-0.51-1.28-0.97-2.5-0.97-2.5L37.16,9.12z"/>
		<path class="st9" d="M40.6,13.62c0,0-1.42,1.5-1.42,2.74s-0.16,2.79-0.16,2.99c0,0.21,1.85-0.16,2.5-0.14
			c0.65,0.02,1.67,0.28,1.58,0.65c-0.09,0.37,0.84-1.44,0.68-3.34C43.62,14.62,44.12,12.32,40.6,13.62z"/>
	</g>
	<g class="st2">
		<g id="XMLID_248_">
			<g id="XMLID_253_">
				<polygon id="XMLID_254_" class="st13" points="5.55,54.26 6.35,54.73 6.35,54.02 5.55,53.55 				"/>
			</g>
			<g id="XMLID_251_">
				<polygon id="XMLID_252_" class="st14" points="6.35,54.73 21.35,45.96 21.35,45.25 6.35,54.02 				"/>
			</g>
			<g id="XMLID_249_">
				<polygon id="XMLID_250_" class="st15" points="5.55,53.55 6.35,54.02 21.35,45.25 20.55,44.78 				"/>
			</g>
		</g>
		<polygon id="XMLID_240_" class="st14" points="6.86,53.7 7.54,53.32 7.54,27.67 6.86,28.05 		"/>
		<polygon id="XMLID_239_" class="st13" points="6.14,53.26 6.86,53.7 6.86,28.05 6.14,27.67 		"/>
		<polygon id="XMLID_238_" class="st16" points="20.32,45.81 20.99,45.42 20.99,19.77 20.32,20.16 		"/>
		<polygon id="XMLID_237_" class="st13" points="19.59,45.37 20.32,45.81 20.32,20.16 19.59,19.77 		"/>
		<g id="XMLID_202_">
			<g id="XMLID_215_">
				<polygon id="XMLID_224_" class="st13" points="29.91,68.32 30.7,68.79 30.7,68.08 29.91,67.61 				"/>
			</g>
			<g id="XMLID_208_">
				<polygon id="XMLID_210_" class="st14" points="30.7,68.79 45.7,60.02 45.7,59.31 30.7,68.08 				"/>
			</g>
			<g id="XMLID_206_">
				<polygon id="XMLID_207_" class="st15" points="29.91,67.61 30.7,68.08 45.7,59.31 44.9,58.84 				"/>
			</g>
		</g>
		<polygon id="XMLID_191_" class="st14" points="31.22,67.76 31.89,67.38 31.89,41.73 31.22,42.11 		"/>
		<polygon id="XMLID_190_" class="st13" points="30.49,67.32 31.22,67.76 31.22,42.11 30.49,41.73 		"/>
		<polygon id="XMLID_189_" class="st14" points="44.68,59.87 45.35,59.49 45.35,33.84 44.68,34.22 		"/>
		<polygon id="XMLID_132_" class="st13" points="43.95,59.43 44.68,59.87 44.68,34.22 43.95,33.84 		"/>
		<polygon id="XMLID_131_" class="st17" points="4.8,31.18 31.11,46.36 31.11,43.18 4.8,28 		"/>
		<polygon id="XMLID_130_" class="st18" points="4.8,28 31.11,43.18 47.45,33.63 21.15,18.45 		"/>
		<polygon id="XMLID_169_" class="st19" points="4.8,28 31.11,42.47 46.43,33.7 21.15,18.45 		"/>
		<polygon class="st20" points="45.35,33.43 30.16,42.31 5.72,28.21 20.91,19.33 29.03,24.01 31.24,25.29 37.62,28.98 40.09,30.4 		
			"/>
		<g>
			<g>
				<path class="st21" d="M31.69,39.84l-0.05-0.02L8.02,27.98l12.61-7.28l0.05,0.04l20.52,13.78l-4.19,2.42l-16.61-9.47l-0.38,0.22
					l16.56,9.34L31.69,39.84z M8.45,27.97l23.23,11.64l4.49-2.59l-16.55-9.34l0.79-0.46l16.61,9.47l3.8-2.19l-20.2-13.56L8.45,27.97
					z"/>
			</g>
			<g>
				<path class="st21" d="M14.64,30.29l-2.93-1.69l3.59-2.08l2.87,1.66l-0.69,1.73L14.64,30.29z M12.12,28.6l2.56,1.48l2.66-0.35
					l0.58-1.45l-2.62-1.51L12.12,28.6z"/>
			</g>
			<g>
				<path class="st21" d="M21.11,26.56l-2.93-1.69l3.59-2.08l2.87,1.66l-0.69,1.73L21.11,26.56z M18.59,24.87l2.56,1.48l2.66-0.35
					l0.58-1.45l-2.62-1.51L18.59,24.87z"/>
			</g>
		</g>
		<polygon id="XMLID_126_" class="st22" points="31.11,46.36 47.45,36.81 47.45,33.63 31.11,43.18 		"/>
	</g>
	<polygon class="st23" points="33.02,38.03 31.89,38.03 11.92,27.2 12.97,26.45 14.7,26.34 	"/>
	<path class="st24" d="M41.2,30.03c0,0-0.46,0.15-1.11,0.37l-2.47-1.42l0.94-0.47L41.2,30.03z"/>
	<path class="st23" d="M40.09,30.4c-1.09,0.36-2.69,0.92-3.37,1.22c-1.07,0.49-2.17,1.69-3.3,2.42c-1.13,0.74-2.54,0.46-2.54,0.46
		l-1.23-0.67l4-2.88l3.98-1.97L40.09,30.4z"/>
	<path class="st24" d="M32.24,24.85c0,0-0.43,0.19-1,0.44l-2.21-1.28c0.59-0.25,1.04-0.41,1.04-0.41L32.24,24.85z"/>
	<path class="st23" d="M31.24,25.29c-0.83,0.36-1.96,0.84-2.55,1.04c-1,0.35-2.23,3.56-2.23,3.56l-1.94,1.15c0,0-1.04-0.5-1.15-0.87
		c-0.12-0.36,2.51-4.06,3.25-4.82c0.44-0.46,1.56-0.98,2.4-1.34L31.24,25.29z"/>
	<polygon class="st25" points="34.55,36.51 33.02,37.38 12.97,26.45 14.43,25.53 	"/>
	<polygon class="st26" points="33.02,37.38 33.02,38.03 12.97,27.09 12.97,26.45 	"/>
	<polygon class="st27" points="34.55,36.51 34.55,37.16 33.02,38.03 33.02,37.38 	"/>
	<g class="st2">
		<path class="st11" d="M29.16,19.57c0,0-1.14-1.15-1.91-0.96c-0.92,1.38-1.57,3.66-1.95,5.09c-0.38,1.43-0.75,2.69-0.9,2.82
			c-0.15,0.13-0.43,0.29-0.58,0.32c-0.15,0.03-0.48,0.12-0.59,0.15c-0.12,0.03-0.3,0.29-0.36,0.44c-0.06,0.15-0.39,1.33-0.42,1.47
			c-0.02,0.14,0.17,0.57,0.17,0.57l0.46,0.29c0,0,0.1,0.29,0.15,0.36c0.05,0.07,0.13,0.07,0.13,0.07s0.12,0.46,0.37,0.51
			c0.26,0.05,0.42-0.24,0.42-0.24l0.2-0.34c0,0,0.6-0.52,0.97-0.96c0.37-0.44,0.53-0.49,0.58-0.72c0.05-0.23,0.2-0.9,0.38-1.4
			c0.19-0.5,0.74-1.8,0.95-2.23c0.21-0.43,2.6-3.74,2.57-4.17C29.78,20.19,29.16,19.57,29.16,19.57z"/>
		<path class="st28" d="M25.23,26.96c0,0-0.85,0.1-0.94,0.27s-0.72,1.17-0.75,1.4c-0.03,0.23-0.17,1.56-0.17,1.56
			s0.12,0.65,0.44,0.61c0.32-0.03,0.46-0.54,0.46-0.54l-0.03-1.16c0,0,0.5-1.02,0.63-1.1C24.99,27.91,25.75,27.16,25.23,26.96z"/>
		<path class="st29" d="M24.9,28.01l0.19,0.51c0,0,0.86,3.1-0.38,2.55c-0.27-0.12-1.06-2.61-1.06-3
			C23.66,27.43,24.5,26.52,24.9,28.01z"/>
		<path class="st28" d="M37.32,24.54c-0.09,0.14-2.71,3.25-4.29,4.57c-1.58,1.32-2.08,1.79-2.34,1.87
			c-0.27,0.08-1.23,0.22-1.73,0.34c-0.5,0.12-1.72,0.89-1.89,0.99c-0.17,0.09-1.04,0.65-1.16,0.78c-0.12,0.13-0.36,0.49-0.37,0.52
			c-0.01,0.03-0.01,0.22,0,0.32c0.01,0.1,0.08,0.36,0.24,0.43c0.16,0.07,0.41,0,0.41,0s-0.07,0.23,0.22,0.32
			c0.29,0.09,0.54-0.03,0.54-0.03l0.28-0.1c0,0-0.07,0.41,0.19,0.45c0.26,0.05,0.79-0.07,0.79-0.07l1.53-0.64
			c0,0,0.74-0.02,1.29-0.32c0.55-0.3,1.08-0.96,1.08-0.96s0.95-1.06,2.61-1.97c1.66-0.92,4.39-3.98,4.66-4.15
			c0.27-0.17,0.5-1.59,0.22-2.01C39.32,24.46,37.42,24.41,37.32,24.54z"/>
	</g>
	<path class="st30" d="M25.13,28.02c0,0-0.01,0.02-0.04,0.06c-0.13,0.2-0.51,0.82-0.61,0.98c-0.12,0.19-0.41,0.54-0.41,0.67
		c0,0.13-0.06,0.55,0.28,0.37c0.34-0.17,1.42-1.46,1.52-1.58c0.1-0.12,0.17-0.37,0.15-0.6c-0.02-0.23,0-0.66,0-0.66
		S25.58,26.54,25.13,28.02z"/>
</g>
<g class="st0">
	<polygon id="XMLID_113_" class="st1" points="2.5,54.42 26.3,68.15 41.09,59.51 17.29,45.78 	"/>
	<polygon class="st1" points="27.63,66.98 31.37,66.92 29.51,67.61 26,67.78 	"/>
	<polygon class="st1" points="40.1,60.08 42.95,59.88 41.94,60.63 37.58,60.74 	"/>
	<g id="XMLID_111_" class="st2">
		<polygon id="XMLID_112_" class="st3" points="28.39,68.22 29.19,68.69 31.22,68.81 45.21,59.44 43.41,59.43 		"/>
	</g>
	<g id="XMLID_114_" class="st2">
		<polygon id="XMLID_119_" class="st3" points="4.33,54.08 5.13,54.55 7.16,54.66 21.15,45.29 19.35,45.29 		"/>
	</g>
	<g class="st2">
		<path class="st4" d="M34.73,45.36c0,0-0.86,0.91-0.98,1.02c-0.12,0.12-1.3,0.67-1.37,0.67c-0.07,0-1.04,0.19-1.14,0.33
			c-0.09,0.14-0.49,0.91-0.46,1.18c0.02,0.28,0.46,0.93,0.73,1.04c0.27,0.12,1.78-0.56,2.15-0.79c0.37-0.23,1.21-0.79,1.21-0.79
			s1.18-0.16,1.67-0.28c0.49-0.12,0.58-0.44,0.58-0.74c0-0.3,0.12-1.44-0.02-1.65C36.95,45.16,34.73,45.36,34.73,45.36z"/>
		<path class="st5" d="M35.53,36.3c0,0-0.61-0.2-0.63,0.8c-0.02,1-0.17,6.9-0.23,7.35c-0.06,0.45-0.27,1.06-0.13,1.36
			c0.14,0.3,2.07,0.84,2.49-0.24s0.99-3.45,1.17-4.63c0.17-1.18,0.07-4.08,0.07-4.08L35.53,36.3z"/>
		<path class="st4" d="M38.7,46.53c0,0-0.61,1.28-0.63,1.49c-0.02,0.21-1.47,2.11-1.7,2.3c-0.23,0.19-0.51,1.09-0.46,1.25
			c0.05,0.16,1.3,0.42,1.58,0.42c0.28,0,1.16,0.12,1.42-0.19s0.77-0.84,0.88-1.32c0.12-0.49,0.53-1.44,0.65-1.53
			c0.12-0.09,0.49-0.63,0.51-0.86c0.02-0.23,0-1.46,0-1.46L38.7,46.53z"/>
		<path class="st6" d="M34.06,23.97c0,0-1.1,1.18-0.5,5.55c0.6,4.37,1.03,7.16,1.41,7.72c0.38,0.56,2.01,0.7,2.99,0
			s1.39-6.27,1.39-7.45s0.03-5.22-0.93-5.99C37.48,23.03,34.06,23.97,34.06,23.97z"/>
		<path class="st7" d="M36.05,25.37c0,0,0.62,2.72,1.03,3.39s1.35,1.26,1.35,1.26s-0.38,4.68-0.43,6.47
			c-0.05,1.79,0.05,2.62,1.21,2.79s2.53-0.14,3.18-1.02c0.65-0.88,1.93-6.38,2.28-7.66c0.35-1.28,0.81-3.07,0.35-5.23
			c-0.46-2.16-4.2-2.23-4.2-2.23L36.05,25.37z"/>
		<path class="st7" d="M42.11,43.37c0,0-0.88,2.86-1.04,3.37c-0.16,0.51-0.44,0.74-0.44,0.74s-1.44,0.44-2.12-0.79
			c0.14-1.79-0.19-6.28-0.44-8.5c2.11-2.48,4.5-0.24,4.5-0.24s-0.13,3.13-0.18,3.71C42.34,42.23,42.11,43.37,42.11,43.37z"/>
		<path class="st10" d="M43.6,13.44c0,0-0.95-1.18-2.67-1.88c-1.72-0.7-5.06-1.74-5.41-1.7c-0.35,0.05-1.75-0.07-2.37,0.86
			c-0.62,0.93-0.44,4.97-0.44,5.57c0,0.6-0.38,1-0.03,3.27c0.15,0.94,0.6,1.81,0.8,2.65c0.27,1.19,0.26,2.22,0.28,2.5
			c0.02,0.49,0.98,2.79,5.06,3.09c4.09,0.3,5.81-3.23,5.48-3.72c-0.33-0.49-1.02-1.76-1.02-2.3s0.92-3.76,0.91-5.71
			C44.16,14.13,43.6,13.44,43.6,13.44z"/>
	</g>
	<g class="st2">
		<g id="XMLID_305_">
			<g id="XMLID_310_">
				<polygon id="XMLID_311_" class="st13" points="6.03,54.26 6.83,54.72 6.83,54.02 6.03,53.55 				"/>
			</g>
			<g id="XMLID_308_">
				<polygon id="XMLID_309_" class="st14" points="6.83,54.72 21.85,45.94 21.85,45.23 6.83,54.02 				"/>
			</g>
			<g id="XMLID_306_">
				<polygon id="XMLID_307_" class="st15" points="6.03,53.55 6.83,54.02 21.85,45.23 21.05,44.76 				"/>
			</g>
		</g>
		<polygon id="XMLID_297_" class="st14" points="7.34,53.7 8.02,53.31 8.02,27.63 7.34,28.01 		"/>
		<polygon id="XMLID_296_" class="st13" points="6.61,53.26 7.34,53.7 7.34,28.01 6.61,27.63 		"/>
		<polygon id="XMLID_295_" class="st16" points="20.82,45.79 21.49,45.41 21.49,19.72 20.82,20.11 		"/>
		<polygon id="XMLID_294_" class="st13" points="20.09,45.35 20.82,45.79 20.82,20.11 20.09,19.72 		"/>
		<g id="XMLID_273_">
			<g id="XMLID_285_">
				<polygon id="XMLID_286_" class="st13" points="30.42,68.34 31.22,68.81 31.22,68.1 30.42,67.63 				"/>
			</g>
			<g id="XMLID_283_">
				<polygon id="XMLID_284_" class="st14" points="31.22,68.81 46.24,60.03 46.24,59.31 31.22,68.1 				"/>
			</g>
			<g id="XMLID_281_">
				<polygon id="XMLID_282_" class="st15" points="30.42,67.63 31.22,68.1 46.24,59.31 45.44,58.84 				"/>
			</g>
		</g>
		<polygon id="XMLID_272_" class="st14" points="31.74,67.78 32.41,67.39 32.41,41.71 31.74,42.09 		"/>
		<polygon id="XMLID_271_" class="st13" points="31.01,67.34 31.74,67.78 31.74,42.09 31.01,41.71 		"/>
		<polygon id="XMLID_270_" class="st14" points="45.21,59.88 45.89,59.49 45.89,33.8 45.21,34.19 		"/>
		<polygon id="XMLID_269_" class="st13" points="44.48,59.43 45.21,59.88 45.21,34.19 44.48,33.8 		"/>
		<polygon id="XMLID_268_" class="st17" points="5.28,31.14 31.62,46.35 31.62,43.16 5.28,27.96 		"/>
		<polygon id="XMLID_267_" class="st18" points="5.28,27.96 31.62,43.16 47.99,33.6 21.65,18.4 		"/>
		<polygon id="XMLID_170_" class="st19" points="5.28,27.96 31.62,42.45 46.97,33.67 21.65,18.4 		"/>
		<polygon class="st22" points="26.19,40.03 40.05,32.51 41.87,31.23 24.7,30.89 21.53,32.4 24.29,29.76 30.72,27.15 32.71,26.05 
			8.98,30.1 		"/>
		<path class="st17" d="M25.94,35.33c0,0,0.29-0.02,0.46,0.04c0.17,0.06,0.92,0,1.44-0.26c0.13,0.14,0.33,0.21,0.78,0.14
			c0.45-0.07,2.4-1.03,2.55-1.15c0.15-0.12,0.88-1,0.88-1l9.22-3.38l-2.48-1.43l-5.74,2.44l-5.06,2.72c0,0-1.37,0.06-1.48,0.22
			C26.4,33.82,25.52,35.07,25.94,35.33z"/>
		<polygon id="XMLID_266_" class="st22" points="31.62,46.35 47.99,36.78 47.99,33.6 31.62,43.16 		"/>
	</g>
	<linearGradient id="SVGID_1_" gradientUnits="userSpaceOnUse" x1="12.1321" y1="42.894" x2="24.568" y2="21.3544">
		<stop  offset="0.0118" style="stop-color:#DB9F28"/>
		<stop  offset="0.2142" style="stop-color:#DA9D28"/>
		<stop  offset="0.2872" style="stop-color:#D69728"/>
		<stop  offset="0.339" style="stop-color:#CF8D29"/>
		<stop  offset="0.365" style="stop-color:#CB862A"/>
		<stop  offset="0.3676" style="stop-color:#CE8D2B"/>
		<stop  offset="0.3767" style="stop-color:#D9A430"/>
		<stop  offset="0.3871" style="stop-color:#E3BA36"/>
		<stop  offset="0.3988" style="stop-color:#ECCC3B"/>
		<stop  offset="0.4124" style="stop-color:#F4DA40"/>
		<stop  offset="0.4294" style="stop-color:#F9E544"/>
		<stop  offset="0.4531" style="stop-color:#FDEC46"/>
		<stop  offset="0.5189" style="stop-color:#FEEE47"/>
	</linearGradient>
	<polygon class="st31" points="32.71,26.05 24.29,29.47 18.11,35.37 18.11,46.35 8.75,40.66 8.75,29.96 23.01,20.72 	"/>
	<linearGradient id="SVGID_2_" gradientUnits="userSpaceOnUse" x1="20.679" y1="47.7067" x2="33.1359" y2="26.1308">
		<stop  offset="0.0118" style="stop-color:#DB9F28"/>
		<stop  offset="0.2142" style="stop-color:#DA9D28"/>
		<stop  offset="0.2872" style="stop-color:#D69728"/>
		<stop  offset="0.339" style="stop-color:#CF8D29"/>
		<stop  offset="0.365" style="stop-color:#CB862A"/>
		<stop  offset="0.3676" style="stop-color:#CE8D2B"/>
		<stop  offset="0.3767" style="stop-color:#D9A430"/>
		<stop  offset="0.3871" style="stop-color:#E3BA36"/>
		<stop  offset="0.3988" style="stop-color:#ECCC3B"/>
		<stop  offset="0.4124" style="stop-color:#F4DA40"/>
		<stop  offset="0.4294" style="stop-color:#F9E544"/>
		<stop  offset="0.4531" style="stop-color:#FDEC46"/>
		<stop  offset="0.5189" style="stop-color:#FEEE47"/>
	</linearGradient>
	<polygon class="st32" points="41.87,31.23 26.03,39.82 26.03,50.8 16.67,45.11 16.67,34.42 24.7,30.6 33.97,26.61 	"/>
	<path class="st33" d="M40.05,30.17l-8,2.93c0,0-0.74,0.88-0.88,1c-0.15,0.12-2.09,1.08-2.55,1.15c-0.46,0.08-0.65,0-0.78-0.14
		c-0.52,0.26-1.27,0.33-1.44,0.26c-0.17-0.07-0.46-0.05-0.46-0.05c-0.42-0.25,0.46-1.5,0.57-1.66c0.11-0.15,1.48-0.22,1.48-0.22
		l5.06-2.73l4.61-1.96L40.05,30.17z"/>
	<path class="st34" d="M32.63,19.17c-0.36,0.92-0.78,1.9-0.89,2.12c-0.19,0.39-1.09,1.77-1.22,1.93c-0.13,0.16-1.82,2.62-1.82,2.93
		c0,0.32-0.41,0.91-0.41,0.91s0.19,0.07,0.35,0.09c0.16,0.02,0.06,0.39,0.06,0.39s0.14,0.13,0.17,0.15c0.04,0.02-0.17,0.4-0.17,0.4
		s-0.02,0.11-0.05,0.27c-0.02,0.16-0.65,0.56-0.65,0.56l-0.13,0.23l-0.53,0.26c0,0-0.26,0.09-0.4,0.02
		c-0.14-0.07-0.67-0.35-0.81-0.44c-0.14-0.09-0.33-0.38-0.33-0.42c-0.02-0.03-0.11-0.52-0.11-0.63c0-0.1-0.07-0.58,0-0.81
		c0.07-0.23,1.39-1.63,1.6-1.98c0.21-0.35,0.85-3.09,1.16-4.39c0.32-1.3,0.87-1.67,1.11-2.02c0.25-0.35,0.56-1.29,0.98-2.07
		c0.18-0.32,0.41-0.88,0.62-1.44c0.31-0.77,0.57-1.53,0.57-1.53s0.49-0.12,0.96-0.19c-0.03,0.98-0.01,1.94,0,2.46
		c0.01,0.14,0.01,0.25,0.01,0.31C32.71,16.86,32.37,17.24,32.63,19.17z"/>
	<path class="st35" d="M33.71,10.21c-0.22,0.12-0.42,0.29-0.57,0.51c-0.3,0.45-0.41,1.63-0.44,2.8c-0.03,0.98-0.01,1.94,0,2.46
		c-0.5-0.27-1.2-0.59-1.53-0.74c-0.11-0.05-0.18-0.08-0.18-0.08s0.05-0.32,0.26-1.14c0.21-0.83,0.6-1.53,1.28-2.76
		C33.15,10.11,33.64,10.18,33.71,10.21z"/>
	<polygon class="st36" points="26.48,28.16 25.8,28.59 21.35,29.71 20.85,30.03 25.34,29.29 26.48,28.63 26.87,28.11 	"/>
	<path class="st37" d="M27.96,27.33c0,0,0.36-0.24,0.39-0.53c0.03-0.29-0.21-0.68-0.45-0.74c-0.24-0.06-0.81,0.46-1.03,0.87
		c-0.22,0.41-0.12,0.6-0.22,0.82c-0.1,0.22-0.43,0.36-0.43,0.36l0.22,0.65l0.74-0.78L27.96,27.33z"/>
	<polygon class="st36" points="25.54,28.87 21.57,31.95 22.88,31.4 26.21,28.86 26.49,28.76 27.38,28.99 27.48,28.65 26.41,28.4 	
		"/>
	<path class="st37" d="M26.83,28.35l-0.19,0.62l0.55,0.15c0,0,0.15,0.56,0.81,0.35c0.66-0.21,0.67-1,0.58-1.19
		C28.49,28.1,26.83,28.35,26.83,28.35z"/>
	<path class="st34" d="M40.21,18.06c0,0-0.42,1.46-0.99,2.47c-0.57,1.01-1.5,2.42-1.79,3c-0.3,0.57-0.82,1.53-0.92,1.62
		c-0.1,0.09-1.24,1.23-2.53,2.68c-1.29,1.45-2.4,2.32-2.58,2.55c-0.17,0.23-1.24,1.06-1.48,1.17c-0.24,0.1-0.85,0.23-0.92,0.23
		c-0.07,0-0.7,0.31-1.03,0.56s-1.45,1.25-1.46,1.34c-0.02,0.09,0,0.33,0,0.33s-0.8,0.66-0.8,0.75c0,0.09,0,0.21,0,0.21
		s-0.07,0.23,0.12,0.33c0.19,0.1,0.47,0,0.47,0s0.14,0.15,0.52,0.05c0.38-0.1,1.06-0.39,1.06-0.39s0.14,0.35,0.56,0.28
		c0.42-0.07,2.14-0.98,2.4-1.06c0.26-0.09,0.73-0.63,0.85-0.94c0.12-0.31,0.19-0.45,0.26-0.52c0.07-0.07,3.13-2.09,4.68-3.52
		c1.55-1.43,1.9-2.06,2.4-2.46c0.51-0.4,2.02-2.71,2.58-3.57s1.97-3.56,2.02-4.3C43.69,18.1,40.21,18.06,40.21,18.06z"/>
	<path class="st35" d="M39.55,19.53c0,0,1.81-0.17,2.68,0c0.87,0.17,1.48,0.52,1.48,0.52s0.49-1.45,0.62-3.47s-0.32-2.63-0.97-3.15
		c-0.64-0.52-2.23-0.23-2.68,0.77s-1.11,2.48-1.13,3.34S39.55,19.53,39.55,19.53z"/>
	<path class="st30" d="M28.06,26.6c0,0-0.31-0.15-0.51,0.12c-0.2,0.27-0.27,0.84-0.27,0.84s0.01,0.87,0.14,0.94
		c0.13,0.07,0.55,0.13,0.58-0.09c0.03-0.22,0-0.92,0-0.92l0.15-0.65L28.06,26.6z"/>
	<path class="st38" d="M39.22,7.95c0,0-0.31,2.09,0,2.86c0.31,0.77,0.68,1.06,0.68,1.06s-0.92,1.83-1.6,2.14
		c-0.68,0.31-1.72,0.28-2.04-0.26c-0.31-0.54-0.94-2.4-0.98-2.84C35.25,10.47,39.22,7.95,39.22,7.95z"/>
	<path class="st34" d="M38.43,10.78c0,0-1.01,0.99-1.99,1.41c-0.98,0.42-1.38,0.1-1.55,0c-0.17-0.1-0.98-1.24-1.08-1.64
		c-0.1-0.4-0.49-1.76-0.56-2.12s-0.3-0.84-0.23-1.69c0.07-0.85,0.47-1.83,0.73-2.02c0.26-0.19,4.37-0.98,4.98,0
		c0.61,0.98,0.8,0.24,0.94,1.2C39.83,6.88,38.96,9.67,38.43,10.78z"/>
	<path class="st39" d="M37.74,7.84c0,0-1.01-1.43-1.53-1.41c-0.52,0.02-1.39,0.16-2.09,0c-0.7-0.16-0.95-0.44-0.95-0.44
		s-0.12-0.85,0.15-1.34c0.26-0.49,1.34-2.4,4.14-2.12c2.8,0.28,2.77,2.05,2.96,2.84c0.19,0.78,0.71,3.47,1.17,4.27
		c0.45,0.8,0.43,1.3,0.8,1.56c0.13,0.09,0.33,1.41,0.33,1.41s-1.07-0.77-1.37-0.67c-0.49,0.16-1.25,0.13-1.45-0.07
		c-0.19-0.2-0.93-0.64-0.81-1.92c0.12-1.28-0.17-1.62-0.17-1.62l-0.33,0.32c0,0,0.03,0.68,0.02,1.08c-0.02,0.4-0.28,0.8-0.28,0.8
		s0.14-1.08,0.1-1.46C38.4,8.68,38.1,8.62,37.74,7.84z"/>
	<path class="st34" d="M38.78,8.59c0,0,0.2-0.56,0.62-0.64c0.42-0.09,0.42,0.12,0.41,0.64c-0.02,0.52-0.59,1.13-0.59,1.13L38.78,9.5
		V8.59z"/>
	<polygon class="st40" points="24.05,29.61 26.21,29.95 20.96,32.46 	"/>
</g>
<g class="st0">
	<polygon id="XMLID_319_" class="st1" points="0.67,50.67 25.45,64.97 40.85,55.97 16.07,41.67 	"/>
	<polygon class="st1" points="39.83,56.57 42.8,56.35 41.74,57.14 37.2,57.25 	"/>
	<polygon class="st1" points="27.17,63.61 31.07,63.54 29.13,64.26 25.48,64.44 	"/>
	<g id="XMLID_320_" class="st2">
		<polygon id="XMLID_321_" class="st41" points="27.63,65.04 28.46,65.53 30.58,65.66 44.1,56.38 43.27,55.89 		"/>
	</g>
	<path class="st42" d="M32.62,50.39c0,0-0.37,1.19-0.49,1.45c-0.12,0.26-0.81,1.17-1.16,1.4c-0.35,0.23-0.72,0.72-0.75,1.03
		c-0.04,0.32,0.3,1.24,0.56,1.4c0.26,0.16,1.17,0.07,1.42-0.23c0.25-0.3,1.12-1.37,1.12-1.37l0.65-1.1c0,0,1.26-0.49,1.37-0.82
		c0.11-0.33,0.25-0.73,0.25-0.73s0.09-0.88-0.28-1.13c-0.37-0.25-1.19-0.79-1.19-0.79L32.62,50.39z"/>
	<path class="st42" d="M36.49,51.43c0,0-0.53,0.22-0.61,0.8c-0.09,0.58-0.3,1.33-0.47,1.61c-0.18,0.28-1.51,2.24-1.68,2.59
		c-0.18,0.35-0.25,0.79,0.14,0.93c0.39,0.14,1.26,0.46,1.84,0.21c0.58-0.25,1.26-0.49,1.38-0.75c0.12-0.26,0.54-1.09,0.6-1.49
		c0.05-0.4,0.53-1.59,0.65-1.77c0.12-0.18,0.14-1.45,0.14-1.45L36.49,51.43z"/>
	<path class="st43" d="M34.12,42.82c0,0,0.25,2.87,0.34,3.78c0.08,0.91,0.75,2.87,0.75,3.22c0,0.35-0.56,1.3-1.09,1.51
		c-0.53,0.21-1.65,0-1.65,0s-1.37-3.4-1.86-4.48c-0.49-1.09-0.92-3.1-0.95-4.17C29.65,41.61,34.12,42.82,34.12,42.82z"/>
	<path class="st37" d="M36.54,32.77c0,0-2.17,1.65-4.66,5.22c-2.49,3.57-2.35,3.4-2.21,4.69c0.14,1.3,1.4,2.1,3.05,1.51
		c1.65-0.6,2.66-1.79,3.15-2.14c0.49-0.35,4.41-3.15,5.32-4.66C42.11,35.89,36.96,32.74,36.54,32.77z"/>
	<path class="st44" d="M39.06,44.89c0,0,0.32,2.52,0.28,3.29c-0.03,0.77-0.81,4.03-0.81,4.03s-0.63,0.53-1.37,0.6
		c-0.74,0.07-1.19-0.84-1.19-0.84s-0.27-2.76-0.52-3.12c-0.25-0.35-0.84-3.85-0.84-3.85L39.06,44.89z"/>
	<path class="st45" d="M39.2,35.78c0,0,0,2.03,0,2.21c0,0.18-3.54,4.2-3.99,5.01c-0.46,0.81-0.7,1.4-0.6,2
		c0.11,0.6,0.75,2.07,2.28,1.58c1.54-0.49,2.38-0.98,2.94-1.44c0.56-0.46,4.87-3.29,5.5-3.68c0.63-0.39,1.82-2.03,1.79-3.22
		c-0.03-1.19-0.56-3.75-0.56-3.75L39.2,35.78z"/>
	<path class="st38" d="M35.22,22.29c0,0-0.86,0.64-1.4,1.55c-0.54,0.91-1.54,1.94-2.25,2.4c-0.71,0.47-1.11,0.86-1.21,1.26
		s0.81,2.46,1.52,2.07c0.71-0.4,1.54-1.3,1.67-1.4c0.13-0.11,1.68-1.26,2-1.73c0.32-0.47,0.89-0.74,1.08-1.43
		c0.18-0.69-0.17-1.75-0.17-1.75L35.22,22.29z"/>
	<path class="st35" d="M38.36,20.43c0,0-1.58-0.03-2.33,0.74c-0.75,0.77-1.52,1.54-1.52,1.54s0.83,0.99,1.22,1.41
		s0.58,1.14,1.05,1.14C37.25,25.26,38.36,20.43,38.36,20.43z"/>
	<path class="st46" d="M47.92,23.47c0,0-0.58,5.45-0.95,6.48c-0.37,1.03-0.72,3.76-0.65,4.5c0.07,0.74,0.16,1.47,0.16,1.47
		s-1.84,1.52-6.43,0.91c-4.59-0.61-4.31-3.76-4.33-3.9s0.39-0.28,0.35-2.29c-0.04-2.01,0.6-6.34,0.74-6.83
		c0.14-0.49,1.21-3.05,1.38-3.29c0.18-0.25,3.33-0.25,3.85-0.11C42.58,20.54,46.63,21.91,47.92,23.47z"/>
	<g class="st2">
		<g id="XMLID_12568_">
			<g id="XMLID_12573_">
				<polygon id="XMLID_12574_" class="st47" points="19.96,41.54 20.84,41.9 20.84,41.08 19.96,40.55 				"/>
			</g>
			<g id="XMLID_12571_">
				<polygon id="XMLID_12572_" class="st48" points="20.84,41.9 21.16,41.71 21.16,40.87 20.84,41.08 				"/>
			</g>
			<g id="XMLID_12569_">
				<polygon id="XMLID_12570_" class="st49" points="19.96,40.55 20.84,41.08 21.16,40.87 20.28,40.35 				"/>
			</g>
		</g>
		<g id="XMLID_12561_">
			<g id="XMLID_12566_">
				<polygon id="XMLID_12567_" class="st13" points="4.34,50.5 5.17,50.99 5.17,50.25 4.34,49.76 				"/>
			</g>
			<g id="XMLID_12564_">
				<polygon id="XMLID_12565_" class="st14" points="5.17,50.99 20.82,41.85 20.82,41.1 5.17,50.25 				"/>
			</g>
			<g id="XMLID_12562_">
				<polygon id="XMLID_12563_" class="st15" points="4.34,49.76 5.17,50.25 20.82,41.1 19.98,40.61 				"/>
			</g>
		</g>
		<polygon id="XMLID_12541_" class="st14" points="5.71,49.92 6.41,49.52 6.41,31.3 5.71,31.7 		"/>
		<polygon id="XMLID_12540_" class="st13" points="4.95,49.46 5.71,49.92 5.71,31.7 4.95,31.3 		"/>
		<polygon id="XMLID_12539_" class="st16" points="19.74,41.69 20.45,41.29 20.45,23.07 19.74,23.47 		"/>
		<polygon id="XMLID_12538_" class="st50" points="18.98,41.23 19.74,41.69 19.74,23.47 18.98,23.07 		"/>
		<g id="XMLID_12513_">
			<g id="XMLID_12518_">
				<polygon id="XMLID_12519_" class="st13" points="29.74,65.17 30.58,65.66 30.58,64.92 29.74,64.43 				"/>
			</g>
			<g id="XMLID_12516_">
				<polygon id="XMLID_12517_" class="st14" points="30.58,65.66 46.22,56.51 46.22,55.77 30.58,64.92 				"/>
			</g>
			<g id="XMLID_12514_">
				<polygon id="XMLID_12515_" class="st15" points="29.74,64.43 30.58,64.92 46.22,55.77 45.39,55.28 				"/>
			</g>
		</g>
		<polygon id="XMLID_12475_" class="st14" points="31.11,64.59 31.82,64.19 31.82,45.97 31.11,46.37 		"/>
		<polygon id="XMLID_12474_" class="st13" points="30.35,64.13 31.11,64.59 31.11,46.37 30.35,45.97 		"/>
		<polygon id="XMLID_12473_" class="st14" points="45.15,56.35 45.85,55.95 45.85,37.73 45.15,38.14 		"/>
		<polygon id="XMLID_12472_" class="st13" points="44.39,55.9 45.15,56.35 45.15,38.14 44.39,37.73 		"/>
		<polygon id="XMLID_12471_" class="st17" points="3.56,32.94 31,48.77 31,47.48 3.56,31.65 		"/>
		<polygon class="st18" points="48.04,37.52 31,47.48 3.56,31.65 7.95,29.09 14.22,25.43 20.61,21.69 		"/>
		<polygon id="XMLID_168_" class="st19" points="3.56,31.65 31,46.74 46.97,37.6 20.61,21.69 		"/>
		<polygon id="XMLID_12466_" class="st22" points="31,48.77 48.05,38.81 48.05,37.52 31,47.48 		"/>
	</g>
	<g class="st2">
		<g>
			<polygon class="st17" points="19.35,24.64 17.9,24.64 10,29.07 29.22,40.51 31.28,40.61 			"/>
			<polygon class="st17" points="22.48,33.26 16.88,34.27 7.95,29.09 14.22,25.43 16.48,25.43 			"/>
			<path class="st17" d="M30.91,45.33c0,0-1.38,0.5-3.22-0.61c-1.84-1.11-7.49-4.43-7.49-4.43l4.02-2.76L30.91,45.33z"/>
			<polygon class="st51" points="12.16,28.79 19.35,24.64 38.12,35.48 30.94,39.62 			"/>
			<polygon class="st52" points="22.49,32.39 18.41,32.39 12.16,28.79 18.21,25.3 			"/>
			<polygon class="st3" points="34.53,34.97 33.06,34.12 29.36,36.26 30.83,37.1 			"/>
			<polygon class="st53" points="34.53,34.97 32.77,35.98 31.24,35.17 33.06,34.12 			"/>
			<polygon class="st54" points="11.66,29.28 31.28,40.61 30.94,39.62 12.16,28.79 			"/>
			<polygon class="st55" points="30.94,39.62 31.28,40.61 38.47,36.46 38.12,35.48 			"/>
		</g>
	</g>
	<path class="st56" d="M46.09,36.37l-14.41,8.27c-0.62,0.36-1.39,0.36-2.02,0l-7.47-4.27c-0.43-0.24-0.47-0.85-0.06-1.14
		c0.73-0.53,1.7-1.28,1.96-1.71c0.43-0.71,1.23-1.34,1.23-1.34l5.27-2.63l2.12-1.05l3.57-1.78L46.09,36.37z"/>
	<path class="st57" d="M42.12,33.82c-0.59-0.15-2.54-0.82-3.33-0.45c-0.79,0.37-4.09-0.15-3.95,0.19c0.02,0.05,0.03,0.12,0.03,0.21
		l-2.19-1.26l-1.19,0.59c-0.1-0.17-0.2-0.3-0.2-0.3s-3.13,1.14-3.38,2.58c0,0,0.49,0.23,1.02-0.1c0.53-0.32,0.94-0.44,0.94-0.44
		s0.98-0.48,1.49-0.81l0.51,0.29l-1.1,0.65l2.68,1.42l1.85-0.16l0.01,0.02c0,0,0.88-0.04,1.16-0.11c0.29-0.07,2.82-1.52,2.82-1.52
		l2.67,0.44l2.2,0.22C44.19,35.28,42.71,33.97,42.12,33.82z"/>
	<g class="st2">
		<g>
			<polygon class="st58" points="36.71,32.59 36.6,32.41 36.3,32.57 36.41,32.76 			"/>
			<polygon class="st58" points="37.24,32.29 37.14,32.11 36.84,32.27 36.94,32.46 			"/>
			
				<rect x="37.4" y="31.88" transform="matrix(0.872 -0.4896 0.4896 0.872 -10.8492 22.4889)" class="st58" width="0.34" height="0.21"/>
		</g>
		<g>
			<polygon class="st58" points="35.11,33.49 35,33.31 34.7,33.47 34.81,33.66 			"/>
			<polygon class="st58" points="35.64,33.19 35.53,33.01 35.24,33.17 35.34,33.36 			"/>
			<polygon class="st58" points="36.17,32.89 36.07,32.71 35.77,32.88 35.87,33.06 			"/>
		</g>
		<g>
			<polygon class="st58" points="33.5,34.39 33.4,34.2 33.1,34.37 33.21,34.56 			"/>
			<polygon class="st58" points="34.04,34.09 33.93,33.9 33.63,34.07 33.74,34.26 			"/>
			<polygon class="st58" points="34.57,33.79 34.46,33.61 34.17,33.77 34.27,33.96 			"/>
		</g>
		<g>
			<polygon class="st58" points="31.9,35.29 31.8,35.1 31.5,35.27 31.61,35.45 			"/>
			<polygon class="st58" points="32.44,34.99 32.33,34.8 32.03,34.97 32.14,35.16 			"/>
			<polygon class="st58" points="32.97,34.69 32.86,34.51 32.56,34.67 32.67,34.86 			"/>
		</g>
		<g>
			<polygon class="st58" points="30.32,36.22 30.21,36.03 29.92,36.21 30.03,36.39 			"/>
			<polygon class="st58" points="30.84,35.9 30.73,35.71 30.44,35.89 30.55,36.08 			"/>
			<polygon class="st58" points="31.37,35.59 31.26,35.4 30.96,35.57 31.07,35.76 			"/>
		</g>
		<g>
			<polygon class="st58" points="28.75,37.17 28.64,36.99 28.35,37.16 28.46,37.35 			"/>
			<polygon class="st58" points="29.27,36.85 29.16,36.67 28.87,36.84 28.98,37.03 			"/>
			<polygon class="st58" points="29.79,36.54 29.68,36.35 29.39,36.53 29.5,36.71 			"/>
		</g>
		<g>
			<polygon class="st58" points="27.18,38.12 27.07,37.94 26.78,38.12 26.89,38.3 			"/>
			<polygon class="st58" points="27.7,37.81 27.59,37.62 27.3,37.8 27.41,37.98 			"/>
			<polygon class="st58" points="28.22,37.49 28.11,37.3 27.82,37.48 27.93,37.67 			"/>
		</g>
		<g>
			<polygon class="st58" points="25.61,39.08 25.5,38.89 25.21,39.07 25.32,39.25 			"/>
			<polygon class="st58" points="26.13,38.76 26.02,38.57 25.73,38.75 25.84,38.94 			"/>
			<polygon class="st58" points="26.65,38.44 26.54,38.26 26.25,38.44 26.36,38.62 			"/>
		</g>
		<g>
			
				<rect x="23.67" y="39.92" transform="matrix(0.8551 -0.5184 0.5184 0.8551 -17.2961 18.1571)" class="st58" width="0.34" height="0.21"/>
			<polygon class="st58" points="24.56,39.71 24.45,39.53 24.16,39.71 24.27,39.89 			"/>
			<polygon class="st58" points="25.08,39.4 24.97,39.21 24.68,39.39 24.79,39.57 			"/>
		</g>
	</g>
	<path class="st59" d="M31.68,43.77c-0.63,0.36-1.4,0.36-2.02,0l-7.48-4.28c-0.07-0.04-0.11-0.1-0.16-0.15
		c-0.27,0.31-0.22,0.81,0.16,1.02l7.48,4.28c0.63,0.36,1.4,0.36,2.02,0l14.41-8.28l-0.76-0.44L31.68,43.77z"/>
	<path class="st38" d="M40.84,21.28c0,0,0.33,0.82,0.33,1.21c0,0.39,0.02,1.02,0.26,1.21c0.25,0.19,0.81,0.08,1.34-0.07
		c0.53-0.16,1.61-1.78,1.59-1.84s-0.39-0.48-0.38-1.61c0-1.13-0.75-0.96-0.81-0.95C43.12,19.25,40.84,21.28,40.84,21.28z"/>
	<path class="st34" d="M45.75,28.21c0,0-0.24,2.22-0.26,2.52c-0.02,0.3-0.3,1.45-0.25,1.94c0.05,0.49,0.96,2.57,1.56,2.38
		c0.61-0.19,1.33-1.12,1.42-2.08c0.09-0.96,0.35-2.94,0.4-3.46c0.05-0.51,0-1.96,0-1.96L45.75,28.21z"/>
	<path class="st30" d="M47.24,33.16c0,0-1.12-1.1-1.99-1c-0.86,0.09-1.61,0.37-2.64,0.23c-1.03-0.14-1.96-0.51-2.57-0.42
		c-0.61,0.09-1.9,0.34-2.37,0.4c-0.47,0.06-1.09,0.23-1.35,0.32c-0.27,0.08-0.71,0.64-0.71,0.64s-0.57-0.01-0.72,0.18
		c-0.15,0.19,0.11,0.42,0.11,0.42l0.51-0.05l-0.26,0.41c0,0-0.77,0.51-0.89,0.69s0.01,0.48,0.06,0.5c0.05,0.02-0.07,0.22,0.06,0.43
		c0.13,0.21,0.23,0.22,0.29,0.23s0.47,0.18,0.56,0.12c0.09-0.06,0.56-0.44,0.56-0.44s0.16,0.35,0.7,0.15
		c0.54-0.19,1.83-1.04,1.97-1.16s0.95-0.84,1.17-0.88c0.22-0.04,0.33-0.06,1.39,0.44c1.06,0.5,2.73,0.83,4.18,0.91
		c1.45,0.08,1.66,0.32,2.12-0.4C47.89,34.17,47.24,33.16,47.24,33.16z"/>
	<path class="st34" d="M32.5,28.56c0,0,0.01-1-0.35-1.41c-0.36-0.41-1.17-0.38-1.41-0.25c-0.24,0.12-0.84,1.16-0.98,1.75
		c-0.14,0.59-0.12,1.71-0.22,2.04c-0.11,0.33-0.37,0.89-0.58,1.04c-0.21,0.15-0.7,0.42-0.89,0.6c-0.19,0.18-0.84,1.38-1,1.46
		c-0.16,0.08-0.53,0.41-0.47,0.5c0.06,0.09,0.29,0.15,0.29,0.15s-0.34,0.21-0.35,0.37c-0.01,0.16,0.05,0.28,0.05,0.28
		s-0.02,0.39,0.18,0.42c0.2,0.04,0.51-0.2,0.51-0.2s0.08,0.18,0.49,0.14c0.41-0.03,1.03-0.63,1.03-0.63l0.56-0.5
		c0,0-0.18,0.39-0.02,0.54c0.15,0.15,0.4,0.18,0.43,0.18c0.03,0,0.2-0.28,0.2-0.28s0.83-0.83,0.93-0.96
		c0.11-0.13,0.29-0.64,0.27-1.03c-0.02-0.39-0.02-0.75-0.02-0.75s0.4-1.44,0.46-1.52c0.06-0.08,0.75-0.89,0.76-0.97
		C32.36,29.44,32.5,28.56,32.5,28.56z"/>
	<path class="st35" d="M47.22,22.82c0,0-1.26,0.32-1.52,2.61c-0.26,2.29-0.21,3.85-0.21,3.85s1.82-0.7,2.33-0.64
		c0.51,0.06,1.38,0.27,1.38,0.27s-0.02-2.59-0.35-3.69C48.52,24.12,47.81,22.75,47.22,22.82z"/>
	<path class="st34" d="M40.59,14.31c0,0-0.98,0.96-1.1,2c-0.12,1.03-0.35,2.26-0.32,3.05c0.03,0.79,1.05,2.92,1.42,2.92
		c0.37,0,1.14,0.18,2.29-0.68c1.16-0.86,1.37-2.14,1.37-2.14s0.6-0.68,0.37-2c-0.23-1.31-1.23-2.56-1.89-2.57
		C42.06,14.87,40.59,14.31,40.59,14.31z"/>
	<path class="st39" d="M42.27,16.6c-0.05,0-0.95,0.14-1.42,0.09c-0.47-0.05-0.53-0.37-0.82-0.35c-0.3,0.02-0.59,0.36-0.59,0.36
		l-0.24,1.92l-0.02,0.73c0,0-0.46-0.86-0.49-1.4c-0.04-0.54,0.82-3.03,1.17-3.64c0.35-0.61,2.22-1.4,3.52-0.67
		c1.61-0.09,2.17,1.4,2.14,2.71c-0.04,1.3,0.95,5,1.05,5.24c0.11,0.25,0.46,1.12,0.46,1.12s-1.59-0.65-2.14-0.88
		c-0.54-0.23-0.46-0.17-0.76-0.56c-0.3-0.39-0.08-0.77-0.18-1.73C43.83,18.58,43.65,16.57,42.27,16.6z"/>
	<g class="st2">
		<polygon class="st60" points="31.72,34.77 31.8,35.38 31.89,34.87 31.89,33.5 31.72,33.41 		"/>
		<polygon class="st61" points="31.25,33.61 31.72,33.87 31.72,33.44 31.25,33.17 		"/>
		<polygon class="st53" points="32.18,33.61 31.72,33.87 31.72,33.44 32.18,33.17 		"/>
		<polygon class="st61" points="30.52,33 31.58,33.61 31.58,32.62 30.52,32.01 		"/>
		<polygon class="st62" points="32.63,33 31.58,33.61 31.58,32.62 32.63,32.01 		"/>
		<g>
			
				<linearGradient id="SVGID_3_" gradientUnits="userSpaceOnUse" x1="-609.8281" y1="22.6516" x2="-611.7828" y2="19.266" gradientTransform="matrix(-1 0 0 1 -594.6569 0)">
				<stop  offset="0.2568" style="stop-color:#C9BD9B"/>
				<stop  offset="0.2946" style="stop-color:#D8D0B7"/>
				<stop  offset="0.6568" style="stop-color:#D8D0B7"/>
				<stop  offset="0.6838" style="stop-color:#E5DFCF"/>
			</linearGradient>
			<path class="st63" d="M14.96,21.87c0-0.88,0.62-1.95,1.39-2.39c0.39-0.23,0.75-0.24,1-0.09l0,0l0.55,0.33l-2.11,3.28l-0.34-0.2
				c-0.07-0.03-0.13-0.06-0.18-0.11l0,0l0,0C15.08,22.53,14.96,22.25,14.96,21.87z"/>
			<path class="st55" d="M18.27,20.59c0,0.88-0.62,1.95-1.39,2.39c-0.77,0.44-1.39,0.09-1.39-0.79c0-0.88,0.62-1.95,1.39-2.39
				C17.65,19.36,18.27,19.72,18.27,20.59z"/>
		</g>
		<g>
			
				<linearGradient id="SVGID_4_" gradientUnits="userSpaceOnUse" x1="-610.5811" y1="23.7072" x2="-613.0546" y2="19.423" gradientTransform="matrix(-1 0 0 1 -594.6569 0)">
				<stop  offset="0.2568" style="stop-color:#C9BD9B"/>
				<stop  offset="0.2946" style="stop-color:#D8D0B7"/>
				<stop  offset="0.6568" style="stop-color:#D8D0B7"/>
				<stop  offset="0.6838" style="stop-color:#E5DFCF"/>
			</linearGradient>
			<path class="st64" d="M15.54,22.66c0-1.11,0.79-2.47,1.76-3.03c0.5-0.29,0.94-0.31,1.26-0.11l0,0l0.93,0.56l-2.67,4.15
				l-0.66-0.39c-0.08-0.03-0.16-0.08-0.23-0.14l0,0l0,0C15.69,23.49,15.54,23.13,15.54,22.66z"/>
			<path class="st55" d="M19.96,21.17c0,1.11-0.79,2.47-1.76,3.03c-0.97,0.56-1.76,0.11-1.76-1c0-1.11,0.79-2.47,1.76-3.03
				C19.17,19.61,19.96,20.06,19.96,21.17z"/>
		</g>
		<path class="st65" d="M16.69,21.47v3.58c0,0.57,0.3,1.09,0.79,1.37l1.02,0.59l1.19,0.69l1.2-5.73l0-0.02l0.25-1.2l-0.82-1.47
			c-0.53-0.31-3.22,1.26-3.58,1.97C16.71,21.33,16.69,21.41,16.69,21.47z"/>
		<path class="st66" d="M16.69,21.47v3.58c0,0.57,0.3,1.09,0.79,1.37l1.02,0.59l2.39-5.04l0.01-0.02c0,0,0,0,0,0
			c-0.13-0.04-2.78-0.84-3.66-0.81c-0.12,0-0.29,0.05-0.49,0.12C16.71,21.33,16.69,21.41,16.69,21.47z"/>
		<polygon class="st55" points="25.49,30.66 22.49,32.39 22.49,25.53 25.49,23.8 		"/>
		<path class="st54" d="M18.1,21.52v8.33l4.39,2.53v-3.13c0-0.9,0.64-1.27,1.43-0.81l6.03,3.48v-4.67l1.86-2.41l-9.7-5.64
			c-0.59-0.34-1.32-0.34-1.91,0l-0.27,0.16c-0.52,0.3-1.73,1.33-1.8,1.92C18.1,21.37,18.1,21.44,18.1,21.52z"/>
		<path class="st51" d="M29.94,28.12v-0.86l1.86-2.41l-9.7-5.64c-0.59-0.34-1.32-0.34-1.91,0l-0.27,0.16
			c-0.62,0.29-0.85,0.43-1.36,0.91L29.94,28.12z"/>
		<path class="st67" d="M29.58,27.87v-0.38l1.86-2.41l-9.7-5.64c-0.59-0.34-1.32-0.34-1.91,0l-0.27,0.16
			c-0.18,0.08-0.32,0.15-0.45,0.22c0.23-0.16,0.46-0.28,0.82-0.45l0.27-0.16c0.59-0.34,1.32-0.34,1.91,0l9.7,5.64l-1.86,2.41v0.86
			L29.58,27.87z"/>
		<polygon class="st68" points="29.28,24.64 27.62,24.64 27.36,24.49 27.55,24.38 29.38,24.38 		"/>
		<path class="st69" d="M18.11,21.29c0.05-0.37,0.2-0.72,0.44-1.01l11.55,6.67l-0.16,0.31v0.86L18.11,21.29z"/>
		<polygon class="st70" points="28.25,26.17 31.3,24.42 33.99,25.97 30.95,27.73 		"/>
		<polygon class="st54" points="30.95,27.73 33.99,25.97 34.27,26.53 33.99,31.5 30.95,33.25 30.5,30.45 		"/>
		<polygon class="st67" points="31.46,28.15 34.27,26.53 34.65,28.77 34.27,31.63 31.46,33.25 31.05,30.66 		"/>
		<polygon class="st71" points="28.25,31.7 30.95,33.25 30.5,30.45 27.81,28.89 		"/>
		<polygon class="st72" points="28.25,26.17 30.95,27.73 30.5,30.45 27.81,28.89 		"/>
		<g>
			
				<linearGradient id="SVGID_5_" gradientUnits="userSpaceOnUse" x1="-624.0192" y1="23.3026" x2="-623.6835" y2="23.3026" gradientTransform="matrix(-1 0 0 1 -594.6569 0)">
				<stop  offset="9.889250e-03" style="stop-color:#7C837F"/>
				<stop  offset="0.1117" style="stop-color:#848C88"/>
				<stop  offset="0.2883" style="stop-color:#9DA6A4"/>
				<stop  offset="0.3919" style="stop-color:#B2BDBB"/>
				<stop  offset="0.3948" style="stop-color:#BAC4C2"/>
				<stop  offset="0.4041" style="stop-color:#CDD5D3"/>
				<stop  offset="0.415" style="stop-color:#DDE3E2"/>
				<stop  offset="0.4285" style="stop-color:#E8EEED"/>
				<stop  offset="0.4474" style="stop-color:#EFF5F4"/>
				<stop  offset="0.5" style="stop-color:#F1F7F6"/>
				<stop  offset="0.5726" style="stop-color:#EFF5F4"/>
				<stop  offset="0.5987" style="stop-color:#E8EEED"/>
				<stop  offset="0.6173" style="stop-color:#DDE3E2"/>
				<stop  offset="0.6322" style="stop-color:#CDD6D4"/>
				<stop  offset="0.645" style="stop-color:#BAC5C3"/>
				<stop  offset="0.6459" style="stop-color:#B8C4C2"/>
				<stop  offset="0.6822" style="stop-color:#ADB8B6"/>
				<stop  offset="0.8297" style="stop-color:#89918F"/>
				<stop  offset="0.8693" style="stop-color:#929B98"/>
				<stop  offset="0.9703" style="stop-color:#A8B4AF"/>
			</linearGradient>
			<path class="st73" d="M29.02,21.96h0.39v2.57h0c0,0.03-0.02,0.06-0.06,0.08c-0.08,0.04-0.2,0.04-0.28,0
				c-0.04-0.02-0.06-0.05-0.06-0.08l0,0V21.96z"/>
			<path class="st74" d="M29.08,22.04c0.08,0.04,0.2,0.04,0.28,0c0.01,0,0.01-0.01,0.02-0.01h0c0.06-0.04,0.06-0.11-0.02-0.15
				c-0.08-0.04-0.2-0.04-0.28,0c-0.01,0-0.01,0.01-0.02,0.01h0C29,21.94,29.01,22,29.08,22.04z"/>
		</g>
		<polygon class="st68" points="30.5,30.45 31.05,30.66 31.46,33.25 30.95,33.25 		"/>
		<polygon class="st75" points="34.27,26.53 31.46,28.15 30.95,27.73 33.99,25.97 		"/>
		<polygon class="st76" points="18.8,24.11 21.12,25.45 21.12,26.75 18.8,25.41 		"/>
		<polygon class="st77" points="18.8,23.56 21.12,24.9 21.12,25.45 18.8,24.11 		"/>
		<polygon class="st65" points="19.21,23.97 20.71,24.84 20.71,24.99 19.21,24.12 		"/>
		<polygon class="st77" points="20.68,25.37 20.97,26.42 20.35,26.06 		"/>
		<polygon class="st65" points="20.21,24.92 20.21,26.22 20.14,26.18 20.14,24.88 		"/>
	</g>
	<g class="st2">
		<g>
			<linearGradient id="SVGID_6_" gradientUnits="userSpaceOnUse" x1="22.6406" y1="22.3171" x2="25.2394" y2="22.3171">
				<stop  offset="9.889250e-03" style="stop-color:#7C837F"/>
				<stop  offset="0.1117" style="stop-color:#848C88"/>
				<stop  offset="0.2883" style="stop-color:#9DA6A4"/>
				<stop  offset="0.3919" style="stop-color:#B2BDBB"/>
				<stop  offset="0.5565" style="stop-color:#D9E0DE"/>
				<stop  offset="0.6405" style="stop-color:#F1F7F6"/>
				<stop  offset="0.7869" style="stop-color:#EFF5F4"/>
				<stop  offset="0.8396" style="stop-color:#E8EEEC"/>
				<stop  offset="0.8771" style="stop-color:#DDE3E1"/>
				<stop  offset="0.9075" style="stop-color:#CDD4D1"/>
				<stop  offset="0.9332" style="stop-color:#BAC3BF"/>
				<stop  offset="0.9514" style="stop-color:#A8B4AF"/>
				<stop  offset="1" style="stop-color:#89918F"/>
			</linearGradient>
			<path class="st78" d="M25.24,21.89h-2.6V22h0c0,0.19,0.13,0.38,0.38,0.53c0.51,0.29,1.33,0.3,1.84,0
				c0.25-0.15,0.38-0.34,0.38-0.53h0V21.89z"/>
			<path class="st74" d="M24.86,22.42c-0.51,0.29-1.33,0.29-1.84,0c-0.04-0.02-0.07-0.04-0.11-0.07h0
				c-0.06-0.05-0.11-0.09-0.15-0.15c-0.22-0.28-0.14-0.61,0.25-0.84c0,0,0,0,0.01,0c0.51-0.29,1.33-0.29,1.84,0
				c0.04,0.02,0.08,0.05,0.12,0.08h0C25.36,21.73,25.32,22.15,24.86,22.42z"/>
			<path class="st79" d="M24.65,22.27c-0.42,0.24-1.1,0.24-1.52,0c-0.03-0.02-0.06-0.04-0.09-0.06h0c-0.33-0.24-0.31-0.6,0.08-0.82
				c0.42-0.24,1.1-0.24,1.52,0c0.04,0.02,0.07,0.04,0.1,0.07h0C25.07,21.7,25.04,22.05,24.65,22.27z"/>
			<path class="st79" d="M23.92,21.41l-0.57,0.96c0,0-0.28-0.08-0.58-0.17c-0.22-0.28-0.14-0.61,0.25-0.84L23.92,21.41z"/>
			<linearGradient id="SVGID_7_" gradientUnits="userSpaceOnUse" x1="22.9404" y1="20.9531" x2="24.9395" y2="20.9531">
				<stop  offset="0" style="stop-color:#C32026"/>
				<stop  offset="0.1811" style="stop-color:#E21F26"/>
				<stop  offset="0.4405" style="stop-color:#EE2A25"/>
				<stop  offset="0.4563" style="stop-color:#EE2C26"/>
				<stop  offset="0.5947" style="stop-color:#EF3732"/>
				<stop  offset="0.6784" style="stop-color:#EF3A37"/>
				<stop  offset="0.7941" style="stop-color:#EF3935"/>
				<stop  offset="0.8862" style="stop-color:#EE3530"/>
				<stop  offset="0.9699" style="stop-color:#EE2E28"/>
				<stop  offset="1" style="stop-color:#EE2A25"/>
			</linearGradient>
			<path class="st80" d="M24.94,21.75c0,0.03,0,0.05-0.01,0.08c-0.03,0.12-0.12,0.24-0.28,0.33c-0.39,0.22-1.02,0.22-1.41,0
				c-0.12-0.07-0.2-0.15-0.25-0.24c-0.01-0.02-0.02-0.03-0.02-0.05c-0.01-0.02-0.01-0.04-0.01-0.05c0-0.02-0.01-0.04-0.01-0.06h0
				l0.01-0.13L23,21l0-0.06l0.07-0.92l0.03-0.45h1.68l0.02,0.32v0l0.08,1.06l0.02,0.25L24.94,21.75z"/>
			<path class="st81" d="M24.54,19.92c-0.33,0.19-0.86,0.19-1.19,0c-0.02-0.01-0.05-0.03-0.07-0.04h0
				c-0.26-0.19-0.24-0.47,0.06-0.64c0.33-0.19,0.86-0.19,1.19,0c0.03,0.02,0.05,0.03,0.08,0.05h0
				C24.86,19.48,24.83,19.75,24.54,19.92z"/>
			<path class="st82" d="M24.46,19.89c-0.31,0.18-0.81,0.18-1.11,0c-0.02-0.01-0.04-0.03-0.06-0.04h0c-0.24-0.18-0.22-0.44,0.06-0.6
				c0.31-0.18,0.81-0.18,1.11,0c0.03,0.01,0.05,0.03,0.07,0.05h0C24.76,19.47,24.74,19.73,24.46,19.89z"/>
			<path class="st83" d="M24.1,19.72c-0.15,0.09-0.52,0.02-0.67-0.07c-0.01-0.01-0.02-0.01-0.03-0.02h0
				c-0.12-0.09-0.11-0.22,0.03-0.3c0.15-0.09,0.4-0.09,0.56,0c0.01,0.01,0.03,0.02,0.04,0.02h0C24.14,19.45,24.24,19.64,24.1,19.72z
				"/>
			<g>
				<linearGradient id="SVGID_8_" gradientUnits="userSpaceOnUse" x1="23.5449" y1="19.5551" x2="24.3347" y2="19.5551">
					<stop  offset="0" style="stop-color:#A0897F"/>
					<stop  offset="0.2568" style="stop-color:#C0ACA6"/>
					<stop  offset="0.2946" style="stop-color:#CEC4C2"/>
					<stop  offset="0.6568" style="stop-color:#CEC4C2"/>
					<stop  offset="0.6838" style="stop-color:#DCDBDB"/>
				</linearGradient>
				<path class="st84" d="M24.33,19.34h-0.79v0.21l0,0c0,0.06,0.04,0.12,0.12,0.16c0.15,0.09,0.4,0.09,0.56,0
					c0.08-0.04,0.12-0.1,0.11-0.16h0V19.34z"/>
				<path class="st21" d="M24.22,19.5c-0.15,0.09-0.4,0.09-0.56,0c-0.01-0.01-0.02-0.01-0.03-0.02h0c-0.12-0.09-0.11-0.22,0.03-0.3
					c0.15-0.09,0.4-0.09,0.56,0c0.01,0.01,0.03,0.02,0.04,0.02h0C24.37,19.29,24.36,19.42,24.22,19.5z"/>
				<path class="st21" d="M24.19,19.49c-0.15,0.09-0.39,0.09-0.54,0c-0.01-0.01-0.02-0.01-0.03-0.02h0
					c-0.12-0.09-0.11-0.21,0.03-0.29c0.15-0.09,0.39-0.08,0.54,0c0.01,0.01,0.02,0.02,0.03,0.02h0
					C24.34,19.28,24.33,19.41,24.19,19.49z"/>
				<linearGradient id="SVGID_9_" gradientUnits="userSpaceOnUse" x1="23.6698" y1="19.3299" x2="24.2095" y2="19.3299">
					<stop  offset="0.3162" style="stop-color:#DCDBDB"/>
					<stop  offset="0.3432" style="stop-color:#CEC4C2"/>
					<stop  offset="0.7054" style="stop-color:#CEC4C2"/>
					<stop  offset="0.7432" style="stop-color:#C0ACA6"/>
					<stop  offset="1" style="stop-color:#A0897F"/>
				</linearGradient>
				<path class="st85" d="M24.13,19.44c-0.11,0.06-0.28,0.06-0.38,0c-0.01,0-0.02-0.01-0.02-0.01h0c-0.08-0.06-0.08-0.15,0.02-0.21
					c0.11-0.06,0.28-0.06,0.38,0c0.01,0.01,0.02,0.01,0.02,0.02h0C24.23,19.3,24.23,19.38,24.13,19.44z"/>
				<path class="st86" d="M24.13,19.44c-0.11,0.06-0.28,0.06-0.38,0c-0.01,0-0.02-0.01-0.02-0.01c0.35,0.02,0.43-0.19,0.43-0.19h0
					C24.23,19.3,24.23,19.38,24.13,19.44z"/>
			</g>
		</g>
	</g>
	<g class="st2">
		<g>
			<linearGradient id="SVGID_10_" gradientUnits="userSpaceOnUse" x1="20.4303" y1="21.3431" x2="23.029" y2="21.3431">
				<stop  offset="9.889250e-03" style="stop-color:#7C837F"/>
				<stop  offset="0.1117" style="stop-color:#848C88"/>
				<stop  offset="0.2883" style="stop-color:#9DA6A4"/>
				<stop  offset="0.3919" style="stop-color:#B2BDBB"/>
				<stop  offset="0.5565" style="stop-color:#D9E0DE"/>
				<stop  offset="0.6405" style="stop-color:#F1F7F6"/>
				<stop  offset="0.7869" style="stop-color:#EFF5F4"/>
				<stop  offset="0.8396" style="stop-color:#E8EEEC"/>
				<stop  offset="0.8771" style="stop-color:#DDE3E1"/>
				<stop  offset="0.9075" style="stop-color:#CDD4D1"/>
				<stop  offset="0.9332" style="stop-color:#BAC3BF"/>
				<stop  offset="0.9514" style="stop-color:#A8B4AF"/>
				<stop  offset="1" style="stop-color:#89918F"/>
			</linearGradient>
			<path class="st87" d="M23.03,20.91h-2.6v0.11h0c0,0.19,0.13,0.38,0.38,0.53c0.51,0.29,1.33,0.3,1.84,0
				c0.25-0.15,0.38-0.34,0.38-0.53h0V20.91z"/>
			<path class="st74" d="M22.65,21.44c-0.51,0.29-1.33,0.29-1.84,0c-0.04-0.02-0.07-0.04-0.11-0.07h0
				c-0.06-0.05-0.11-0.09-0.15-0.15c-0.22-0.28-0.14-0.61,0.25-0.84c0,0,0,0,0.01,0c0.51-0.29,1.33-0.29,1.84,0
				c0.04,0.02,0.08,0.05,0.12,0.08h0C23.15,20.76,23.11,21.18,22.65,21.44z"/>
			<path class="st79" d="M22.44,21.3c-0.42,0.24-1.1,0.24-1.52,0c-0.03-0.02-0.06-0.04-0.09-0.06h0c-0.33-0.24-0.31-0.6,0.08-0.82
				c0.42-0.24,1.1-0.24,1.52,0c0.04,0.02,0.07,0.04,0.1,0.07h0C22.86,20.73,22.83,21.08,22.44,21.3z"/>
			<path class="st79" d="M21.7,20.44l-0.57,0.96c0,0-0.28-0.08-0.58-0.17c-0.22-0.28-0.14-0.61,0.25-0.84L21.7,20.44z"/>
			<linearGradient id="SVGID_11_" gradientUnits="userSpaceOnUse" x1="20.7301" y1="19.9792" x2="22.7291" y2="19.9792">
				<stop  offset="0" style="stop-color:#D06A28"/>
				<stop  offset="0.1811" style="stop-color:#EE7E23"/>
				<stop  offset="0.4405" style="stop-color:#F68A26"/>
				<stop  offset="0.5111" style="stop-color:#F68C2B"/>
				<stop  offset="0.6784" style="stop-color:#F78E33"/>
				<stop  offset="0.8481" style="stop-color:#F78D30"/>
				<stop  offset="0.983" style="stop-color:#F68B28"/>
				<stop  offset="1" style="stop-color:#F68A26"/>
			</linearGradient>
			<path class="st88" d="M22.73,20.78c0,0.03,0,0.05-0.01,0.08c-0.03,0.12-0.12,0.24-0.28,0.33c-0.39,0.22-1.02,0.22-1.41,0
				c-0.12-0.07-0.2-0.15-0.25-0.24c-0.01-0.02-0.02-0.03-0.02-0.05c-0.01-0.02-0.01-0.04-0.01-0.05c0-0.02-0.01-0.04-0.01-0.06h0
				l0.01-0.13l0.05-0.62l0-0.06l0.07-0.92l0.03-0.44h1.68l0.02,0.32c0,0,0,0,0,0l0.08,1.06l0.02,0.25L22.73,20.78z"/>
			<path class="st89" d="M22.32,18.95c-0.33,0.19-0.86,0.19-1.19,0c-0.02-0.01-0.05-0.03-0.07-0.04h0
				c-0.26-0.19-0.24-0.47,0.06-0.64c0.33-0.19,0.86-0.19,1.19,0c0.03,0.02,0.05,0.03,0.08,0.05h0
				C22.65,18.51,22.62,18.78,22.32,18.95z"/>
			<path class="st90" d="M22.25,18.92c-0.31,0.18-0.81,0.18-1.11,0c-0.02-0.01-0.04-0.03-0.06-0.04h0c-0.24-0.18-0.22-0.44,0.06-0.6
				c0.31-0.18,0.81-0.18,1.11,0c0.03,0.01,0.05,0.03,0.07,0.05h0C22.55,18.5,22.53,18.75,22.25,18.92z"/>
			<path class="st91" d="M21.89,18.75c-0.15,0.09-0.52,0.02-0.67-0.07c-0.01-0.01-0.02-0.01-0.03-0.02h0
				c-0.12-0.09-0.11-0.22,0.03-0.3c0.15-0.09,0.4-0.09,0.56,0c0.01,0.01,0.03,0.02,0.04,0.02h0C21.93,18.47,22.03,18.67,21.89,18.75
				z"/>
			<g>
				<linearGradient id="SVGID_12_" gradientUnits="userSpaceOnUse" x1="21.3346" y1="18.5813" x2="22.1243" y2="18.5813">
					<stop  offset="0" style="stop-color:#A0897F"/>
					<stop  offset="0.2568" style="stop-color:#C0ACA6"/>
					<stop  offset="0.2946" style="stop-color:#CEC4C2"/>
					<stop  offset="0.6568" style="stop-color:#CEC4C2"/>
					<stop  offset="0.6838" style="stop-color:#DCDBDB"/>
				</linearGradient>
				<path class="st92" d="M22.12,18.36h-0.79v0.21h0c0,0.06,0.04,0.12,0.12,0.16c0.15,0.09,0.4,0.09,0.56,0
					c0.08-0.04,0.12-0.1,0.11-0.16l0,0V18.36z"/>
				<path class="st21" d="M22.01,18.53c-0.15,0.09-0.4,0.09-0.56,0c-0.01-0.01-0.02-0.01-0.03-0.02h0c-0.12-0.09-0.11-0.22,0.03-0.3
					c0.15-0.09,0.4-0.09,0.56,0c0.01,0.01,0.03,0.02,0.04,0.02h0C22.16,18.32,22.15,18.45,22.01,18.53z"/>
				<path class="st21" d="M21.98,18.51c-0.15,0.09-0.39,0.08-0.54,0c-0.01-0.01-0.02-0.01-0.03-0.02h0
					c-0.12-0.09-0.11-0.21,0.03-0.29c0.15-0.09,0.39-0.08,0.54,0c0.01,0.01,0.02,0.02,0.03,0.02h0
					C22.13,18.31,22.12,18.43,21.98,18.51z"/>
				<linearGradient id="SVGID_13_" gradientUnits="userSpaceOnUse" x1="21.4595" y1="18.3561" x2="21.9992" y2="18.3561">
					<stop  offset="0.3162" style="stop-color:#DCDBDB"/>
					<stop  offset="0.3432" style="stop-color:#CEC4C2"/>
					<stop  offset="0.7054" style="stop-color:#CEC4C2"/>
					<stop  offset="0.7432" style="stop-color:#C0ACA6"/>
					<stop  offset="1" style="stop-color:#A0897F"/>
				</linearGradient>
				<path class="st93" d="M21.92,18.47c-0.11,0.06-0.28,0.06-0.38,0c-0.01,0-0.02-0.01-0.02-0.01h0c-0.08-0.06-0.08-0.15,0.02-0.21
					c0.11-0.06,0.28-0.06,0.38,0c0.01,0.01,0.02,0.01,0.02,0.02h0C22.02,18.32,22.02,18.41,21.92,18.47z"/>
				<path class="st86" d="M21.92,18.47c-0.11,0.06-0.28,0.06-0.38,0c-0.01,0-0.02-0.01-0.02-0.01c0.35,0.02,0.43-0.19,0.43-0.19h0
					C22.02,18.32,22.02,18.41,21.92,18.47z"/>
			</g>
		</g>
	</g>
	<polygon class="st94" points="18.55,32.38 18.06,32.86 12.02,29.37 12.51,28.89 	"/>
</g>
<g class="st0">
	<polygon class="st1" points="41.32,66.39 33.23,66.39 27.98,61.81 40.69,62.7 	"/>
	<path id="XMLID_441_" class="st1" d="M37.15,64.64l-2.03-2.52c-1.41-1.75-3.14-3.23-5.09-4.36L11.8,47.24L2.02,52.9l18.54,10.7
		c1.76,1.02,3.64,1.79,5.61,2.3c2.96,0.77,7.11,1.85,7.34,1.89c0.78,0.14,1.63,0.11,2.38-0.08c0.41-0.1,0.88-0.45,0.88-0.45
		C37.99,66.55,38.15,65.44,37.15,64.64z"/>
	<g class="st2">
		<polygon class="st67" points="23.24,51.48 15.6,55.89 15.6,11.13 23.24,6.72 		"/>
		<polygon class="st71" points="10.58,52.99 15.6,55.89 15.6,11.13 10.58,8.23 		"/>
		<polygon class="st95" points="23.24,6.72 15.6,11.13 12.74,9.48 10.58,8.23 12.72,7 18.22,3.82 		"/>
	</g>
	<polygon class="st96" points="17.32,10.13 15.6,12.96 15.6,26.12 21.75,22.45 	"/>
	<polygon class="st96" points="15.6,39.34 15.6,55.89 17.94,54.55 17.94,39.12 	"/>
	<g class="st2">
		<polygon class="st67" points="25.93,53.72 21.11,56.51 21.11,42.13 25.93,39.34 		"/>
		<polygon class="st52" points="24.5,54.57 22.71,47.24 21.11,47.51 21.11,56.51 		"/>
		<polygon class="st71" points="17.94,54.67 21.11,56.51 21.11,42.13 17.94,40.3 		"/>
		<polygon class="st51" points="25.93,39.34 21.11,42.13 19.3,41.09 17.94,40.3 19.28,39.52 22.76,37.51 		"/>
	</g>
	<g class="st2">
		<path class="st4" d="M37.03,55.06c0,0-0.83,0.87-0.94,0.98s-1.25,0.65-1.32,0.65c-0.07,0-1.01,0.18-1.09,0.31
			c-0.09,0.13-0.47,0.87-0.45,1.14c0.02,0.27,0.44,0.89,0.7,1.01c0.26,0.11,1.71-0.54,2.07-0.76c0.36-0.22,1.16-0.76,1.16-0.76
			s1.14-0.16,1.61-0.27c0.47-0.11,0.56-0.42,0.56-0.71c0-0.29,0.12-1.38-0.02-1.59C39.18,54.86,37.03,55.06,37.03,55.06z"/>
		<path class="st5" d="M37.8,46.34c0,0-0.59-0.19-0.6,0.77c-0.01,0.96-0.16,6.64-0.22,7.07c-0.06,0.44-0.26,1.02-0.13,1.31
			c0.13,0.28,1.99,0.8,2.4-0.23c0.4-1.04,0.95-3.32,1.12-4.46c0.17-1.14,0.07-3.92,0.07-3.92L37.8,46.34z"/>
		<path class="st4" d="M40.85,56.18c0,0-0.58,1.23-0.6,1.43c-0.02,0.2-1.41,2.03-1.63,2.21c-0.22,0.18-0.49,1.05-0.44,1.21
			c0.04,0.16,1.25,0.4,1.52,0.4c0.27,0,1.12,0.11,1.36-0.18c0.25-0.29,0.74-0.8,0.85-1.27c0.11-0.47,0.51-1.38,0.63-1.47
			c0.11-0.09,0.47-0.6,0.49-0.83c0.02-0.22,0-1.41,0-1.41L40.85,56.18z"/>
		<path class="st6" d="M36.39,34.48c0,0-1.06,1.14-0.48,5.34c0.58,4.21,0.99,6.89,1.36,7.42c0.36,0.54,1.94,0.67,2.88,0
			c0.94-0.67,1.34-6.03,1.34-7.17c0-1.14,0.02-5.03-0.89-5.76C39.68,33.58,36.39,34.48,36.39,34.48z"/>
		<path class="st7" d="M38.3,35.83c0,0,0.6,2.61,0.99,3.26c0.39,0.65,1.3,1.22,1.3,1.22s-0.37,4.5-0.41,6.22
			c-0.04,1.72,0.04,2.52,1.16,2.68c1.12,0.16,2.43-0.13,3.06-0.98c0.63-0.85,1.85-6.13,2.19-7.37c0.34-1.23,0.78-2.95,0.34-5.03
			c-0.45-2.08-4.04-2.14-4.04-2.14L38.3,35.83z"/>
		<path class="st7" d="M44.13,53.14c0,0-0.85,2.75-1.01,3.24c-0.16,0.49-0.42,0.71-0.42,0.71s-1.39,0.42-2.04-0.76
			c0.13-1.72-0.18-6.04-0.43-8.18c2.03-2.39,4.33-0.23,4.33-0.23s-0.13,3.01-0.17,3.57C44.36,52.05,44.13,53.14,44.13,53.14z"/>
		<path class="st8" d="M33.99,21.97c0,0-2.41,1.09-3.62,1.45c-1.21,0.36-2.46,0.87-2.77,1.27c-0.31,0.4,0.56,2.19,1.32,2.32
			c0.76,0.13,2.97-0.96,2.97-0.96l4.29-1.32L33.99,21.97z"/>
		<path class="st9" d="M38.5,20.49c0,0-3.17,0.42-4.4,1.03c-1.23,0.6-1.23,0.6-1.23,0.6s0.45,1.47,0.8,2.01
			c0.36,0.54,0.71,1.3,0.71,1.36s1.74,0.04,2.14,0.22C36.94,25.9,40,20.38,38.5,20.49z"/>
		<path class="st10" d="M46.97,23.84c0,0-2.13-1.38-3.2-1.87c-1.07-0.49-4.6-1.05-5.32-1.07s-1.27-0.18-1.47,0.36
			c-0.2,0.54-1.29,4.09-1.09,5.45c0.2,1.36,0.29,3.13,0.29,3.13s0.4,1.6,0.42,2.54c0.02,0.94-0.18,1.59-0.11,2.14
			c0.07,0.56,0.54,1.85,4.09,2.57c3.55,0.71,4.24-0.02,4.82-0.36c0.58-0.34,1.27-1.72,1.23-2.09c-0.04-0.37-0.85-1.31-0.92-1.82
			C45.65,32.31,46.97,23.84,46.97,23.84z"/>
	</g>
	<g class="st2">
		<polygon class="st67" points="44.51,64.54 41.32,66.39 40.5,51.25 45.33,48.46 		"/>
		<polygon class="st71" points="38.14,64.56 41.32,66.39 40.5,51.25 37.33,49.42 		"/>
		<polygon class="st51" points="45.33,48.46 40.5,51.25 38.69,50.2 37.33,49.42 38.68,48.64 42.15,46.63 		"/>
	</g>
	<path class="st96" d="M45.16,51.8l-0.13,2.55c0,0-1.69,1.48-4.33,0.63c0,0-0.2-3.73-0.2-3.73L45.16,51.8z"/>
	<path id="XMLID_433_" class="st97" d="M48.45,49.24l-4.53-3.22c0,0-29.15-9.36-29.15-8.8c0,0.56,0,1.83,0,1.83l17.45,10.08
		c1.66,0.96,3.43,1.68,5.28,2.17c2.79,0.73,6.69,1.74,6.91,1.78c0.74,0.13,1.53,0.1,2.24-0.08c0.38-0.09,0.83-0.43,0.83-0.43
		c0.62-0.36,0.95-0.83,0.97-1.31C48.48,50.86,48.45,49.24,48.45,49.24z"/>
	<path id="XMLID_432_" class="st98" d="M47.85,48.27l-1.91-2.37c-1.33-1.65-2.95-3.04-4.79-4.1l-17.16-9.91l-9.21,5.33l17.45,10.08
		c1.66,0.96,3.43,1.68,5.28,2.17c2.79,0.73,6.69,1.74,6.91,1.78c0.74,0.13,1.53,0.1,2.24-0.08c0.38-0.09,0.83-0.43,0.83-0.43
		C48.64,50.07,48.79,49.03,47.85,48.27z"/>
	<g class="st2">
		<g id="XMLID_436_">
			
				<linearGradient id="XMLID_2_" gradientUnits="userSpaceOnUse" x1="-743.5882" y1="50.7301" x2="-749.687" y2="40.8559" gradientTransform="matrix(-1 0 0 1 -719.3324 0)">
				<stop  offset="0.0118" style="stop-color:#B6C6CF"/>
				<stop  offset="0.3478" style="stop-color:#B7C6CE"/>
				<stop  offset="0.4028" style="stop-color:#B9C6CC"/>
				<stop  offset="0.4224" style="stop-color:#C2CDD3"/>
				<stop  offset="0.4731" style="stop-color:#D7DDE0"/>
				<stop  offset="0.5331" style="stop-color:#E7EAEC"/>
				<stop  offset="0.6072" style="stop-color:#F3F4F5"/>
				<stop  offset="0.7112" style="stop-color:#FCFCFC"/>
				<stop  offset="1" style="stop-color:#FFFFFF"/>
			</linearGradient>
			<polygon id="XMLID_440_" class="st99" points="40.1,41.95 31.49,46.99 31.47,56.5 20.1,49.69 19.91,40.31 28.4,35.19 			"/>
			<polygon id="XMLID_438_" class="st100" points="35.89,44.39 37.06,47.2 42.29,46.57 40.1,41.95 			"/>
			<path class="st101" d="M33.21,44.71c0,0,0.8,0.29,1.09,0.19c0.29-0.11,0.7-0.32,0.7-0.32l0.94-0.06c0,0,1.31-0.59,2.02-1.16
				c0.71-0.57,0.45-0.82,1.37-1.33c0.92-0.51,1.25-0.55,1.25-0.55l-1.01-0.59l-3.5,1.93l-2.53,0.09
				C33.53,42.9,32.91,43.87,33.21,44.71z"/>
			<path class="st101" d="M32.18,43.57c0,0-1.07,0.25-2.35,0.22c-1.27-0.03-3.8,0.05-4.63-0.49c-0.83-0.54-5.09-2.48-4.71-2.9
				c0.38-0.42,1.69-1.25,1.88-1.28c0.19-0.02,3.24,0.27,4.56,0.76C28.27,40.38,32.18,43.57,32.18,43.57z"/>
			<polygon id="XMLID_439_" class="st100" points="24.31,37.63 20.23,36.33 22.56,33.07 28.4,35.19 			"/>
			<path id="XMLID_437_" class="st102" d="M38.06,40.77c-1.31,0.76-3.96,0.45-5.93-0.69c-1.97-1.14-2.5-2.67-1.19-3.42L38.06,40.77z
				"/>
		</g>
		<path id="XMLID_435_" class="st21" d="M31.89,40.78l0.16-0.9c0,0,1.91,0.6,3.69,0.52c1.46-0.06,2.1-0.22,2.1-0.22l0.62,0.71
			C38.46,40.89,35.05,42.02,31.89,40.78z"/>
		<path id="XMLID_434_" class="st21" d="M31.55,39.5l-1.19,0.19c0,0-0.74-0.82-0.47-1.9c0.08-0.35,0.43-1.15,0.55-1.28l1.11,0.09
			C31.55,36.6,30.02,38.25,31.55,39.5z"/>
	</g>
	<g class="st2">
		<path class="st103" d="M24.46,35.97c-1.04-0.1-2.97-0.93-2.87-3.35c0.03-0.8,0.32-2.55,0.67-4.77c0.79-4.94,2.12-13.2,1.18-15.27
			c-1.29-2.84-3.03-3.34-3.05-3.34l0.2-0.76c0.09,0.02,2.11,0.57,3.57,3.78c1.04,2.29-0.21,10.05-1.12,15.72
			c-0.35,2.2-0.63,3.93-0.66,4.68c-0.1,2.26,2.07,2.52,2.16,2.53L24.46,35.97z"/>
	</g>
	<g class="st2">
		<g id="XMLID_425_">
			<path id="XMLID_828_" class="st101" d="M24.22,39.89l0.08,0.02c0.57-0.65,3.96-2.48,4.08-2.36c0.13,0.12,3.12,4.71,3.71,5.62
				h0.12c0.02,0.03,0.04,0.08,0.04,0.12v0.19h0c0,0.09-0.11,0.18-0.54,0.1c-0.79-0.14-2.76-0.31-3.42-0.58
				c-0.66-0.27-2.06-0.86-2.97-1.65c-0.88-0.76-1.09-0.84-1.09-1.26l0,0L24.22,39.89z"/>
			<path class="st104" d="M32.21,43.17c-0.01-0.01-0.01-0.02-0.01-0.02c0.08-0.06,0.02-0.19,0.02-0.19
				c-0.06-0.01-0.11-0.01-0.16-0.02c-0.66-1.01-3.55-5.44-3.67-5.56c-0.12-0.12-3.06,1.46-3.92,2.2c-0.11-0.09-0.23-0.17-0.34-0.25
				c-0.28-0.21-0.56-0.42-0.84-0.63c-0.09-0.06-0.14-0.15-0.21-0.23c-0.01-0.01-0.02-0.03-0.04-0.03c-0.01,0-0.02,0.01-0.03,0.01
				C23,38.45,23,38.46,22.99,38.47c0,0.02,0.01,0.04,0.02,0.06c0.01,0.02,0.02,0.04,0.04,0.06c0.02,0.03,0.05,0.05,0.08,0.07
				c0.12,0.13,0.25,0.25,0.38,0.38c0,0,0.6,0.46,0.77,0.71c-0.04,0.05-0.06,0.09-0.06,0.12c0,0.05,0,0.1,0.01,0.15
				c0.04,0.33,0.28,0.46,1.08,1.15c0.91,0.79,2.3,1.38,2.97,1.64c0.67,0.27,2.63,0.43,3.42,0.58c0.45,0.08,0.55-0.01,0.55-0.11
				C32.25,43.24,32.22,43.2,32.21,43.17z"/>
			<path id="XMLID_820_" class="st105" d="M22.71,38.14c0,0.04,0,0.08,0.01,0.12c0.02,0.05,0.06,0.1,0.1,0.14
				c0.04,0.04,0.09,0.09,0.14,0.12c0.05,0.02,0.09,0.03,0.13,0.07c0.11,0.09,0.22,0.18,0.34,0.27c0.19,0.15,0.39,0.31,0.58,0.46
				c0.01,0.01,0.02,0.01,0.02,0.02l2.26,1.58c1.05,0.78,3.27,1.57,3.27,1.57s0.16,0.05,0.39,0.13c0.22,0.07,0.5,0.15,0.78,0.21
				c0.45,0.1,1.14,0.24,1.42,0.3c0.04,0.01,0.08-0.02,0.08-0.06l0-0.03l-0.18-0.49c-0.04-0.1-0.07-0.21-0.1-0.31
				c-0.15-0.48-0.4-1.02-0.67-1.51c-0.04-0.07-0.07-0.14-0.11-0.2c-0.13-0.23-0.26-0.44-0.37-0.62c-0.25-0.38-2.07-1.88-3.39-2.95
				c-0.8-0.64-1.67-1.06-1.67-1.06s-1.48,0.35-2.29,0.65c-0.06,0.02-0.12,0.04-0.18,0.06c-0.02,0.01-0.03,0.01-0.04,0.02
				c-0.01,0.01-0.01,0.01-0.02,0.02c-0.02,0.02-0.04,0.02-0.06,0.04c-0.01,0.01-0.02,0.02-0.03,0.03c-0.02,0.03-0.04,0.07-0.06,0.11
				c-0.06,0.1-0.1,0.2-0.16,0.3c-0.05,0.1-0.11,0.19-0.14,0.3c-0.01,0.03-0.01,0.07-0.01,0.1C22.73,37.71,22.72,37.92,22.71,38.14z"
				/>
			<path id="XMLID_816_" class="st105" d="M29.84,41.98l0.12,0.62c0.22,0.07,0.5,0.15,0.78,0.21c0.45,0.1,1.14,0.24,1.42,0.3
				c0.05,0.01,0.1-0.04,0.08-0.09l-0.18-0.49c-0.04-0.1-0.07-0.21-0.1-0.31c-0.17-0.56-0.33-0.93-0.63-1.45l-1.35,0.84
				C29.86,41.69,29.81,41.84,29.84,41.98z"/>
			<path id="XMLID_811_" class="st106" d="M23.26,36.72c0.13,0.08,0.27,0.13,0.41,0.15c0.29,0.05,0.53-0.01,0.53-0.01
				c0.71-0.06,0.69-1.34,0.92-1.57c2.16,1.15,2.58,1.47,2.58,1.47c0.02-0.13,0.91-0.89,0.91-0.89l-0.11-0.1
				c-0.82-0.83-2.62-1.5-2.62-1.5c-0.48,0.12-0.71,0.41-0.83,0.63l-0.67-0.17l-0.74,0.05L23.26,36.72z"/>
			<path id="XMLID_810_" class="st7" d="M23.12,36.67l0.22,0.09c0-0.02,0-0.03,0.01-0.05c0.03-0.22,0.36-0.83,0.39-1.05
				c0.03-0.17,0.12-0.32,0.27-0.41c0.17-0.1,0.35-0.16,0.54-0.16c0.06,0,0.11,0.01,0.16,0.01c0.06,0.01,0.31,0.06,0.38,0.05
				c0.05-0.01-0.09-0.08-0.06-0.11c0.05-0.07,0.11-0.15,0.17-0.22c0.14-0.17,0.28-0.35,0.45-0.49c0.03-0.03,0.19-0.17,0.24-0.14
				c-0.19-0.1-0.36-0.15-0.56-0.2c-0.05-0.01-0.1-0.02-0.15-0.03c-0.18-0.03-0.36-0.04-0.54-0.03c-0.04,0-0.08,0.01-0.12,0.02
				c-0.21,0.05-0.4,0.17-0.55,0.31c-0.14,0.13-0.34,0.31-0.4,0.49c-0.04,0.14-0.05,0.27-0.06,0.42
				C23.49,35.3,23.12,36.67,23.12,36.67z"/>
			<path id="XMLID_809_" class="st7" d="M27.63,36.62c0,0-1.4-1.34-2.68-1.46c0,0,0.07-0.74,0.93-0.96c0,0,1.79,0.67,2.62,1.5
				l0.11,0.1C28.61,35.8,27.65,36.49,27.63,36.62z"/>
			<path id="XMLID_807_" class="st105" d="M26.38,38.91c0.08,0.2,0.21,0.41,0.38,0.61l0.02,0.02c0.84,1,2.52,1.89,2.96,2.11
				c0.76,0.41,1.35,0.69,1.72,0.85c0.14,0.06,0.29-0.05,0.29-0.18c0-0.02,0-0.05-0.01-0.07c-0.03-0.09-0.06-0.19-0.09-0.28
				c-0.05-0.15-0.09-0.29-0.14-0.42v0c-0.06-0.15-0.12-0.3-0.19-0.45c-0.07-0.14-0.14-0.28-0.23-0.43
				c-0.12-0.21-0.38-0.63-0.48-0.78c-0.11-0.17-0.6-0.61-1.2-1.12c-0.57-0.49-1.25-1.04-1.83-1.51c-0.01,0-0.03,0-0.04,0.01
				c-0.02,0-0.05,0.01-0.07,0.01C26.64,37.38,25.93,37.75,26.38,38.91z"/>
			<path id="XMLID_796_" class="st107" d="M27.63,36.62v0.07c0.03,0.05,0.06,0.1,0.08,0.14c0.01,0.01,0.02,0.03,0.03,0.04
				c0.08,0.15,0.15,0.28,0.2,0.41c0.01,0.03,0.02,0.05,0.03,0.07c0.03,0.07,0.05,0.15,0.07,0.21c0.01,0.02,0.01,0.05,0.02,0.07
				c0.01,0.02,0.01,0.04,0.01,0.07c0,0.02,0.01,0.04,0.01,0.06c0.01,0.04,0.02,0.18,0.02,0.18s0.03,0.14,0.05,0.35
				c0.04,0.41-0.26,1.48-0.65,1.93c0.85,0.7,1.91,1.25,2.24,1.42c0.76,0.41,1.35,0.69,1.72,0.85c0.14,0.06,0.29-0.05,0.29-0.18
				c0-0.02,0-0.05-0.01-0.07c-0.03-0.09-0.06-0.19-0.09-0.28c-0.05-0.15-0.09-0.31-0.15-0.46c-0.03-0.08-0.05-0.16-0.08-0.24
				c-0.03-0.07-0.06-0.11-0.11-0.17l-1.91-2.34l-0.63-1.51l-0.73-0.4L27.63,36.62z"/>
			<path id="XMLID_775_" class="st107" d="M27.63,36.62v0.08c0.03,0.05,0.06,0.09,0.08,0.13c0.01,0.01,0.02,0.03,0.03,0.04
				c0.08,0.15,0.15,0.28,0.2,0.41c0.01,0.03,0.02,0.05,0.03,0.07c0.03,0.07,0.05,0.15,0.07,0.21c0.01,0.02,0.01,0.04,0.02,0.07
				c0.01,0.02,0.01,0.04,0.01,0.07c0,0.02,0.01,0.04,0.01,0.06c0,0.01,0,0.02,0,0.03c0.01,0.09,0.02,0.17,0.03,0.26
				c0.01,0.06,0.02,0.14,0.03,0.23c0.36-0.02,0.64-0.22,0.64-0.22l-0.75-1.24L27.63,36.62z"/>
			<path id="XMLID_774_" class="st7" d="M27.62,36.62c0,0,0.07,0.09,0.18,0.25c0.31,0.43,0.65,1.73,1.01,2.41
				c0.01,0.03,0.15,0.25,0.2,0.33c0.06,0.09,0.13,0.17,0.2,0.26c0.07,0.09,0.15,0.18,0.22,0.26c0.08,0.09,0.16,0.18,0.24,0.26
				c0.08,0.09,0.17,0.17,0.25,0.26c0.08,0.08,0.17,0.16,0.26,0.24c0.08,0.07,0.17,0.15,0.25,0.22c0.08,0.07,0.16,0.13,0.24,0.19
				c0.07,0.05,0.14,0.11,0.21,0.16c0.06,0.04,0.12,0.08,0.18,0.11c0.07,0.04,0.14,0.07,0.21,0.1c0.01,0,0.12,0.06,0.17,0.03
				c0.03-0.01,0.04-0.05,0.04-0.07c0.01-0.02,0.01-0.05,0.01-0.07v0c0-0.03,0-0.07-0.01-0.1c-0.01-0.04-0.02-0.1-0.03-0.15
				c-0.04-0.17-0.11-0.39-0.19-0.61c-0.06-0.17-0.13-0.34-0.19-0.49c-0.09-0.23-0.16-0.39-0.16-0.39s-0.07-0.13-0.19-0.34
				c-0.19-0.35-1.46-3.11-1.8-3.42c-0.04-0.04-0.08-0.07-0.12-0.1c0,0-0.62-0.66-1.08,0.35L27.62,36.62z"/>
			<path id="XMLID_426_" class="st108" d="M23.66,36.87c0.29,0.05,0.53-0.01,0.53-0.01c0.71-0.06,1.34-0.66,1.57-0.88
				c0,0,0.05-0.29-0.1-0.39c-0.15-0.09-0.36-0.21-0.55-0.29c0,0-0.04-0.02-0.17-0.01C24.4,35.33,23.73,36.21,23.66,36.87z"/>
		</g>
		<path class="st11" d="M29.61,25.72c0,0-0.16,0.98-0.69,2.21c-0.54,1.23-0.85,2.41-0.89,3.13s-0.09,1.09,0,1.54
			c0.09,0.45,0.35,1.15,0.34,1.31c-0.01,0.16-0.22,0.88-0.23,0.98c-0.01,0.1-0.04,0.4-0.04,0.4l-0.8-0.4c0,0-0.58,0.92-0.6,1.14
			c-0.02,0.22-0.04,0.75-0.21,0.82c-0.17,0.07-0.44,0-0.44,0l-0.1-0.13c0,0-0.07,0.39-0.41,0.38c-0.35-0.01-0.32-0.29-0.32-0.29
			s-0.08,0.15-0.29,0.01c-0.21-0.13-0.15-0.87-0.15-0.87s-0.21,0.25-0.37,0.15c-0.16-0.1-0.1-1.49-0.1-1.49s0.5-1.3,0.7-1.53
			c0.2-0.23,0.86-1.03,0.96-1.66c0.1-0.63,0.3-3.32,0.51-4.32c0.21-1.01,0.22-1.54,1.14-2.39C28.51,23.84,29.63,25.31,29.61,25.72z"
			/>
		<path class="st8" d="M42.64,18.26c0,0-0.3,2.01,0,2.75c0.3,0.74,0.65,1.02,0.65,1.02s-0.89,1.76-1.54,2.06
			c-0.65,0.3-1.66,0.27-1.96-0.25c-0.3-0.52-0.9-2.31-0.94-2.73C38.82,20.69,42.64,18.26,42.64,18.26z"/>
		<path class="st11" d="M38.1,15.44c0,0-0.67,0.5-0.82,1.61s0.12,3.35,0.17,3.8c0.05,0.45,1.22,2.34,1.61,2.46
			c0.39,0.12,2.26-0.77,2.61-1.12c0.35-0.35,0.9-1.52,1.12-1.96c0.22-0.44,0.52-2.38,0.17-3.4C42.6,15.81,38.1,15.44,38.1,15.44z"/>
		<path class="st12" d="M42.2,19.9c0,0-0.28-1.01-0.44-1.37c-0.15-0.37-0.8-1.14-1.36-1.02c-0.55,0.12-1.44,0.08-1.83,0.08
			c-0.39,0-1.21-0.52-1.21-0.52l-0.14,0.47v0.59c0,0-0.33-0.52-0.1-1.56c0.23-1.04,0.95-2.14,2.16-2.65c1.21-0.5,1.94,0,1.94,0
			s1.47-0.37,2.35,1.24s0.54,3.34,1.5,5.33c0.96,1.99,1.88,3.35,1.88,3.35s-1.87-0.4-2.84-0.84c-0.97-0.44-1.46-0.54-1.54-0.89
			s-0.04-1.54-0.04-1.54s0.3-1.54,0.14-1.31C42.41,19.65,42.19,19.92,42.2,19.9z"/>
		<path class="st11" d="M44.28,28.41c0,0-0.24,2.53-0.36,2.8c-0.11,0.27-0.62,1.98-0.8,2.63c-0.18,0.65-0.34,1.04-0.34,1.04
			s0.9,1.86,1.71,1.69c0.8-0.17,1.01-0.79,1.42-1.73s1.04-3.13,1.11-3.48c0.07-0.35,0.37-1.68,0.37-2.31c0-0.64-0.94-1.71-0.94-1.71
			L44.28,28.41z"/>
		<path class="st9" d="M47.28,24.21c0,0-0.62-1.21-1.96-0.28c-1.34,0.92-1.27,2.43-1.36,3.77c-0.08,1.34,0,2.14,0,2.14
			s1.39-0.55,2.66-0.45c1.27,0.1,1.17,0.22,1.17,0.22s0.15-2.86,0.12-3.38C47.88,25.7,47.71,24.66,47.28,24.21z"/>
		<path class="st28" d="M44.51,35.17c0,0-1.08-0.95-1.72-0.29c-0.64,0.66-2.76,3-3.76,3.89c-1.01,0.89-1.92,1.93-2.02,2
			c-0.1,0.07-1.38,0.2-1.57,0.29c-0.19,0.09-1.12,1.27-1.27,1.38c-0.16,0.11-0.68,0.36-0.73,0.47c-0.04,0.11,0.23,0.19,0.23,0.19
			s-0.61,0.74-0.65,0.92c-0.03,0.18,0.11,0.36,0.11,0.36s-0.01,0.28,0.08,0.34c0.09,0.06,0.51,0,0.51,0s0.21,0.13,0.37,0.09
			c0.16-0.04,0.85-0.4,0.85-0.4s0.01,0.28,0.25,0.28c0.23,0,1.4-0.5,1.4-0.5l0.78-0.68c0,0,0.64-0.46,0.74-0.73
			c0.1-0.27,0.34-0.59,0.47-0.73c0.13-0.13,0.48-0.46,1.46-1.09c0.98-0.64,2.4-1.72,3.56-2.95c1.16-1.23,1.35-1.55,1.42-1.64
			S44.95,35.4,44.51,35.17z"/>
		<path class="st11" d="M42.69,19.26c0,0,0.37-0.44,0.5-0.44c0.13,0,0.34,0.23,0.25,0.8c-0.08,0.57-0.18,0.81-0.37,0.86
			c-0.19,0.05-0.58-0.05-0.58-0.05L42.69,19.26z"/>
	</g>
	<g class="st2">
		<polygon class="st109" points="23.66,20.76 19.84,22.97 19.84,11.58 23.66,9.37 		"/>
		<g>
			<path class="st110" d="M21.37,16.94c0.04,0.31-0.15,0.69-0.41,0.85c-0.26,0.15-0.51,0.03-0.55-0.29
				c-0.04-0.31,0.15-0.69,0.41-0.85C21.09,16.5,21.33,16.63,21.37,16.94z"/>
			<path class="st111" d="M21.1,17c0.02,0.19-0.09,0.43-0.25,0.53c-0.16,0.1-0.32,0.02-0.34-0.18c-0.02-0.19,0.09-0.43,0.25-0.53
				C20.92,16.73,21.08,16.81,21.1,17z"/>
		</g>
		<polygon class="st112" points="23.08,11.07 20.42,12.61 20.42,12.43 23.08,10.89 		"/>
		<polygon class="st112" points="23.08,11.92 20.42,13.46 20.42,13.29 23.08,11.75 		"/>
		<polygon class="st112" points="23.08,12.78 20.42,14.32 20.42,14.14 23.08,12.61 		"/>
		<polygon class="st112" points="23.08,13.64 20.42,15.18 20.42,15 23.08,13.46 		"/>
		<polygon class="st112" points="17.32,21.52 19.84,22.97 19.84,11.58 17.32,10.13 		"/>
		<polygon class="st95" points="23.66,9.37 19.84,11.58 18.4,10.75 17.32,10.13 18.39,9.51 21.15,7.92 		"/>
	</g>
	<path class="st113" d="M22.09,40.08c0,0-0.77,0.05-0.77,0.22c0,0.17,1.84,1.32,2.26,1.37c0.42,0.06,0.68-0.02,0.68-0.02
		L22.09,40.08z"/>
</g>
<g>
	<path class="st3" d="M43.48,60.8l-0.81,0.47l-2.53,0.19l0.99-0.58l-22.3-12.87l2.19-1.47l-1.82,0l-1.45,0.85l-0.62-0.36L2.23,55.74
		l24,13.85l0.96-0.56l2.43-0.11l-1.28,0.75l0.81,0.47l2.05,0.12l14.11-9.45L43.48,60.8z M28.5,68.26l10.58-6.18l2.31-0.06l-10.6,6.2
		L28.5,68.26z"/>
	<g>
		<g>
			<path class="st4" d="M34.22,48.13c0,0-0.9,0.95-1.02,1.07c-0.12,0.12-1.36,0.71-1.44,0.71s-1.09,0.19-1.19,0.34
				c-0.1,0.15-0.51,0.95-0.49,1.24c0.02,0.29,0.48,0.97,0.76,1.09c0.28,0.12,1.86-0.58,2.25-0.83c0.39-0.24,1.26-0.83,1.26-0.83
				s1.24-0.17,1.75-0.29c0.51-0.12,0.61-0.46,0.61-0.78c0-0.32,0.13-1.51-0.02-1.73C36.56,47.91,34.22,48.13,34.22,48.13z"/>
			<path class="st5" d="M35.06,38.64c0,0-0.64-0.21-0.66,0.83c-0.02,1.04-0.17,7.23-0.24,7.7c-0.07,0.47-0.29,1.11-0.14,1.42
				c0.15,0.31,2.17,0.88,2.61-0.26c0.44-1.13,1.04-3.61,1.22-4.85c0.18-1.24,0.07-4.27,0.07-4.27L35.06,38.64z"/>
			<path class="st4" d="M38.38,49.35c0,0-0.64,1.34-0.66,1.56c-0.02,0.22-1.53,2.21-1.78,2.41c-0.24,0.19-0.53,1.14-0.48,1.31
				c0.05,0.17,1.36,0.44,1.65,0.44c0.29,0,1.22,0.12,1.48-0.19c0.27-0.32,0.8-0.88,0.92-1.39c0.12-0.51,0.56-1.51,0.68-1.61
				c0.12-0.1,0.51-0.66,0.54-0.9c0.02-0.24,0-1.53,0-1.53L38.38,49.35z"/>
			<path class="st6" d="M33.53,25.72c0,0-1.15,1.24-0.52,5.82c0.63,4.58,1.08,7.5,1.48,8.08c0.4,0.58,2.11,0.73,3.13,0
				c1.02-0.73,1.46-6.57,1.46-7.81c0-1.24,0.03-5.47-0.97-6.28C37.1,24.73,33.53,25.72,33.53,25.72z"/>
			<path class="st7" d="M35.61,27.19c0,0,0.65,2.85,1.08,3.55c0.43,0.71,1.42,1.32,1.42,1.32s-0.4,4.9-0.45,6.78
				c-0.05,1.87,0.05,2.75,1.26,2.92c1.22,0.17,2.65-0.15,3.33-1.07c0.68-0.92,2.02-6.68,2.38-8.02c0.36-1.34,0.85-3.22,0.36-5.48
				c-0.49-2.26-4.4-2.34-4.4-2.34L35.61,27.19z"/>
			<path class="st7" d="M41.96,46.04c0,0-0.92,2.99-1.09,3.53c-0.17,0.54-0.46,0.78-0.46,0.78s-1.51,0.46-2.22-0.83
				c0.15-1.87-0.2-6.58-0.46-8.91c2.22-2.6,4.71-0.25,4.71-0.25s-0.14,3.27-0.19,3.88C42.2,44.85,41.96,46.04,41.96,46.04z"/>
		</g>
		<g>
			<path class="st10" d="M44.59,27.83c-2.05,1.71-5.04,1.46-7.47,0.9c-1.13-0.27-2.45-0.54-3.38-1.25
				c-1.05-0.81-0.82-1.89-0.76-3.06c0.07-1.5,0.13-3-0.01-4.5c-0.05-0.54-0.23-0.86-0.43-1.36c-0.17-0.41-0.34-0.94-0.47-1.83
				c-0.19-1.29-0.07-2.63,0.16-3.98c0.12-0.7,0.27-1.4,0.42-2.1c0.45-2.04,1.78-3.52,5.79-2.43c4.01,1.09,5.85,3.97,5.85,3.97
				l-1.01,3.04c0,0,0.34,5.49,0.35,5.64c0.02,0.15,0.53,2.06,0.68,3C44.53,25.17,45.91,26.74,44.59,27.83z"/>
			<g>
				<g id="XMLID_411_">
					<g id="XMLID_416_">
						<polygon id="XMLID_417_" class="st13" points="5.78,55.58 6.59,56.05 6.59,55.34 5.78,54.87 						"/>
					</g>
					<g id="XMLID_414_">
						<polygon id="XMLID_415_" class="st13" points="6.59,56.05 21.73,47.2 21.73,46.48 6.59,55.34 						"/>
					</g>
					<g id="XMLID_412_">
						<polygon id="XMLID_413_" class="st15" points="5.78,54.87 6.59,55.34 21.73,46.48 20.93,46.01 						"/>
					</g>
				</g>
				<polygon id="XMLID_403_" class="st14" points="7.11,55.02 7.79,54.63 7.79,28.73 7.11,29.11 				"/>
				<polygon id="XMLID_402_" class="st13" points="6.37,54.57 7.11,55.02 7.11,29.11 6.37,28.73 				"/>
				<polygon id="XMLID_401_" class="st16" points="20.7,47.05 21.38,46.66 21.38,20.75 20.7,21.14 				"/>
				<polygon id="XMLID_400_" class="st13" points="19.96,46.6 20.7,47.05 20.7,21.14 19.96,20.75 				"/>
				<g id="XMLID_379_">
					<g id="XMLID_391_">
						<polygon id="XMLID_392_" class="st13" points="30.38,69.79 31.18,70.26 31.18,69.54 30.38,69.07 						"/>
					</g>
					<g id="XMLID_389_">
						<polygon id="XMLID_390_" class="st14" points="31.18,70.26 46.33,61.4 46.33,60.68 31.18,69.54 						"/>
					</g>
					<g id="XMLID_387_">
						<polygon id="XMLID_388_" class="st15" points="30.38,69.07 31.18,69.54 46.33,60.68 45.53,60.21 						"/>
					</g>
				</g>
				<polygon id="XMLID_378_" class="st14" points="31.71,69.22 32.39,68.83 32.39,42.93 31.71,43.32 				"/>
				<polygon id="XMLID_377_" class="st13" points="30.97,68.78 31.71,69.22 31.71,43.32 30.97,42.93 				"/>
				<polygon id="XMLID_376_" class="st14" points="45.29,61.25 45.98,60.86 45.98,34.96 45.29,35.35 				"/>
				<polygon id="XMLID_375_" class="st13" points="44.56,60.81 45.29,61.25 45.29,35.35 44.56,34.96 				"/>
				<polygon id="XMLID_374_" class="st17" points="5.02,32.27 31.59,47.6 31.59,44.4 5.02,29.07 				"/>
				<polygon id="XMLID_373_" class="st18" points="5.02,29.07 31.59,44.4 48.1,34.75 21.53,19.42 				"/>
				<polygon id="XMLID_127_" class="st19" points="5.02,29.07 31.59,43.68 47.06,34.82 21.53,19.42 				"/>
				<polygon class="st17" points="16.13,31.49 10.93,31.49 5.91,28.55 18.85,20.99 				"/>
				<polygon class="st114" points="40.69,31.06 32.32,35.95 23.98,31.14 18.85,28.18 20.08,27.46 20.49,27.67 20.49,27.68 
					21.04,28.99 21.04,29 21.05,29 21.06,29 25.3,26.55 25.85,24.54 25.53,24.32 27.22,23.29 				"/>
				<polygon class="st115" points="20.49,27.68 21.04,28.99 19.63,28.18 20.49,27.67 				"/>
				<polygon class="st115" points="39.92,31.07 37.63,37.34 32.32,35.5 24.37,30.92 21.06,29 25.3,26.55 25.85,24.54 27.22,23.73 
									"/>
				<polygon class="st116" points="39.92,31.07 39.02,31.59 38.46,33.62 36.72,34.62 27.22,29.25 27.22,23.73 				"/>
				<polygon class="st117" points="20.49,27.68 21.04,29 19.63,28.18 20.49,27.67 				"/>
				<polygon class="st117" points="27.22,23.73 27.22,29.25 24.37,30.92 21.06,29 25.3,26.55 25.85,24.54 				"/>
				<polygon id="XMLID_372_" class="st22" points="31.59,47.6 48.1,37.96 48.1,34.75 31.59,44.4 				"/>
			</g>
			<path class="st8" d="M35.73,10.17c0,0-0.53,1.9,0.58,2.61c1.11,0.71,2.98,0.41,4.01-0.73c1.03-1.14,0.75-2.16-0.28-2.76
				c-1.03-0.6-2.72-1.67-3.06-1.52S35.73,10.17,35.73,10.17z"/>
			<path class="st8" d="M36.29,9.88c0,0,0.22,1.74,0.64,2.18c0.41,0.43,0.79,0.47,1.48,0.17c0.69-0.3,0.92-0.79,1.11-1.44
				c0.19-0.66-0.67-2.19-0.67-2.19s-1.37-2-1.51-1.98C37.21,6.64,36.29,9.88,36.29,9.88z"/>
			<path class="st118" d="M35.59,32.29c0,0-0.92,0.79-1.43,1.11c-0.51,0.32-1.48,1.08-1.73,1.27c-0.25,0.19-0.8,0.69-1.08,0.66
				c-0.28-0.03-3.11-1.08-4.53-2.01c-1.42-0.92-2.89-2.15-3.19-2.67c-0.24-0.42-0.36-0.58-0.11-0.74c0.06-0.04,0.14-0.08,0.24-0.12
				c0.54-0.22,2.63-1.49,2.75-1.51c0.12-0.02,1.13-0.32,1.3-0.34c0.17-0.02,1.76,0.07,2.16,0.22c0.4,0.15,1.94,0.87,2.08,1.19
				c0.15,0.32,0.47,0.62,0.95,1.03c0.44,0.37,2.55,1.4,2.64,1.8C35.65,32.23,35.64,32.26,35.59,32.29z"/>
			<path class="st119" d="M25.27,30.55c0,0-0.4,0.78,1.94,2.13c2.34,1.35,3.7,1.81,4.11,1.99c0.41,0.18,0.52,0.16,0.89-0.1
				c0.37-0.26,1.63-1.18,1.76-1.25c0.12-0.07,0.41-0.51,0.31-0.62C34.17,32.59,25.68,30.4,25.27,30.55z"/>
			<path class="st120" d="M33.6,33.36c0,0,0.02,0.22-0.64,0.11c-0.66-0.11-3.56-0.65-4.5-0.85c-0.95-0.19-2.84-0.86-3.18-1.01
				c-0.34-0.15-0.65-1.03-0.65-1.03s-0.83-0.65-1.1-0.67c0.06-0.04,0.14-0.08,0.24-0.12c0.54-0.22,2.63-1.49,2.75-1.51
				c0.12-0.02,1.13-0.32,1.3-0.34c0.17-0.02,1.76,0.07,2.16,0.22c0.4,0.15,1.94,0.87,2.08,1.19c0.15,0.32,0.47,0.62,0.95,1.03
				c0.44,0.37,2.55,1.4,2.64,1.8C34.86,32.75,33.6,33.36,33.6,33.36z"/>
			<path class="st28" d="M35.79,30.41c0,0-1.01,0.74-1.17,1.05c-0.16,0.31-0.37,1.07-0.44,1.19c-0.07,0.12-0.86,1.05-0.91,1.13
				c-0.05,0.08,0.01,0.26,0.01,0.26s0.36,0.06,0.52-0.02c0.16-0.08,0.39-0.25,0.39-0.25s0.43,0.05,0.65,0.04
				c0.22-0.01,0.97,0.13,1.17,0.03c0.2-0.1,0.59-1.32,0.92-1.73c0.33-0.41,1.26-1.77,1.77-2.16c0.51-0.38,3.4-4.02,3.79-5.06
				c0.39-1.04,1.51-3.5,1.68-5.22c0.17-1.72-0.67-2.49-1.19-2.23c-0.52,0.26-1.67,1.06-1.97,1.84c-0.3,0.77-0.93,3.2-1.04,3.67
				s-0.14,1.04-0.14,1.04s-1.8,3.37-2.91,4.96C36.04,30.2,35.79,30.41,35.79,30.41z"/>
			<path class="st28" d="M35.53,30.78c0,0-0.52,0.09-1.05,0.23c-0.53,0.14-0.81,0.48-0.93,0.55c-0.12,0.08-0.62,0.54-0.69,0.56
				c-0.07,0.03-0.57,0.09-0.67,0.19c-0.1,0.1-0.18,0.39-0.04,0.43c0.14,0.04,0.78-0.08,0.78-0.08l0.99-0.55l0.27,0.1
				c0,0,0.37,0.15,0.87-0.21C35.57,31.63,36.11,30.81,35.53,30.78z"/>
			<path class="st9" d="M44.3,12.19c0,0-1.87-0.32-2.47,1.72c-0.42,1.44-1.3,5.65-1.3,5.65s1.69,0.74,3.07,0.69
				c1.38-0.04,1.83-0.32,1.83-0.32s-0.38-5.27-0.4-5.97C45,13.26,45.21,12.74,44.3,12.19z"/>
		</g>
		<g>
			<path id="XMLID_157_" class="st10" d="M10.14,28.33l4.82,2.82c0.75,0.44,1.69,0.44,2.44,0.01l7.38-4.26
				c0.6-0.35,0.61-1.21,0.01-1.57l-4.73-2.86c-0.76-0.46-1.7-0.47-2.47-0.02l-7.45,4.3C9.54,27.11,9.53,27.98,10.14,28.33z"/>
			<path class="st9" d="M10.14,27.69l4.82,2.82c0.75,0.44,1.69,0.44,2.44,0.01l7.38-4.26c0.2-0.11,0.32-0.28,0.39-0.47
				c0.15,0.39,0.02,0.87-0.39,1.11l-7.38,4.26c-0.76,0.44-1.69,0.43-2.44-0.01l-4.82-2.82c-0.41-0.24-0.53-0.72-0.39-1.11
				C9.82,27.41,9.95,27.58,10.14,27.69z"/>
			<path id="XMLID_158_" class="st121" d="M10.14,27.32l4.82,2.82c0.75,0.44,1.69,0.44,2.44,0.01l7.38-4.26
				c0.6-0.35,0.61-1.21,0.01-1.57l-4.73-2.86c-0.76-0.46-1.7-0.47-2.47-0.02l-7.45,4.3C9.54,26.09,9.53,26.96,10.14,27.32z"/>
			<path class="st122" d="M10.14,26.68l4.82,2.82c0.75,0.44,1.69,0.44,2.44,0.01l7.38-4.26c0.2-0.11,0.32-0.28,0.39-0.47
				c0.15,0.39,0.02,0.87-0.39,1.11l-7.38,4.26c-0.76,0.44-1.69,0.43-2.44-0.01l-4.82-2.82c-0.41-0.24-0.53-0.72-0.39-1.11
				C9.82,26.4,9.95,26.57,10.14,26.68z"/>
			<path id="XMLID_159_" class="st123" d="M10.14,26.3l4.82,2.82c0.75,0.44,1.69,0.44,2.44,0.01l7.38-4.26
				c0.6-0.35,0.61-1.21,0.01-1.57l-4.73-2.86c-0.76-0.46-1.7-0.47-2.47-0.02l-7.45,4.3C9.54,25.07,9.53,25.95,10.14,26.3z"/>
			<path class="st124" d="M10.14,25.66l4.82,2.82c0.75,0.44,1.69,0.44,2.44,0.01l7.38-4.26c0.2-0.11,0.32-0.28,0.39-0.47
				c0.15,0.39,0.02,0.87-0.39,1.11l-7.38,4.26c-0.76,0.44-1.69,0.43-2.44-0.01l-4.82-2.82c-0.41-0.24-0.53-0.72-0.39-1.11
				C9.82,25.38,9.95,25.55,10.14,25.66z"/>
			<g>
				<path id="XMLID_163_" class="st125" d="M10.14,25.46l4.82,2.82c0.75,0.44,1.69,0.44,2.44,0.01l7.38-4.26
					c0.6-0.35,0.61-1.21,0.01-1.57l-4.73-2.86c-0.76-0.46-1.7-0.47-2.47-0.02l-7.45,4.3C9.54,24.23,9.53,25.1,10.14,25.46z"/>
				<path class="st126" d="M10.14,24.82l4.82,2.82c0.75,0.44,1.69,0.44,2.44,0.01l7.38-4.26c0.2-0.11,0.32-0.28,0.39-0.47
					c0.15,0.39,0.02,0.87-0.39,1.11l-7.38,4.26c-0.76,0.44-1.69,0.43-2.44-0.01l-4.82-2.82c-0.41-0.24-0.53-0.72-0.39-1.11
					C9.82,24.54,9.95,24.71,10.14,24.82z"/>
				<path id="XMLID_162_" class="st127" d="M15.84,23.66l-0.14-0.77c0,0-1.64,0.52-3.17,0.45c-1.26-0.05-1.8-0.18-1.8-0.18
					l-0.53,0.61C10.19,23.76,13.13,24.73,15.84,23.66z"/>
				<path id="XMLID_161_" class="st127" d="M16.13,22.56l1.03,0.16c0,0,0.63-0.7,0.41-1.64c-0.07-0.3-0.37-0.99-0.47-1.1l-0.96,0.08
					C16.13,20.07,17.45,21.49,16.13,22.56z"/>
			</g>
		</g>
		<path class="st8" d="M32.54,18.55c-0.13,0.6-0.25,1.11-0.3,1.21c-0.13,0.27-1.82,3.52-2.35,4.46c-0.53,0.95-1.57,2.96-1.57,3.18
			c-0.01,0.22-0.21,0.78-0.21,0.78l-0.35-0.03c0,0-0.2,0.18-0.34,0.26c-0.15,0.08-0.64,0.45-1.01,0.46
			c-0.37,0.01-0.52-0.25-0.52-0.25s-0.62,0.42-0.71,0.48c-0.09,0.06-0.69,0.31-0.71,0.31c0.01-0.05,0.11-0.3,0.16-0.4
			c0.05-0.09,0.92-1.16,1.09-1.41c0.17-0.25,0.84-0.42,1-0.68c0.15-0.27,2.22-7.86,2.61-8.53c0.39-0.68,0.71-1.23,0.99-2.4
			c0.27-1.17,1.15-3.37,1.15-3.37c0.31-0.04,0.57,0,0.78,0.1c-0.23,1.35-0.34,2.69-0.16,3.98C32.19,17.61,32.37,18.14,32.54,18.55z"
			/>
		<path class="st9" d="M32.23,12.74c0.12-0.7,0.27-1.4,0.42-2.1c0.14-0.61,0.35-1.18,0.7-1.63c-0.25,0.06-0.61,0.17-0.78,0.35
			c-0.28,0.3-1.12,2.03-1.34,2.57c-0.22,0.53-0.64,1.28-0.64,1.32c0,0.04,0.33,0.5,0.27,0.56c-0.06,0.07-0.29,0.49-0.19,0.93
			c0.1,0.44,0.85,1.03,1.21,1.29c0.05,0.03,0.09,0.05,0.13,0.08C31.93,15.01,32.04,13.88,32.23,12.74z"/>
		<path class="st11" d="M32.88,4.81c0,0-0.75,0.75-0.73,2.34c0.03,1.59,1.21,3.65,1.21,3.65s0.05,0.75,0.24,0.84
			c0.19,0.09,0.5-0.19,0.5-0.19s0.74,0.95,1.36,0.85c0.63-0.1,1.64-0.86,2.15-1.39c0.51-0.52,0.92-1.8,1.04-2.25s0.5-3.45-1.85-3.85
			C34.45,4.41,32.88,4.81,32.88,4.81z"/>
		<path class="st12" d="M36.96,2.85c0,0-2.64-0.58-3.51,0.48c-0.87,1.05-1.54,2.16-1.62,3.06c-0.09,0.9,0.23,1.67,0.23,1.67
			l0.1,0.19c0,0-0.26-0.95,0.45-0.64c0.71,0.31,2.25,0.39,2.76,0.15c0.51-0.24,0.97-0.38,0.97-0.38s0.75,0.82,0.89,1.08
			c0.14,0.27,0.59,0.39,0.44,1.08c-0.15,0.69-0.13,0.84-0.13,0.84s0.39-1.05,0.45-1.41s-0.06-0.4,0.17-0.88
			c0.24-0.47,0.64,0.37,0.64,0.37s0.66-0.32,0.63-2.03C39.39,4.72,38.65,3.27,36.96,2.85z"/>
		<path class="st12" d="M38.54,7.48c0,0,0.11,1.31,0.13,1.73C38.68,9.64,38.88,10,38.88,10l0.46,0.17l0.37-0.46
			c0,0,0.64,0.04,0.81-0.04c0.17-0.08,0.41-0.32,0.41-0.32s-0.62-0.94-0.89-1.39c-0.27-0.45-0.57-1.93-0.72-2.5
			C39.16,4.89,36.8,4.29,38.54,7.48z"/>
		<path class="st28" d="M27.27,27.32c0,0-0.49,0.07-0.81,0.49c-0.31,0.42-0.77,1.39-0.75,1.51c0.02,0.13,0.39,0.35,0.59,0.22
			c0.2-0.13,0.53-0.7,0.53-0.7s0.56-0.35,0.78-0.56c0.22-0.2,0.29-0.25,0.29-0.35C27.89,27.84,28.06,27.14,27.27,27.32z"/>
	</g>
	<polygon id="XMLID_160_" class="st128" points="18.85,33.7 32.32,41.47 32.32,35.95 18.85,28.18 	"/>
	<polygon id="XMLID_125_" class="st129" points="22.85,34.37 28.32,37.53 28.32,35.28 22.85,32.12 	"/>
	<polygon class="st117" points="40.69,31.06 40.69,36.58 32.32,41.47 32.32,35.95 33.96,34.99 33.96,35 34.52,36.33 38.77,33.88 
		39.32,31.86 	"/>
	<polygon class="st114" points="33.67,34.72 33.96,34.99 32.32,35.95 18.85,28.18 19.63,28.18 32.32,35.5 	"/>
	<polygon class="st114" points="40.69,31.06 39.32,31.86 38.98,31.62 39.92,31.07 	"/>
	<polygon class="st114" points="39,31.64 38.46,33.62 34.37,35.98 34.51,36.33 38.77,33.88 39.32,31.86 	"/>
	<polygon class="st114" points="25.53,24.32 24.99,26.29 20.9,28.66 21.05,29.01 25.3,26.55 25.85,24.54 	"/>
	<polygon class="st17" points="32.32,41.47 28.73,41.47 15.07,33.51 18.85,31.29 18.85,33.7 	"/>
</g>
</svg>
