<?xml version="1.0" encoding="utf-8"?>
<!-- Generator: Adobe Illustrator 24.1.1, SVG Export Plug-In . SVG Version: 6.00 Build 0)  -->
<svg version="1.1" id="Layer_1" xmlns="http://www.w3.org/2000/svg" xmlns:xlink="http://www.w3.org/1999/xlink" x="0px" y="0px"
	 viewBox="0 0 50 72" style="enable-background:new 0 0 50 72;" xml:space="preserve">
<style type="text/css">
	.st0{display:none;}
	.st1{display:inline;fill:#B1B4B6;}
	.st2{display:inline;}
	.st3{fill:#B1B4B6;}
	.st4{fill:#6B2B15;}
	.st5{fill:#333232;}
	.st6{fill:#414141;}
	.st7{fill:#4E4E4E;}
	.st8{fill:#F5B486;}
	.st9{fill:#3D7EC1;}
	.st10{fill:#649CD4;}
	.st11{fill:#FBD1B4;}
	.st12{fill:#6B3221;}
	.st13{fill:#606060;}
	.st14{fill:#939394;}
	.st15{fill:#D9D9D8;}
	.st16{fill:#8D919C;}
	.st17{fill:#79311D;}
	.st18{fill:#EB9954;}
	.st19{fill:#D26E45;}
	.st20{fill:#3F617B;}
	.st21{fill:#FFFFFF;}
	.st22{fill:#B14933;}
	.st23{display:inline;fill:#063347;}
	.st24{display:inline;fill:#79311D;}
	.st25{display:inline;fill:#FCCD45;}
	.st26{display:inline;fill:#A54C24;}
	.st27{display:inline;fill:#CD7528;}
	.st28{fill:#FEDDC7;}
	.st29{fill:#EFF2EF;}
	.st30{display:inline;fill:#FEDDC7;}
	.st31{fill:url(#SVGID_1_);}
	.st32{fill:url(#SVGID_2_);}
	.st33{fill:#CC6528;}
	.st34{fill:#BBBBBB;}
	.st35{fill:#FEEE47;}
</style>
<g class="st0">
	<polygon id="XMLID_124_" class="st1" points="2.03,54.42 25.79,68.13 40.56,59.5 16.8,45.79 	"/>
	<polygon class="st1" points="39.57,60.08 42.42,59.87 41.41,60.62 37.06,60.73 	"/>
	<polygon class="st1" points="27.44,66.82 31.18,66.76 29.32,67.45 25.82,67.62 	"/>
	<g id="XMLID_122_" class="st2">
		<polygon id="XMLID_123_" class="st3" points="27.88,68.2 28.67,68.67 30.7,68.79 44.68,59.43 42.88,59.43 		"/>
	</g>
	<g id="XMLID_120_" class="st2">
		<polygon id="XMLID_121_" class="st3" points="3.85,54.08 4.65,54.55 6.68,54.67 20.65,45.31 18.85,45.31 		"/>
	</g>
	<g class="st2">
		<g>
			<path class="st4" d="M34.25,44.25c0,0-0.57,0.6-0.89,0.87c-0.32,0.27-1.23,0.64-1.47,0.71c-0.24,0.07-1.29,0.58-1.39,0.83
				c-0.1,0.26-0.14,1.07,0,1.48c0.14,0.42,0.92,0.38,1.15,0.32c0.23-0.06,1.26-0.66,1.33-0.68c0.07-0.02,0.87-0.63,1.46-0.67
				c0.59-0.05,1.6-0.07,2.02-0.41c0.42-0.34,0.22-1.75,0.22-1.75l-0.05-1.01L34.25,44.25z"/>
			<path class="st5" d="M35.37,34.59l-0.27,1.5c0,0-0.39,4.36-0.58,5.53c-0.19,1.17-0.49,2.64-0.49,2.9c0,0.26,0.7,0.77,1.46,0.7
				c0.77-0.07,0.99-0.45,1.29-0.87c0.3-0.42,0.97-3.59,1.32-4.44c0.35-0.85,0.87-4.33,0.77-4.99
				C38.76,34.26,35.37,34.59,35.37,34.59z"/>
			<path class="st4" d="M37.96,45.16c0,0-0.15,1.32-0.46,1.54c-0.31,0.22-2.19,2.08-2.39,2.25c-0.2,0.17-1.09,0.63-0.68,1.14
				c0.41,0.51,1.07,0.56,1.32,0.6c0.26,0.05,1.45,0.05,1.5,0.07c0.05,0.02,1.22-0.92,1.43-1.29c0.21-0.37,0.65-1.08,0.96-1.17
				s0.78-0.39,0.78-0.7s-0.05-1.77-0.05-1.84C40.36,45.69,37.96,45.16,37.96,45.16z"/>
			<path class="st6" d="M34.63,24.94c0,0-0.42,1.99-0.23,4.8c0.19,2.81,0.56,5.6,0.7,6.35c0.14,0.75,2.23,0.96,3.08,0.24
				c0.86-0.72,1.74-6.05,1.74-6.05s0.58-4.54,0-5.91C39.34,22.99,35.45,23.18,34.63,24.94z"/>
			<path class="st7" d="M36.63,24.48c0,0,0.28,1.92,1.28,3.01c1,1.09,1.21,1.39,1.21,1.39s-0.53,5.92-0.83,7.1
				c-0.3,1.18,0.47,2.74,1.9,2.74s2.55-1.79,2.93-2.81c0.38-1.02,0.8-2.97,1.66-4.66c0.86-1.69,1.48-4.41,1.28-5.82
				c-0.21-1.41-0.94-2.54-1.53-3.14C43.93,21.69,36.63,24.48,36.63,24.48z"/>
			<path class="st7" d="M38.22,36.67c0,0,0.01,3.36,0,4.19c-0.01,0.83-0.45,4.75-0.45,4.75s0.4,0.77,1.12,0.9
				c0.72,0.14,1.62-0.51,1.62-0.51s1.32-3.94,1.62-4.75c0.3-0.81,0.65-4.24,0.63-4.59C42.73,36.32,39.04,35.87,38.22,36.67z"/>
			<path class="st8" d="M30.78,12.99c0,0-0.63,0.64-1.06,1.83c-0.43,1.18-1.11,2.23-1.48,2.57c-0.37,0.35-0.75,0.87-0.75,0.87
				s-1.03,0.96,0.49,1.77c1.51,0.82,1.37,1.25,2.09,0.24c0.73-1.01,1.32-2.3,1.54-2.52c0.23-0.23,1.9-2.8,2-3.18
				c0.1-0.38-0.05-1.65-0.61-1.84C32.45,12.54,30.78,12.99,30.78,12.99z"/>
			<path class="st9" d="M35.01,9.9c0,0-2.09,0.09-3.11,1.1c-1.03,1.01-1.57,2.37-1.81,2.78c-0.13,0.22,0.71,0.42,1.48,0.92
				c0.72,0.47,1.37,1.27,1.69,1.15C33.91,15.6,35.01,9.9,35.01,9.9z"/>
			<path class="st10" d="M36.17,9.61c0,0-2.46,0.68-3.04,2.51c-0.58,1.83-0.21,5.97-0.07,6.46c0.14,0.49,1.12,2.3,1.43,3.78
				s0.08,2.41,0.15,2.57c0.07,0.16,0.97,1.44,3.96,1.55c2.99,0.12,3.9-0.46,5.24-1.48c1.34-1.02,0.53-3.25,0.53-3.25
				s-0.79-1.04-0.83-2.57c-0.05-1.53,0.01-4.81-0.24-5.39c-0.25-0.58-3.07-2.91-4.72-3.44C36.93,9.82,36.17,9.61,36.17,9.61z"/>
			<path class="st8" d="M34.63,11.88c0,0,0.93,1.3,0.9,2.23c-0.02,0.93,0.67,1.23,1.81,0.81c1.14-0.42,1.62-0.53,1.97-1.43
				c0.35-0.89-0.74-2.14-0.74-3.14c0-1-0.35-1.74-0.67-1.58C37.58,8.94,34.63,11.88,34.63,11.88z"/>
			<path class="st11" d="M39.72,18.24c0,0-0.47,1.91-0.71,2.43c-0.24,0.52-1.51,3.28-1.57,3.82c-0.06,0.54,2.09,2.11,2.1,2.1
				c0.01-0.02,0.8-0.88,1.2-1.61c0.4-0.73,1.55-2.71,1.72-3.43c0.17-0.71,0.64-2.3,0.64-2.3L39.72,18.24z"/>
			<path class="st11" d="M33.89,5.18c0.69-0.3,1.47-0.38,2.21-0.42c0.62-0.03,1.56-0.17,2.09,0.23c0.16,0.12,0.22,0.37,0.28,0.55
				c0.26,0.77,0.37,1.58,0.42,2.39c0.03,0.41,0.04,0.82,0.05,1.22c0,0.31-0.1,0.5-0.21,0.79c-0.35,0.98-0.98,2.3-2.04,2.68
				c-0.97,0.35-1.83,0.63-2.67,0.37c-0.83-0.26-1.18-1.37-1.51-2.83c-0.32-1.46-0.53-1-0.44-2.34S32.2,5.93,33.89,5.18z"/>
			<path class="st12" d="M38.53,4.28c0,0-0.78-0.68-2.31-0.82c-1.53-0.14-2.24,0.35-2.97,1.18c-0.73,0.83-1.26,1.69-1.26,2.26
				s0.09,0.93,0.09,0.93s0.54-0.35,1.09-0.09c0.54,0.26,1.38,0.36,1.88,0.2c0.5-0.16,1.75,0.59,1.75,0.59s0.45,0.6,0.54,1.16
				c0.09,0.56,0.46,1.82,1.39,0.27c0.93-1.55,1.07-3.14,0.84-3.82C39.34,5.46,38.85,4.67,38.53,4.28z"/>
		</g>
		<path class="st12" d="M37.16,9.12c0,0,0.84,2.33,0.84,2.81c0,0.49-0.01,2,0.19,2.3c0.19,0.3,3.23-1.48,4.17-1.35
			c0.12,0.02,0.83,0.78,0.83,0.78s-0.25-0.88-0.95-1.96c-0.7-1.08-1.34-1.66-1.85-2.94c-0.51-1.28-0.97-2.5-0.97-2.5L37.16,9.12z"/>
		<path class="st9" d="M40.6,13.62c0,0-1.42,1.5-1.42,2.74s-0.16,2.79-0.16,2.99c0,0.21,1.85-0.16,2.5-0.14
			c0.65,0.02,1.67,0.28,1.58,0.65c-0.09,0.37,0.84-1.44,0.68-3.34C43.62,14.62,44.12,12.32,40.6,13.62z"/>
	</g>
	<g class="st2">
		<g id="XMLID_248_">
			<g id="XMLID_253_">
				<polygon id="XMLID_254_" class="st13" points="5.55,54.26 6.35,54.73 6.35,54.02 5.55,53.55 				"/>
			</g>
			<g id="XMLID_251_">
				<polygon id="XMLID_252_" class="st14" points="6.35,54.73 21.35,45.96 21.35,45.25 6.35,54.02 				"/>
			</g>
			<g id="XMLID_249_">
				<polygon id="XMLID_250_" class="st15" points="5.55,53.55 6.35,54.02 21.35,45.25 20.55,44.78 				"/>
			</g>
		</g>
		<polygon id="XMLID_240_" class="st14" points="6.86,53.7 7.54,53.32 7.54,27.67 6.86,28.05 		"/>
		<polygon id="XMLID_239_" class="st13" points="6.14,53.26 6.86,53.7 6.86,28.05 6.14,27.67 		"/>
		<polygon id="XMLID_238_" class="st16" points="20.32,45.81 20.99,45.42 20.99,19.77 20.32,20.16 		"/>
		<polygon id="XMLID_237_" class="st13" points="19.59,45.37 20.32,45.81 20.32,20.16 19.59,19.77 		"/>
		<g id="XMLID_202_">
			<g id="XMLID_215_">
				<polygon id="XMLID_224_" class="st13" points="29.91,68.32 30.7,68.79 30.7,68.08 29.91,67.61 				"/>
			</g>
			<g id="XMLID_208_">
				<polygon id="XMLID_210_" class="st14" points="30.7,68.79 45.7,60.02 45.7,59.31 30.7,68.08 				"/>
			</g>
			<g id="XMLID_206_">
				<polygon id="XMLID_207_" class="st15" points="29.91,67.61 30.7,68.08 45.7,59.31 44.9,58.84 				"/>
			</g>
		</g>
		<polygon id="XMLID_191_" class="st14" points="31.22,67.76 31.89,67.38 31.89,41.73 31.22,42.11 		"/>
		<polygon id="XMLID_190_" class="st13" points="30.49,67.32 31.22,67.76 31.22,42.11 30.49,41.73 		"/>
		<polygon id="XMLID_189_" class="st14" points="44.68,59.87 45.35,59.49 45.35,33.84 44.68,34.22 		"/>
		<polygon id="XMLID_132_" class="st13" points="43.95,59.43 44.68,59.87 44.68,34.22 43.95,33.84 		"/>
		<polygon id="XMLID_131_" class="st17" points="4.8,31.18 31.11,46.36 31.11,43.18 4.8,28 		"/>
		<polygon id="XMLID_130_" class="st18" points="4.8,28 31.11,43.18 47.45,33.63 21.15,18.45 		"/>
		<polygon id="XMLID_169_" class="st19" points="4.8,28 31.11,42.47 46.43,33.7 21.15,18.45 		"/>
		<polygon class="st20" points="45.35,33.43 30.16,42.31 5.72,28.21 20.91,19.33 29.03,24.01 31.24,25.29 37.62,28.98 40.09,30.4 		
			"/>
		<g>
			<g>
				<path class="st21" d="M31.69,39.84l-0.05-0.02L8.02,27.98l12.61-7.28l0.05,0.04l20.52,13.78l-4.19,2.42l-16.61-9.47l-0.38,0.22
					l16.56,9.34L31.69,39.84z M8.45,27.97l23.23,11.64l4.49-2.59l-16.55-9.34l0.79-0.46l16.61,9.47l3.8-2.19l-20.2-13.56L8.45,27.97
					z"/>
			</g>
			<g>
				<path class="st21" d="M14.64,30.29l-2.93-1.69l3.59-2.08l2.87,1.66l-0.69,1.73L14.64,30.29z M12.12,28.6l2.56,1.48l2.66-0.35
					l0.58-1.45l-2.62-1.51L12.12,28.6z"/>
			</g>
			<g>
				<path class="st21" d="M21.11,26.56l-2.93-1.69l3.59-2.08l2.87,1.66l-0.69,1.73L21.11,26.56z M18.59,24.87l2.56,1.48l2.66-0.35
					l0.58-1.45l-2.62-1.51L18.59,24.87z"/>
			</g>
		</g>
		<polygon id="XMLID_126_" class="st22" points="31.11,46.36 47.45,36.81 47.45,33.63 31.11,43.18 		"/>
	</g>
	<polygon class="st23" points="33.02,38.03 31.89,38.03 11.92,27.2 12.97,26.45 14.7,26.34 	"/>
	<path class="st24" d="M41.2,30.03c0,0-0.46,0.15-1.11,0.37l-2.47-1.42l0.94-0.47L41.2,30.03z"/>
	<path class="st23" d="M40.09,30.4c-1.09,0.36-2.69,0.92-3.37,1.22c-1.07,0.49-2.17,1.69-3.3,2.42c-1.13,0.74-2.54,0.46-2.54,0.46
		l-1.23-0.67l4-2.88l3.98-1.97L40.09,30.4z"/>
	<path class="st24" d="M32.24,24.85c0,0-0.43,0.19-1,0.44l-2.21-1.28c0.59-0.25,1.04-0.41,1.04-0.41L32.24,24.85z"/>
	<path class="st23" d="M31.24,25.29c-0.83,0.36-1.96,0.84-2.55,1.04c-1,0.35-2.23,3.56-2.23,3.56l-1.94,1.15c0,0-1.04-0.5-1.15-0.87
		c-0.12-0.36,2.51-4.06,3.25-4.82c0.44-0.46,1.56-0.98,2.4-1.34L31.24,25.29z"/>
	<polygon class="st25" points="34.55,36.51 33.02,37.38 12.97,26.45 14.43,25.53 	"/>
	<polygon class="st26" points="33.02,37.38 33.02,38.03 12.97,27.09 12.97,26.45 	"/>
	<polygon class="st27" points="34.55,36.51 34.55,37.16 33.02,38.03 33.02,37.38 	"/>
	<g class="st2">
		<path class="st11" d="M29.16,19.57c0,0-1.14-1.15-1.91-0.96c-0.92,1.38-1.57,3.66-1.95,5.09c-0.38,1.43-0.75,2.69-0.9,2.82
			c-0.15,0.13-0.43,0.29-0.58,0.32c-0.15,0.03-0.48,0.12-0.59,0.15c-0.12,0.03-0.3,0.29-0.36,0.44c-0.06,0.15-0.39,1.33-0.42,1.47
			c-0.02,0.14,0.17,0.57,0.17,0.57l0.46,0.29c0,0,0.1,0.29,0.15,0.36c0.05,0.07,0.13,0.07,0.13,0.07s0.12,0.46,0.37,0.51
			c0.26,0.05,0.42-0.24,0.42-0.24l0.2-0.34c0,0,0.6-0.52,0.97-0.96c0.37-0.44,0.53-0.49,0.58-0.72c0.05-0.23,0.2-0.9,0.38-1.4
			c0.19-0.5,0.74-1.8,0.95-2.23c0.21-0.43,2.6-3.74,2.57-4.17C29.78,20.19,29.16,19.57,29.16,19.57z"/>
		<path class="st28" d="M25.23,26.96c0,0-0.85,0.1-0.94,0.27s-0.72,1.17-0.75,1.4c-0.03,0.23-0.17,1.56-0.17,1.56
			s0.12,0.65,0.44,0.61c0.32-0.03,0.46-0.54,0.46-0.54l-0.03-1.16c0,0,0.5-1.02,0.63-1.1C24.99,27.91,25.75,27.16,25.23,26.96z"/>
		<path class="st29" d="M24.9,28.01l0.19,0.51c0,0,0.86,3.1-0.38,2.55c-0.27-0.12-1.06-2.61-1.06-3
			C23.66,27.43,24.5,26.52,24.9,28.01z"/>
		<path class="st28" d="M37.32,24.54c-0.09,0.14-2.71,3.25-4.29,4.57c-1.58,1.32-2.08,1.79-2.34,1.87
			c-0.27,0.08-1.23,0.22-1.73,0.34c-0.5,0.12-1.72,0.89-1.89,0.99c-0.17,0.09-1.04,0.65-1.16,0.78c-0.12,0.13-0.36,0.49-0.37,0.52
			c-0.01,0.03-0.01,0.22,0,0.32c0.01,0.1,0.08,0.36,0.24,0.43c0.16,0.07,0.41,0,0.41,0s-0.07,0.23,0.22,0.32
			c0.29,0.09,0.54-0.03,0.54-0.03l0.28-0.1c0,0-0.07,0.41,0.19,0.45c0.26,0.05,0.79-0.07,0.79-0.07l1.53-0.64
			c0,0,0.74-0.02,1.29-0.32c0.55-0.3,1.08-0.96,1.08-0.96s0.95-1.06,2.61-1.97c1.66-0.92,4.39-3.98,4.66-4.15
			c0.27-0.17,0.5-1.59,0.22-2.01C39.32,24.46,37.42,24.41,37.32,24.54z"/>
	</g>
	<path class="st30" d="M25.13,28.02c0,0-0.01,0.02-0.04,0.06c-0.13,0.2-0.51,0.82-0.61,0.98c-0.12,0.19-0.41,0.54-0.41,0.67
		c0,0.13-0.06,0.55,0.28,0.37c0.34-0.17,1.42-1.46,1.52-1.58c0.1-0.12,0.17-0.37,0.15-0.6c-0.02-0.23,0-0.66,0-0.66
		S25.58,26.54,25.13,28.02z"/>
</g>
<g>
	<polygon id="XMLID_113_" class="st3" points="2.5,54.42 26.3,68.15 41.09,59.51 17.29,45.78 	"/>
	<polygon class="st3" points="27.63,66.98 31.37,66.92 29.51,67.61 26,67.78 	"/>
	<polygon class="st3" points="40.1,60.08 42.95,59.88 41.94,60.63 37.58,60.74 	"/>
	<g id="XMLID_111_">
		<polygon id="XMLID_112_" class="st3" points="28.39,68.22 29.19,68.69 31.22,68.81 45.21,59.44 43.41,59.43 		"/>
	</g>
	<g id="XMLID_114_">
		<polygon id="XMLID_119_" class="st3" points="4.33,54.08 5.13,54.55 7.16,54.66 21.15,45.29 19.35,45.29 		"/>
	</g>
	<g>
		<path class="st4" d="M34.73,45.36c0,0-0.86,0.91-0.98,1.02c-0.12,0.12-1.3,0.67-1.37,0.67c-0.07,0-1.04,0.19-1.14,0.33
			c-0.09,0.14-0.49,0.91-0.46,1.18c0.02,0.28,0.46,0.93,0.73,1.04c0.27,0.12,1.78-0.56,2.15-0.79c0.37-0.23,1.21-0.79,1.21-0.79
			s1.18-0.16,1.67-0.28c0.49-0.12,0.58-0.44,0.58-0.74c0-0.3,0.12-1.44-0.02-1.65C36.95,45.16,34.73,45.36,34.73,45.36z"/>
		<path class="st5" d="M35.53,36.3c0,0-0.61-0.2-0.63,0.8c-0.02,1-0.17,6.9-0.23,7.35c-0.06,0.45-0.27,1.06-0.13,1.36
			c0.14,0.3,2.07,0.84,2.49-0.24s0.99-3.45,1.17-4.63c0.17-1.18,0.07-4.08,0.07-4.08L35.53,36.3z"/>
		<path class="st4" d="M38.7,46.53c0,0-0.61,1.28-0.63,1.49c-0.02,0.21-1.47,2.11-1.7,2.3c-0.23,0.19-0.51,1.09-0.46,1.25
			c0.05,0.16,1.3,0.42,1.58,0.42c0.28,0,1.16,0.12,1.42-0.19s0.77-0.84,0.88-1.32c0.12-0.49,0.53-1.44,0.65-1.53
			c0.12-0.09,0.49-0.63,0.51-0.86c0.02-0.23,0-1.46,0-1.46L38.7,46.53z"/>
		<path class="st6" d="M34.06,23.97c0,0-1.1,1.18-0.5,5.55c0.6,4.37,1.03,7.16,1.41,7.72c0.38,0.56,2.01,0.7,2.99,0
			s1.39-6.27,1.39-7.45s0.03-5.22-0.93-5.99C37.48,23.03,34.06,23.97,34.06,23.97z"/>
		<path class="st7" d="M36.05,25.37c0,0,0.62,2.72,1.03,3.39s1.35,1.26,1.35,1.26s-0.38,4.68-0.43,6.47
			c-0.05,1.79,0.05,2.62,1.21,2.79s2.53-0.14,3.18-1.02c0.65-0.88,1.93-6.38,2.28-7.66c0.35-1.28,0.81-3.07,0.35-5.23
			c-0.46-2.16-4.2-2.23-4.2-2.23L36.05,25.37z"/>
		<path class="st7" d="M42.11,43.37c0,0-0.88,2.86-1.04,3.37c-0.16,0.51-0.44,0.74-0.44,0.74s-1.44,0.44-2.12-0.79
			c0.14-1.79-0.19-6.28-0.44-8.5c2.11-2.48,4.5-0.24,4.5-0.24s-0.13,3.13-0.18,3.71C42.34,42.23,42.11,43.37,42.11,43.37z"/>
		<path class="st10" d="M43.6,13.44c0,0-0.95-1.18-2.67-1.88c-1.72-0.7-5.06-1.74-5.41-1.7c-0.35,0.05-1.75-0.07-2.37,0.86
			c-0.62,0.93-0.44,4.97-0.44,5.57c0,0.6-0.38,1-0.03,3.27c0.15,0.94,0.6,1.81,0.8,2.65c0.27,1.19,0.26,2.22,0.28,2.5
			c0.02,0.49,0.98,2.79,5.06,3.09c4.09,0.3,5.81-3.23,5.48-3.72c-0.33-0.49-1.02-1.76-1.02-2.3s0.92-3.76,0.91-5.71
			C44.16,14.13,43.6,13.44,43.6,13.44z"/>
	</g>
	<g>
		<g id="XMLID_305_">
			<g id="XMLID_310_">
				<polygon id="XMLID_311_" class="st13" points="6.03,54.26 6.83,54.72 6.83,54.02 6.03,53.55 				"/>
			</g>
			<g id="XMLID_308_">
				<polygon id="XMLID_309_" class="st14" points="6.83,54.72 21.85,45.94 21.85,45.23 6.83,54.02 				"/>
			</g>
			<g id="XMLID_306_">
				<polygon id="XMLID_307_" class="st15" points="6.03,53.55 6.83,54.02 21.85,45.23 21.05,44.76 				"/>
			</g>
		</g>
		<polygon id="XMLID_297_" class="st14" points="7.34,53.7 8.02,53.31 8.02,27.63 7.34,28.01 		"/>
		<polygon id="XMLID_296_" class="st13" points="6.61,53.26 7.34,53.7 7.34,28.01 6.61,27.63 		"/>
		<polygon id="XMLID_295_" class="st16" points="20.82,45.79 21.49,45.41 21.49,19.72 20.82,20.11 		"/>
		<polygon id="XMLID_294_" class="st13" points="20.09,45.35 20.82,45.79 20.82,20.11 20.09,19.72 		"/>
		<g id="XMLID_273_">
			<g id="XMLID_285_">
				<polygon id="XMLID_286_" class="st13" points="30.42,68.34 31.22,68.81 31.22,68.1 30.42,67.63 				"/>
			</g>
			<g id="XMLID_283_">
				<polygon id="XMLID_284_" class="st14" points="31.22,68.81 46.24,60.03 46.24,59.31 31.22,68.1 				"/>
			</g>
			<g id="XMLID_281_">
				<polygon id="XMLID_282_" class="st15" points="30.42,67.63 31.22,68.1 46.24,59.31 45.44,58.84 				"/>
			</g>
		</g>
		<polygon id="XMLID_272_" class="st14" points="31.74,67.78 32.41,67.39 32.41,41.71 31.74,42.09 		"/>
		<polygon id="XMLID_271_" class="st13" points="31.01,67.34 31.74,67.78 31.74,42.09 31.01,41.71 		"/>
		<polygon id="XMLID_270_" class="st14" points="45.21,59.88 45.89,59.49 45.89,33.8 45.21,34.19 		"/>
		<polygon id="XMLID_269_" class="st13" points="44.48,59.43 45.21,59.88 45.21,34.19 44.48,33.8 		"/>
		<polygon id="XMLID_268_" class="st17" points="5.28,31.14 31.62,46.35 31.62,43.16 5.28,27.96 		"/>
		<polygon id="XMLID_267_" class="st18" points="5.28,27.96 31.62,43.16 47.99,33.6 21.65,18.4 		"/>
		<polygon id="XMLID_170_" class="st19" points="5.28,27.96 31.62,42.45 46.97,33.67 21.65,18.4 		"/>
		<polygon class="st22" points="26.19,40.03 40.05,32.51 41.87,31.23 24.7,30.89 21.53,32.4 24.29,29.76 30.72,27.15 32.71,26.05 
			8.98,30.1 		"/>
		<path class="st17" d="M25.94,35.33c0,0,0.29-0.02,0.46,0.04c0.17,0.06,0.92,0,1.44-0.26c0.13,0.14,0.33,0.21,0.78,0.14
			c0.45-0.07,2.4-1.03,2.55-1.15c0.15-0.12,0.88-1,0.88-1l9.22-3.38l-2.48-1.43l-5.74,2.44l-5.06,2.72c0,0-1.37,0.06-1.48,0.22
			C26.4,33.82,25.52,35.07,25.94,35.33z"/>
		<polygon id="XMLID_266_" class="st22" points="31.62,46.35 47.99,36.78 47.99,33.6 31.62,43.16 		"/>
	</g>
	<linearGradient id="SVGID_1_" gradientUnits="userSpaceOnUse" x1="12.1321" y1="42.894" x2="24.568" y2="21.3544">
		<stop  offset="0.0118" style="stop-color:#DB9F28"/>
		<stop  offset="0.2142" style="stop-color:#DA9D28"/>
		<stop  offset="0.2872" style="stop-color:#D69728"/>
		<stop  offset="0.339" style="stop-color:#CF8D29"/>
		<stop  offset="0.365" style="stop-color:#CB862A"/>
		<stop  offset="0.3676" style="stop-color:#CE8D2B"/>
		<stop  offset="0.3767" style="stop-color:#D9A430"/>
		<stop  offset="0.3871" style="stop-color:#E3BA36"/>
		<stop  offset="0.3988" style="stop-color:#ECCC3B"/>
		<stop  offset="0.4124" style="stop-color:#F4DA40"/>
		<stop  offset="0.4294" style="stop-color:#F9E544"/>
		<stop  offset="0.4531" style="stop-color:#FDEC46"/>
		<stop  offset="0.5189" style="stop-color:#FEEE47"/>
	</linearGradient>
	<polygon class="st31" points="32.71,26.05 24.29,29.47 18.11,35.37 18.11,46.35 8.75,40.66 8.75,29.96 23.01,20.72 	"/>
	<linearGradient id="SVGID_2_" gradientUnits="userSpaceOnUse" x1="20.679" y1="47.7067" x2="33.1359" y2="26.1308">
		<stop  offset="0.0118" style="stop-color:#DB9F28"/>
		<stop  offset="0.2142" style="stop-color:#DA9D28"/>
		<stop  offset="0.2872" style="stop-color:#D69728"/>
		<stop  offset="0.339" style="stop-color:#CF8D29"/>
		<stop  offset="0.365" style="stop-color:#CB862A"/>
		<stop  offset="0.3676" style="stop-color:#CE8D2B"/>
		<stop  offset="0.3767" style="stop-color:#D9A430"/>
		<stop  offset="0.3871" style="stop-color:#E3BA36"/>
		<stop  offset="0.3988" style="stop-color:#ECCC3B"/>
		<stop  offset="0.4124" style="stop-color:#F4DA40"/>
		<stop  offset="0.4294" style="stop-color:#F9E544"/>
		<stop  offset="0.4531" style="stop-color:#FDEC46"/>
		<stop  offset="0.5189" style="stop-color:#FEEE47"/>
	</linearGradient>
	<polygon class="st32" points="41.87,31.23 26.03,39.82 26.03,50.8 16.67,45.11 16.67,34.42 24.7,30.6 33.97,26.61 	"/>
	<path class="st33" d="M40.05,30.17l-8,2.93c0,0-0.74,0.88-0.88,1c-0.15,0.12-2.09,1.08-2.55,1.15c-0.46,0.08-0.65,0-0.78-0.14
		c-0.52,0.26-1.27,0.33-1.44,0.26c-0.17-0.07-0.46-0.05-0.46-0.05c-0.42-0.25,0.46-1.5,0.57-1.66c0.11-0.15,1.48-0.22,1.48-0.22
		l5.06-2.73l4.61-1.96L40.05,30.17z"/>
	<path class="st11" d="M32.63,19.17c-0.36,0.92-0.78,1.9-0.89,2.12c-0.19,0.39-1.09,1.77-1.22,1.93c-0.13,0.16-1.82,2.62-1.82,2.93
		c0,0.32-0.41,0.91-0.41,0.91s0.19,0.07,0.35,0.09c0.16,0.02,0.06,0.39,0.06,0.39s0.14,0.13,0.17,0.15c0.04,0.02-0.17,0.4-0.17,0.4
		s-0.02,0.11-0.05,0.27c-0.02,0.16-0.65,0.56-0.65,0.56l-0.13,0.23l-0.53,0.26c0,0-0.26,0.09-0.4,0.02
		c-0.14-0.07-0.67-0.35-0.81-0.44c-0.14-0.09-0.33-0.38-0.33-0.42c-0.02-0.03-0.11-0.52-0.11-0.63c0-0.1-0.07-0.58,0-0.81
		c0.07-0.23,1.39-1.63,1.6-1.98c0.21-0.35,0.85-3.09,1.16-4.39c0.32-1.3,0.87-1.67,1.11-2.02c0.25-0.35,0.56-1.29,0.98-2.07
		c0.18-0.32,0.41-0.88,0.62-1.44c0.31-0.77,0.57-1.53,0.57-1.53s0.49-0.12,0.96-0.19c-0.03,0.98-0.01,1.94,0,2.46
		c0.01,0.14,0.01,0.25,0.01,0.31C32.71,16.86,32.37,17.24,32.63,19.17z"/>
	<path class="st9" d="M33.71,10.21c-0.22,0.12-0.42,0.29-0.57,0.51c-0.3,0.45-0.41,1.63-0.44,2.8c-0.03,0.98-0.01,1.94,0,2.46
		c-0.5-0.27-1.2-0.59-1.53-0.74c-0.11-0.05-0.18-0.08-0.18-0.08s0.05-0.32,0.26-1.14c0.21-0.83,0.6-1.53,1.28-2.76
		C33.15,10.11,33.64,10.18,33.71,10.21z"/>
	<polygon class="st34" points="26.48,28.16 25.8,28.59 21.35,29.71 20.85,30.03 25.34,29.29 26.48,28.63 26.87,28.11 	"/>
	<path class="st6" d="M27.96,27.33c0,0,0.36-0.24,0.39-0.53c0.03-0.29-0.21-0.68-0.45-0.74c-0.24-0.06-0.81,0.46-1.03,0.87
		c-0.22,0.41-0.12,0.6-0.22,0.82c-0.1,0.22-0.43,0.36-0.43,0.36l0.22,0.65l0.74-0.78L27.96,27.33z"/>
	<polygon class="st34" points="25.54,28.87 21.57,31.95 22.88,31.4 26.21,28.86 26.49,28.76 27.38,28.99 27.48,28.65 26.41,28.4 	
		"/>
	<path class="st6" d="M26.83,28.35l-0.19,0.62l0.55,0.15c0,0,0.15,0.56,0.81,0.35c0.66-0.21,0.67-1,0.58-1.19
		C28.49,28.1,26.83,28.35,26.83,28.35z"/>
	<path class="st11" d="M40.21,18.06c0,0-0.42,1.46-0.99,2.47c-0.57,1.01-1.5,2.42-1.79,3c-0.3,0.57-0.82,1.53-0.92,1.62
		c-0.1,0.09-1.24,1.23-2.53,2.68c-1.29,1.45-2.4,2.32-2.58,2.55c-0.17,0.23-1.24,1.06-1.48,1.17c-0.24,0.1-0.85,0.23-0.92,0.23
		c-0.07,0-0.7,0.31-1.03,0.56s-1.45,1.25-1.46,1.34c-0.02,0.09,0,0.33,0,0.33s-0.8,0.66-0.8,0.75c0,0.09,0,0.21,0,0.21
		s-0.07,0.23,0.12,0.33c0.19,0.1,0.47,0,0.47,0s0.14,0.15,0.52,0.05c0.38-0.1,1.06-0.39,1.06-0.39s0.14,0.35,0.56,0.28
		c0.42-0.07,2.14-0.98,2.4-1.06c0.26-0.09,0.73-0.63,0.85-0.94c0.12-0.31,0.19-0.45,0.26-0.52c0.07-0.07,3.13-2.09,4.68-3.52
		c1.55-1.43,1.9-2.06,2.4-2.46c0.51-0.4,2.02-2.71,2.58-3.57s1.97-3.56,2.02-4.3C43.69,18.1,40.21,18.06,40.21,18.06z"/>
	<path class="st9" d="M39.55,19.53c0,0,1.81-0.17,2.68,0c0.87,0.17,1.48,0.52,1.48,0.52s0.49-1.45,0.62-3.47s-0.32-2.63-0.97-3.15
		c-0.64-0.52-2.23-0.23-2.68,0.77s-1.11,2.48-1.13,3.34S39.55,19.53,39.55,19.53z"/>
	<path class="st28" d="M28.06,26.6c0,0-0.31-0.15-0.51,0.12c-0.2,0.27-0.27,0.84-0.27,0.84s0.01,0.87,0.14,0.94
		c0.13,0.07,0.55,0.13,0.58-0.09c0.03-0.22,0-0.92,0-0.92l0.15-0.65L28.06,26.6z"/>
	<path class="st8" d="M39.22,7.95c0,0-0.31,2.09,0,2.86c0.31,0.77,0.68,1.06,0.68,1.06s-0.92,1.83-1.6,2.14
		c-0.68,0.31-1.72,0.28-2.04-0.26c-0.31-0.54-0.94-2.4-0.98-2.84C35.25,10.47,39.22,7.95,39.22,7.95z"/>
	<path class="st11" d="M38.43,10.78c0,0-1.01,0.99-1.99,1.41c-0.98,0.42-1.38,0.1-1.55,0c-0.17-0.1-0.98-1.24-1.08-1.64
		c-0.1-0.4-0.49-1.76-0.56-2.12s-0.3-0.84-0.23-1.69c0.07-0.85,0.47-1.83,0.73-2.02c0.26-0.19,4.37-0.98,4.98,0
		c0.61,0.98,0.8,0.24,0.94,1.2C39.83,6.88,38.96,9.67,38.43,10.78z"/>
	<path class="st12" d="M37.74,7.84c0,0-1.01-1.43-1.53-1.41c-0.52,0.02-1.39,0.16-2.09,0c-0.7-0.16-0.95-0.44-0.95-0.44
		s-0.12-0.85,0.15-1.34c0.26-0.49,1.34-2.4,4.14-2.12c2.8,0.28,2.77,2.05,2.96,2.84c0.19,0.78,0.71,3.47,1.17,4.27
		c0.45,0.8,0.43,1.3,0.8,1.56c0.13,0.09,0.33,1.41,0.33,1.41s-1.07-0.77-1.37-0.67c-0.49,0.16-1.25,0.13-1.45-0.07
		c-0.19-0.2-0.93-0.64-0.81-1.92c0.12-1.28-0.17-1.62-0.17-1.62l-0.33,0.32c0,0,0.03,0.68,0.02,1.08c-0.02,0.4-0.28,0.8-0.28,0.8
		s0.14-1.08,0.1-1.46C38.4,8.68,38.1,8.62,37.74,7.84z"/>
	<path class="st11" d="M38.78,8.59c0,0,0.2-0.56,0.62-0.64c0.42-0.09,0.42,0.12,0.41,0.64c-0.02,0.52-0.59,1.13-0.59,1.13L38.78,9.5
		V8.59z"/>
	<polygon class="st35" points="24.05,29.61 26.21,29.95 20.96,32.46 	"/>
</g>
</svg>
