<?xml version="1.0" encoding="utf-8"?>
<!-- Generator: Adobe Illustrator 24.1.1, SVG Export Plug-In . SVG Version: 6.00 Build 0)  -->
<svg version="1.1" id="Layer_1" xmlns="http://www.w3.org/2000/svg" xmlns:xlink="http://www.w3.org/1999/xlink" x="0px" y="0px"
	 viewBox="0 0 50 72" style="enable-background:new 0 0 50 72;" xml:space="preserve">
<style type="text/css">
	.st0{fill:#A3A3A2;}
	.st1{fill:#BBBBBB;}
	.st2{fill:#DFDFDE;}
	.st3{fill:#CFD0D0;}
	.st4{fill:#6E6368;}
	.st5{fill:#32272C;}
	.st6{fill:#23171D;}
	.st7{fill:#453B40;}
	.st8{fill:#4C4247;}
	.st9{fill:#5D5358;}
	.st10{fill:#3A3035;}
	.st11{fill:#564B51;}
	.st12{fill:#6B6266;}
	.st13{fill:#6B2B15;}
	.st14{fill:#414141;}
	.st15{fill:#4E4E4E;}
	.st16{fill:#649CD4;}
	.st17{fill:#EAD644;}
	.st18{fill:#F5B486;}
	.st19{fill:#FBD1B4;}
	.st20{fill:#6B3221;}
</style>
<g>
	<g>
		<g>
			<path class="st0" d="M39.07,56.61h-0.8c-0.41-0.51-0.99-0.99-1.72-1.42c-3.37-1.95-8.86-1.94-12.25,0.02
				c-0.72,0.42-1.29,0.89-1.71,1.4h-0.85v1.12h0c-0.01,1.29,0.82,2.57,2.52,3.55c3.37,1.95,8.86,1.94,12.25-0.02
				c1.69-0.98,2.54-2.25,2.56-3.52h0V56.61z"/>
			<path class="st1" d="M24.3,53.34c3.39-1.96,8.88-1.97,12.25-0.02c3.37,1.95,3.35,5.11-0.04,7.07c-3.39,1.96-8.88,1.97-12.25,0.02
				C20.89,58.47,20.91,55.3,24.3,53.34z"/>
			<path class="st2" d="M26.21,52.88c2.33-1.35,6.1-1.35,8.42-0.02c2.32,1.34,2.3,3.51-0.03,4.86c-2.33,1.35-6.1,1.35-8.42,0.02
				C23.87,56.4,23.88,54.23,26.21,52.88z"/>
		</g>
		<g>
			<path class="st3" d="M31.35,55.9l0-29.34l-1.89,0.09l-0.01,29.23c0,0.02,0,0.04,0,0.07v0.03l0,0c0.02,0.12,0.11,0.24,0.27,0.33
				c0.37,0.21,0.97,0.21,1.34,0C31.26,56.19,31.35,56.05,31.35,55.9L31.35,55.9z"/>
			<path class="st4" d="M31.08,26.19c-0.37-0.21-0.97-0.21-1.34,0c-0.37,0.21-0.37,0.56-0.01,0.77c0.37,0.21,0.97,0.21,1.34,0
				C31.44,26.75,31.44,26.41,31.08,26.19z"/>
		</g>
		<g>
			<path class="st5" d="M29.9,11.21c0,0-2.36,3.59-3.28,4.68c-0.16,0.2-0.28,0.31-0.33,0.31c-0.31-0.02-2.91-3.17-3.23-3.76
				c-0.14-0.25-0.15-0.69-0.05-1.18c0.14-0.71,0.49-1.53,1.03-2.12c0.92-1.01,1.41-0.58,1.69-0.49C26,8.75,27.11,9.5,27.69,9.87
				C28.27,10.24,29.9,11.21,29.9,11.21z"/>
			<path class="st6" d="M26.62,15.89c-0.16,0.2-0.28,0.31-0.33,0.31c-0.31-0.02-2.91-3.17-3.23-3.76c-0.14-0.25-0.15-0.69-0.05-1.18
				c0.04,0.08,0.09,0.16,0.14,0.23c0.75,1.15,1.49,2.24,2.78,2.82c0.13,0.05,0.27,0.11,0.37,0.22c0.09,0.11,0.14,0.25,0.16,0.38
				C26.54,15.24,26.59,15.56,26.62,15.89z"/>
			<path class="st5" d="M30.65,42.86c-0.21,0.39-1.05,0.38-1.45,0.4c-0.25,0.02-0.49,0.02-0.73,0c-0.82-0.05-1.61-0.27-2.33-0.62
				c-0.13-0.06-0.26-0.13-0.38-0.2c-1.03-0.62-0.99-1.2-1.14-2.29c-0.15-1.08-0.22-2.18-0.16-3.27c0.01-0.12,0.06-1.08,0.17-1.81
				c0.07-0.46,0.16-0.82,0.27-0.83c0,0,0.3-0.02,0.77-0.06c1.55-0.12,4.9-0.37,4.9-0.37c-0.01,1.26-0.02,2.53-0.03,3.8
				c-0.01,0.29-0.01,0.59-0.01,0.88c0,0.27-0.01,0.54-0.01,0.82c-0.01,0.67-0.02,1.35-0.03,2.01
				C30.52,41.67,30.78,42.58,30.65,42.86z"/>
			<path class="st6" d="M30.65,42.86c-0.21,0.39-1.05,0.38-1.45,0.4c-0.25,0.02-0.49,0.02-0.73,0c-0.1-0.68-0.27-1.35-0.14-2.02
				c0.13-0.69,0.1-1.37,0.1-2.07c0-1.02,0-2.04,0.11-3.05c0.11-1.01,1.03-1.11,1.42-0.21c0.45,1.02,0.47,2.31,0.59,3.4
				c-0.01,0.67-0.02,1.35-0.03,2.01C30.52,41.67,30.78,42.58,30.65,42.86z"/>
			<path class="st7" d="M36.82,41.1c-0.25,1.15-0.04,2.87-1.08,3.69c-0.06,0.05-0.14,0.1-0.22,0.15c-1.16,0.72-3.14,0.67-4.3,0.17
				c-1.26-0.53-1.02-1.41-1.13-2.57c-0.05-0.54-0.06-1.14-0.35-1.62c-0.16-0.27-0.79-1.42-0.81-2.46c-0.01-0.34,0-0.71,0.01-1.05
				c0.03-0.71,0.07-1.31,0.07-1.31l7.45,0.36l0.71,0.04C37.41,37.98,37.14,39.64,36.82,41.1z"/>
			<path class="st8" d="M38.87,19.29c-0.14,1.34-0.86,4.52-1.29,6.06c-0.44,1.54-0.81,3.27-0.52,5.11c0.29,1.84,0.17,5.52,0.11,6.02
				c-0.02,0.16-0.27,0.37-0.74,0.56c-1.03,0.44-3.06,0.83-5.86,0.58c-0.04,0-0.07-0.01-0.11-0.01c-0.55-0.06-1.05-0.13-1.51-0.21
				c-1.65-0.31-2.77-0.81-3.45-1.29c-0.57-0.39-0.83-0.78-0.84-1.03v-0.03c0.02-0.64,1.4-6.74,1.33-7.42
				c-0.06-0.68-0.23-3.18-0.6-4.77c-0.38-1.59-0.47-3.52-0.47-3.52s-0.03-1.74,0.25-3.5c0.28-1.77,1.28-2.9,1.54-3.14
				c0.67-0.61,1.43-1.06,2.12-1.01c0.19,0.01,0.48,0.02,0.8,0.02c0.83,0,1.87-0.03,1.87-0.03c0.27-0.48,1.67,0.02,3.21,0.74
				c0.01,0,0.02,0,0.02,0.01c1.9,0.9,4,2.12,4.55,2.36C40.27,15.23,39,17.95,38.87,19.29z"/>
			<path class="st9" d="M35.57,26.57c0-0.9,0.03-1.8,0.04-2.69c0-0.2,0-0.42-0.12-0.58c-0.13-0.17-0.36-0.24-0.57-0.25
				c-0.18-0.02-0.38,0-0.54,0.08c-0.29,0.14-0.44,0.45-0.58,0.74c-0.16,0.35-0.32,0.7-0.43,1.07c-0.14,0.47-0.18,0.96-0.22,1.45
				c-0.26,3.08-0.99,5.98-2.05,8.88c-0.08,0.23-0.17,0.47-0.16,0.72c0.03,0.43,0.35,0.77,0.56,1.14c0.2,0.35,0.3,0.75,0.39,1.15
				c0.39,1.65,0.71,3.31,0.95,4.99c0.1,0.65,0.18,1.32,0.43,1.93c0.55,0.13,1.11-0.09,1.62-0.32c0.05-0.02,0.11-0.05,0.15-0.1
				c0.04-0.05,0.05-0.11,0.06-0.16c0.42-2.12,0.66-4.27,0.74-6.43c0.02-0.51,0.14-0.93,0.22-1.42c0.11-0.69,0.04-1.45,0.03-2.14
				c0-0.81-0.03-1.62-0.07-2.43c-0.03-0.65-0.16-1.23-0.26-1.86C35.6,29.09,35.57,27.83,35.57,26.57z"/>
			<path class="st9" d="M27.02,30.98c-0.04,0.34-0.08,0.69-0.09,1.04c-0.04,1.17-0.2,2.38-0.59,3.49c-0.44,1.25-0.41,2.64-0.1,3.95
				c0.06,0.27,0.15,0.54,0.2,0.82c0.14,0.78,0.02,1.67,0.5,2.3c0.28,0.37,0.76,0.59,1.23,0.56c-0.23-1.31-0.08-2.72-0.1-4.06
				c-0.01-0.43-0.29-2.84-0.04-2.95c0.17-0.08,0.37-0.01,0.55,0.05c1.01,0.32,2.08,0.43,3.14,0.32c0.18-0.02,0.36-0.05,0.5-0.15
				c0.14-0.1,0.22-0.26,0.29-0.41c0.81-1.74,1.17-3.69,1.03-5.61c-0.04-0.56-0.14-1.17-0.56-1.55c-0.23-0.21-0.52-0.32-0.81-0.43
				c-0.83-0.32-1.68-0.59-2.52-0.9c-0.57-0.21-1.47-0.81-2.06-0.41c-0.63,0.42-0.36,1.5-0.39,2.13
				C27.19,29.77,27.09,30.38,27.02,30.98z"/>
			<path class="st9" d="M27,24.98c0.53,0.63,1.31,0.98,2.07,1.31c0.11,0.05,0.22,0.1,0.34,0.08c0.14-0.01,0.26-0.11,0.35-0.22
				c0.48-0.55,0.49-1.35,0.47-2.07c-0.03-1.22-0.07-2.43-0.1-3.65c0-0.53,0-1.06-0.08-1.59c-0.05-0.35-0.03-0.78-0.21-1.1
				c-0.34-0.6-1.08-0.82-1.55-1.3c-0.5-0.51-1.41-1.58-2.24-1c-0.87,0.61-0.71,2.25-0.69,3.16c0.03,1.19,0.15,2.37,0.34,3.54
				C25.88,23.23,26.29,24.14,27,24.98z"/>
			<path class="st6" d="M29.6,11.71c-0.05,0.01-0.08,0.02-0.13,0.03c-0.42,0.1-0.86,0.22-1.23,0.45c-0.45,0.27-0.77,0.71-1.05,1.14
				c-2.09,3.19-1.66,6.46-1.08,10.04c0.2,1.24,0.52,2.35,0.48,3.6c-0.05,1.25-0.15,2.48-0.33,3.71c-0.17,1.14-0.39,2.34-0.57,3.52
				c-0.09,0.64-0.16,1.28-0.2,1.92c-0.04,0.49-0.05,1-0.03,1.49c0.07,1.7,0.36,3.39,0.68,5.05c-0.13-0.06-0.26-0.13-0.38-0.2
				c-1.03-0.62-0.99-1.2-1.14-2.29c-0.15-1.08-0.22-2.18-0.16-3.27c0.01-0.12,0.06-1.08,0.17-1.81v-0.03
				c0.02-0.64,1.4-6.74,1.33-7.42c-0.06-0.68-0.23-3.18-0.6-4.77c-0.38-1.59-0.47-3.52-0.47-3.52s-0.03-1.74,0.25-3.5
				c0.28-1.77,1.28-2.9,1.54-3.14c0.67-0.61,1.43-1.06,2.12-1.01C29,11.7,29.28,11.71,29.6,11.71z"/>
			<path class="st9" d="M29.99,12.37c0.01-0.18-0.07-0.41-0.22-0.61c-0.14-0.19-0.34-0.34-0.53-0.48c-0.85-0.63-1.69-1.33-2.6-1.87
				c-0.56-0.33-1.29-1.27-2.03-0.88c-0.44,0.23-0.77,0.69-0.94,1.14c-0.04,0.1-0.07,0.2-0.04,0.3c0.04,0.13,0.16,0.2,0.28,0.26
				c0.5,0.27,1.03,0.49,1.5,0.82c0.53,0.37,0.69,0.79,1.01,1.3c0.13,0.2,0.4,0.38,0.47,0.61c0.08,0.23-0.05,0.56-0.09,0.8
				c-0.11,0.67-0.23,1.34-0.34,2c-0.01,0.07-0.02,0.15,0.01,0.21c0.03,0.06,0.1,0.09,0.17,0.12c0.33,0.13,0.79,0.21,1.07,0.43
				c0.23,0.18,0.38,0.49,0.63,0.68c0.24,0.18,0.52,0.31,0.82,0.31c0.03-0.31-0.28-0.52-0.5-0.72c-0.42-0.38-0.71-0.96-0.56-1.52
				c0.12-0.46,0.17-1.22,0.43-1.6c0.17-0.23,0.5-0.42,0.74-0.56C29.52,12.96,29.96,12.71,29.99,12.37z"/>
			<path class="st9" d="M31.85,26.97c0.6,0.38,1.34,0.54,2.04,0.44c0.29-0.04,0.57-0.13,0.81-0.3c0.39-0.27,0.62-0.72,0.73-1.18
				c0.11-0.46,0.12-0.94,0.16-1.41c0.12-1.45,0.52-2.88,0.49-4.33c-0.01-0.43-0.06-0.88-0.33-1.22c-0.16-0.21-0.39-0.36-0.63-0.49
				c-0.71-0.4-1.51-0.7-2.32-0.8c-0.67-0.09-1.5-0.33-2.1,0.09c-0.87,0.61-0.71,2.25-0.69,3.16c0.03,1.19,0.15,2.37,0.34,3.54
				c0.15,0.92,0.45,1.65,1.17,2.27C31.63,26.82,31.74,26.9,31.85,26.97z"/>
			<path class="st10" d="M38.87,19.29c-0.14,1.34-0.86,4.52-1.29,6.06c-0.44,1.54-0.81,3.27-0.52,5.11
				c0.29,1.84,0.17,5.52,0.11,6.02c0.25,1.5-0.03,3.16-0.35,4.62c-0.25,1.15-0.04,2.87-1.08,3.69c-0.06,0.05-0.14,0.1-0.22,0.15
				c0-0.21,0.01-0.42,0.02-0.63c0.15-2.1,0.62-4.11,0.81-6.19c0.03-0.36,0.05-0.71,0.08-1.07c0.01-0.2,0.02-0.39,0.04-0.6
				c0.08-1.73,0.06-3.46-0.06-5.19c-0.06-0.84-0.15-1.69-0.11-2.55c0.03-0.65,0.13-1.3,0.23-1.95c0.17-1.07,0.12-2.15,0.29-3.22
				c0.15-0.99,0.35-1.97,0.6-2.93c0.22-0.84,1.06-1.49,1.48-2.25c0.47-0.85,0.36-2.18-0.09-3.02c-0.56-1.06-1.71-1.36-2.7-2.03
				c-0.46-0.3-0.92-0.6-1.4-0.87c1.9,0.9,4,2.12,4.55,2.36C40.27,15.23,39,17.95,38.87,19.29z"/>
			<path class="st10" d="M28.93,12.49c0,0,0.46,1.4,0.42,1.93s-0.03,1.49,0.91,1.73c0.94,0.24,2.9-0.25,3.5-1.18
				c0.44-0.89,0.17-1.89,0.16-2.09s-0.14-1.36,0.17-2.24c0.31-0.88,0.71-1.74,0.71-1.74s-2.59,0.49-3.21,1.02
				C30.96,10.46,28.93,12.49,28.93,12.49z"/>
			<path class="st11" d="M34.5,3.05c0,0-4.56-2.34-6.28,1.86c-0.69,3.05-0.42,3.79-0.41,4.55c0.02,0.76,0.09,3.56,0.75,4.07
				c0.66,0.52,2.8,0.01,3.7-0.57s1.58-1.88,1.86-2.1C34.4,10.65,35.93,9,36,6.56C36.08,4.13,34.5,3.05,34.5,3.05z"/>
			<path class="st8" d="M35.12,8.83c-0.3,0.5-0.6,1-1.01,1.42c-0.19,0.2-0.41,0.38-0.61,0.57c-0.36,0.35-0.66,0.77-1.01,1.12
				c-0.39,0.39-0.85,0.7-1.35,0.92c-0.45,0.2-0.97,0.13-1.45,0.09c-0.16-0.02-0.3-0.06-0.42-0.13c-0.18-0.11-0.33-0.27-0.47-0.48
				c-0.13-0.19-0.23-0.4-0.31-0.61c-0.38-1.01-0.33-2.37-0.32-3.44c0.02-2.11,0.38-4.55,2.52-5.51c0.66-0.3,1.72-0.11,2.41,0.03
				c0.62,0.12,1.22,0.33,1.79,0.6c-0.22-0.23-0.39-0.36-0.39-0.36s-4.56-2.34-6.28,1.86c-0.69,3.05-0.42,3.79-0.41,4.55
				c0.02,0.76,0.09,3.56,0.75,4.07c0.66,0.52,2.8,0.01,3.7-0.57c0.9-0.58,1.58-1.88,1.86-2.1c0.25-0.19,1.5-1.55,1.81-3.58
				C35.72,7.83,35.42,8.33,35.12,8.83z"/>
			<path class="st12" d="M31.96,2.82c-0.32-0.02-0.64-0.02-0.95,0.06c-0.21,0.06-0.58,0.17-0.67,0.38
				c-0.13,0.28-0.07,0.64,0.14,0.87c0.46,0.52,1.11,0.8,1.77,0.97c0.66,0.18,1.34,0.29,2.03,0.32c0.19,0.01,0.39,0,0.57-0.05
				c0.15-0.04,0.38-0.16,0.44-0.32c0.06-0.17-0.03-0.46-0.11-0.62C35,4.05,34.71,3.73,34.37,3.5C33.68,3.02,32.79,2.82,31.96,2.82z"
				/>
			<path class="st7" d="M43.46,17.03c0,0-1.03,0.86-1.36,2.18c-0.22,0.83-0.22,1.52-0.25,1.93c-0.01,0.24-0.04,0.38-0.11,0.4
				c-0.21,0.07-3.02-0.21-3.21-0.17c-0.2,0.04-1.01,0.04-1.22,0.01c-0.02,0-0.05-0.02-0.07-0.06c-0.33-0.38-1.3-2.68-1.07-4.24
				c0.25-1.7,1.65-2.81,1.65-2.81s2.11,0.36,3.41,1.25C42.52,16.43,43.46,17.03,43.46,17.03z"/>
			<path class="st9" d="M39.14,14.83c-0.89-0.2-1.64-0.6-2.47-0.96c-0.5-0.22-1.03-0.36-1.57-0.41c-0.08-0.01-0.16-0.01-0.21,0.05
				c-0.04,0.05-0.04,0.11-0.04,0.17c0.01,0.44-0.01,0.9-0.21,1.29c-0.35,0.69-1.17,1.32-1.87,1.63c-0.82,0.36-1.51,0.79-2.15,1.43
				c-0.02,0.02-0.04,0.04-0.05,0.07c-0.02,0.08,0.1,0.12,0.19,0.12c0.71-0.02,1.41-0.07,2.11,0.05c0.72,0.12,1.13-0.23,1.69-0.65
				c0.43-0.32,0.75-0.44,1.27-0.54c0.8-0.15,1.51,0.07,2.25,0.4c0.38,0.16,0.69,0.36,1.1,0.48c0.98,0.27,1.98,0.46,2.99,0.58
				c0.46,0.05,1.21-0.5,1.24-1.01c0.02-0.36-0.33-0.62-0.64-0.81c-0.87-0.52-1.75-1.04-2.62-1.55
				C39.79,14.95,39.54,14.92,39.14,14.83z"/>
			<path class="st6" d="M41.85,21.14c-0.01,0.24-0.04,0.38-0.11,0.4c-0.21,0.07-3.02-0.21-3.21-0.17c-0.2,0.04-1.01,0.04-1.22,0.01
				c-0.02,0-0.05-0.02-0.07-0.06c0.03-0.08,0.1-0.15,0.24-0.18c0.45-0.11,0.93-0.14,1.41-0.17c0.44-0.04,0.81,0.05,1.26,0.07
				C40.73,21.08,41.29,21.13,41.85,21.14z"/>
			<path class="st10" d="M42.88,16.92c0,0-2.87,2.48-1.14,4.62c1.98,0.5,2.14-1.48,2.35-2.03C44.3,18.97,44.22,16.82,42.88,16.92z"
				/>
		</g>
	</g>
	<g>
		<path class="st13" d="M13.29,59.46c0,0-0.17,1.13-0.15,1.44c0.01,0.31-0.29,1.14-0.13,1.75c0.16,0.6,1.16,0.74,1.62,0.57
			s1.37-0.66,1.76-0.67c0.39,0,2.21,0.07,2.54-0.03s1.9-0.25,2.03-0.74c0.13-0.49-0.57-0.75-0.82-0.97
			c-0.25-0.22-0.45-0.41-0.99-0.47c-0.54-0.06-2.12,0.03-2.31,0.04c-0.19,0.01-0.73-0.41-0.94-0.76
			C15.71,59.28,13.29,59.46,13.29,59.46z"/>
		<path class="st13" d="M9.38,65.22c0,0-0.03,0.94-0.17,1.28c-0.13,0.34-0.27,1.23-0.17,1.58c0.1,0.34,1.47,1.21,1.88,1.27
			c0.41,0.06,1.75,0.57,2.15,0.71c0.4,0.14,1.64,0.65,2.57,0.46c0.93-0.19,1.57-0.78,1.64-1.14c0.06-0.36-1.27-1.09-1.47-1.2
			c-0.2-0.1-2.06-1.09-2.22-1.26s-1.09-0.75-1.19-1.06c-0.1-0.31-0.42-1.44-0.42-1.44L9.38,65.22z"/>
		<path class="st14" d="M12.38,54.15c0,0,0.6,5.32,0.68,5.7c0.03,0.14-0.02,0.3,0.04,0.42c0.06,0.12,0.24,0.21,0.36,0.25
			c0.17,0.05,0.34,0.05,0.52,0.05c0.47,0,0.97-0.03,1.36-0.29c0.3-0.19,0.51-0.48,0.64-0.81c0.12-0.31,0.01-0.65,0.01-0.98
			c0.01-1.27,0-4.24,0.07-4.63c0.08-0.39,0.85-2.98,0.96-3.58c0.11-0.61,0.79-6.24,0.73-7.65c-0.05-1.41,0.05-2.22,0.05-2.22
			s-3.29,0.37-3.55,0.83C14.01,41.72,12.38,54.15,12.38,54.15z"/>
		<path class="st15" d="M8.91,37.97c0,0-0.55,1.27-0.5,1.89c0.05,0.62-0.42,2.07-0.32,3.03c0.1,0.96,1.99,4.63,2.05,5.46
			s-0.19,3.77-0.34,4.54c-0.15,0.77-1.26,5.21-1.32,6.1c-0.06,0.89,0.67,5.14,0.72,5.79c0.02,0.32,0.03,0.65,0.04,0.98
			c0,0.31,0.15,0.48,0.42,0.63c0.21,0.12,0.42,0.24,0.64,0.34c0.18,0.09,0.31,0.09,0.5,0.1c0.48,0.03,0.93,0,1.38-0.18
			c0.12-0.05,0.24-0.1,0.33-0.19c0.21-0.2,0.24-0.53,0.24-0.82c0-0.78-0.1-1.54-0.05-2.32c0.09-1.57,1.03-6.47,1.53-7.45
			c0.5-0.98,2.15-5.77,2.34-6.41c0.19-0.64,1.06-5.71,1.1-7.34c0.04-1.63,0.14-1.7,0.14-1.7L8.91,37.97z"/>
		<path class="st16" d="M17.81,40.42c0,0,0.47-2.6,0.48-2.95c0.01-0.35,1.51-5.14,1.38-6.23c-0.14-1.09-1.39-3.11-1.71-3.79
			c-0.32-0.68-1.13-1.74-1.13-1.74s-4.08-5.31-4.93-5.47c-0.85-0.15-2.6,0.06-3.07,2.7S8.7,28.28,9,30.74
			c0.3,2.45,0.37,4.48,0.24,5.88c-0.13,1.4-0.33,1.36-0.33,1.36s0.17,2.3,4.11,2.81C16.95,41.29,17.81,40.42,17.81,40.42z"/>
		<path class="st17" d="M26.66,13.72c0,0,0.04,10.45,0,12.02c-0.04,1.57-0.14,6.53-0.03,7.71c0.11,1.18,0.03,1.51,0.03,1.51
			s-0.92,1.37-0.99,1.97c-0.07,0.59-0.4,4.92-0.44,5.78c-0.04,0.85-0.69,6.37-0.76,9.37c-0.07,3,0.02,4.74,0.02,4.74l0.31,0.27
			c0,0-0.01-3.6-0.02-4.23c-0.01-0.63,0.41-5.81,0.6-7.5c0.19-1.7,0.63-7.55,0.63-7.86c0-0.3,0.26-0.98,0.26-0.98
			s0.92-1.01,0.86-1.9c-0.07-0.9-0.08-5.75-0.08-5.75l-0.02-15.2L26.66,13.72z"/>
		<path class="st18" d="M27.03,13.67c0,0,0.31,0.26,0.19,0.42c-0.12,0.15-0.4,0.03-0.4,0.03l-0.46-0.24c0,0-1.58,0.18-1.91,0.17
			c-0.33-0.01-0.84-0.3-1.01-0.3c-0.17,0-0.61,0.05-0.61,0.05s-0.45,0.06-1.88,1.42c-1.43,1.36-1.61,1.92-2.95,2.28
			c-1.34,0.36-3.62-0.18-3.12-1.44c0.49-1.26,2.72-1.62,4.25-2.38c1.53-0.76,3.31-1.6,3.52-1.69c0.21-0.09,2.08-1.25,2.25-1.28
			c0.17-0.03,0.54,0.1,0.69,0.34c0.16,0.24,0.5,0.65,0.5,0.65s0.44,0.42,0.45,0.55c0.01,0.14-0.08,0.2,0.04,0.29
			c0.12,0.09,0.49,0.49,0.48,0.65c-0.01,0.16,0.25,0.16,0.24,0.35c-0.02,0.19-0.06,0.2-0.06,0.2L27.03,13.67z"/>
		<path class="st19" d="M26.73,34.64c0,0,0.36-0.23,0.48-0.24c0.12-0.01,0.38,0.07,0.38,0.07l-0.18,0.47c0,0,0.11,0.54,0.08,0.7
			c-0.03,0.16-0.16,0.56-0.24,0.65c-0.08,0.09-0.27,0.65-0.6,0.79c-0.32,0.14-1.03,0.14-1.26,0.1c-0.24-0.03-1.31-0.27-2.06-0.39
			c-0.74-0.12-1.88-0.12-2.95-0.77c-1.33-0.65-3.33-1.13-3.84-1.44c-0.51-0.3-3.62-2.55-3.59-3.83c0.03-1.28-0.1-3.05,1.79-3.61
			c1.89-0.56,4.33,4.14,5.18,5.06c0.85,0.91,1.92,0.6,2.68,1.33c0.76,0.73,2.04,1.52,2.41,1.49c0.36-0.03,0.4-0.23,0.73-0.39
			c0.33-0.17,0.87-0.18,0.87-0.18L26.73,34.64z"/>
		<path class="st19" d="M15.26,25.44c0,0-0.43-1.04-0.28-2.21c0.15-1.17,0.32-1.46,0.32-1.46s0.1-0.2,0.58-0.15
			c0.47,0.06,0.9,0.17,1.22-0.56c0.32-0.73,0.88-1.66,0.96-1.88c0.08-0.22,0.47-0.5,0.42-0.95c-0.05-0.45,0.14-2.09-0.01-2.74
			c-0.15-0.65-0.48-2.18-1.31-2.33c-0.83-0.15-5.36,1.38-5.86,2.24c-0.5,0.86-0.41,4.98-0.49,5.5c-0.08,0.51-0.67,1.56-0.7,1.89
			c-0.03,0.34,0.47,1.1,2.03,1.77C13.7,25.23,15.34,26.22,15.26,25.44z"/>
		<path class="st20" d="M18.2,13.67c0,0,0.19,1.49-0.34,3.33c-0.53,1.84-1.45,2.67-2.24,3.06c-0.79,0.39-1.78,1.27-3.13,1.31
			c-1.35,0.04-1.94,0.28-1.94,0.28s-0.3-0.7-0.43-3.14c-0.12-2.44-0.25-4.91,1.85-6.46c2.1-1.55,4.21-0.53,4.71-0.06
			C17.19,12.48,18.18,13.42,18.2,13.67z"/>
		<path class="st20" d="M10.15,15.38c0,0-0.55,9.39-1.55,13.51c-1.01,4.12,0.78,6.14,0.78,6.14s3.09-12.77,4.1-13.82
			c1.01-1.05,1.62-2.51,1.62-2.51L10.15,15.38z"/>
	</g>
</g>
</svg>
