<svg width="1152" height="942" viewBox="0 0 1152 942" fill="none" xmlns="http://www.w3.org/2000/svg">
<circle cx="68.5" cy="494.5" r="2.5" fill="white"/>
<circle cx="347.5" cy="257.5" r="2.5" fill="white"/>
<circle cx="933.5" cy="211.5" r="2.5" fill="white"/>
<circle cx="1111.5" cy="233.5" r="2.5" fill="white"/>
<circle cx="718.5" cy="518.5" r="2.5" fill="white"/>
<circle cx="324.5" cy="2.5" r="2.5" fill="white"/>
<circle cx="617.5" cy="252.5" r="2.5" fill="white"/>
<circle cx="60.5" cy="847.5" r="2.5" fill="white"/>
<circle cx="557.5" cy="389.5" r="2.5" fill="white"/>
<circle cx="582.5" cy="656.5" r="2.5" fill="white"/>
<circle cx="329.5" cy="114.5" r="2.5" fill="white"/>
<circle cx="1149.5" cy="132.5" r="2.5" fill="white"/>
<circle cx="2.5" cy="361.5" r="2.5" fill="white"/>
<circle cx="701.5" cy="181.5" r="2.5" fill="white"/>
<circle cx="567.5" cy="939.5" r="2.5" fill="white"/>
<circle cx="360.5" cy="447.5" r="2.5" fill="white"/>
<circle cx="243.5" cy="394.5" r="2.5" fill="white"/>
<circle cx="485.5" cy="744.5" r="2.5" fill="white"/>
<circle cx="193.5" cy="114.5" r="2.5" fill="white"/>
<circle cx="936.5" cy="384.5" r="2.5" fill="white"/>
<circle cx="139.5" cy="259.5" r="2.5" fill="white"/>
<circle cx="198.5" cy="638.5" r="2.5" fill="white"/>
</svg>